G04 #@! TF.FileFunction,Soldermask,Bot*
%FSLAX46Y46*%
G04 Gerber Fmt 4.6, Leading zero omitted, Abs format (unit mm)*
G04 Created by KiCad (PCBNEW 4.0.7) date 10/12/17 20:03:31*
%MOMM*%
%LPD*%
G01*
G04 APERTURE LIST*
%ADD10C,0.100000*%
%ADD11C,3.000000*%
%ADD12R,2.100000X2.100000*%
%ADD13O,2.100000X2.100000*%
%ADD14O,1.350000X1.650000*%
%ADD15O,1.950000X1.400000*%
%ADD16C,3.600000*%
G04 APERTURE END LIST*
D10*
D11*
X75565000Y-119380000D03*
X81765000Y-119380000D03*
X78665000Y-124380000D03*
D12*
X99060000Y-124460000D03*
D13*
X101600000Y-124460000D03*
X104140000Y-124460000D03*
X106680000Y-124460000D03*
X109220000Y-124460000D03*
X111760000Y-124460000D03*
X114300000Y-124460000D03*
X116840000Y-124460000D03*
D12*
X121920000Y-124460000D03*
D13*
X124460000Y-124460000D03*
X127000000Y-124460000D03*
X129540000Y-124460000D03*
X132080000Y-124460000D03*
X134620000Y-124460000D03*
D12*
X89916000Y-76200000D03*
D13*
X92456000Y-76200000D03*
X94996000Y-76200000D03*
X97536000Y-76200000D03*
X100076000Y-76200000D03*
X102616000Y-76200000D03*
X105156000Y-76200000D03*
X107696000Y-76200000D03*
X110236000Y-76200000D03*
X112776000Y-76200000D03*
D12*
X116840000Y-76200000D03*
D13*
X119380000Y-76200000D03*
X121920000Y-76200000D03*
X124460000Y-76200000D03*
X127000000Y-76200000D03*
X129540000Y-76200000D03*
X132080000Y-76200000D03*
X134620000Y-76200000D03*
D12*
X134620000Y-96520000D03*
D13*
X137160000Y-96520000D03*
X134620000Y-99060000D03*
X137160000Y-99060000D03*
X134620000Y-101600000D03*
X137160000Y-101600000D03*
D14*
X75725000Y-100965000D03*
X75725000Y-105965000D03*
D15*
X73025000Y-99965000D03*
X73025000Y-106965000D03*
D16*
X137160000Y-91440000D03*
X137160000Y-119380000D03*
X85090000Y-124460000D03*
X86360000Y-76200000D03*
M02*
