G04 #@! TF.FileFunction,Legend,Bot*
%FSLAX46Y46*%
G04 Gerber Fmt 4.6, Leading zero omitted, Abs format (unit mm)*
G04 Created by KiCad (PCBNEW 4.0.7) date 10/12/17 20:03:31*
%MOMM*%
%LPD*%
G01*
G04 APERTURE LIST*
%ADD10C,0.100000*%
%ADD11C,0.400000*%
%ADD12C,0.300000*%
%ADD13C,0.010000*%
G04 APERTURE END LIST*
D10*
D11*
X127281002Y-88249143D02*
X127007193Y-88344381D01*
X126923858Y-88439619D01*
X126852430Y-88630095D01*
X126888144Y-88915810D01*
X127007192Y-89106286D01*
X127114335Y-89201524D01*
X127316716Y-89296762D01*
X128078621Y-89296762D01*
X127828621Y-87296762D01*
X127161954Y-87296762D01*
X126983383Y-87392000D01*
X126900050Y-87487238D01*
X126828620Y-87677714D01*
X126852430Y-87868190D01*
X126971478Y-88058667D01*
X127078621Y-88153905D01*
X127281002Y-88249143D01*
X127947669Y-88249143D01*
X125792906Y-89296762D02*
X125971477Y-89201524D01*
X126054812Y-89106286D01*
X126126240Y-88915810D01*
X126054812Y-88344381D01*
X125935764Y-88153905D01*
X125828620Y-88058667D01*
X125626240Y-87963429D01*
X125340526Y-87963429D01*
X125161954Y-88058667D01*
X125078621Y-88153905D01*
X125007193Y-88344381D01*
X125078621Y-88915810D01*
X125197669Y-89106286D01*
X125304811Y-89201524D01*
X125507192Y-89296762D01*
X125792906Y-89296762D01*
X123411954Y-89296762D02*
X123281002Y-88249143D01*
X123352430Y-88058667D01*
X123531002Y-87963429D01*
X123911954Y-87963429D01*
X124114335Y-88058667D01*
X123400049Y-89201524D02*
X123602430Y-89296762D01*
X124078620Y-89296762D01*
X124257192Y-89201524D01*
X124328621Y-89011048D01*
X124304811Y-88820571D01*
X124185764Y-88630095D01*
X123983382Y-88534857D01*
X123507192Y-88534857D01*
X123304811Y-88439619D01*
X122459573Y-89296762D02*
X122292907Y-87963429D01*
X122340526Y-88344381D02*
X122221477Y-88153905D01*
X122114334Y-88058667D01*
X121911954Y-87963429D01*
X121721478Y-87963429D01*
X120364335Y-89296762D02*
X120114335Y-87296762D01*
X120352430Y-89201524D02*
X120554811Y-89296762D01*
X120935763Y-89296762D01*
X121114334Y-89201524D01*
X121197669Y-89106286D01*
X121269097Y-88915810D01*
X121197669Y-88344381D01*
X121078621Y-88153905D01*
X120971477Y-88058667D01*
X120769097Y-87963429D01*
X120388145Y-87963429D01*
X120209573Y-88058667D01*
X117971477Y-89201524D02*
X117697667Y-89296762D01*
X117221477Y-89296762D01*
X117019096Y-89201524D01*
X116911954Y-89106286D01*
X116792905Y-88915810D01*
X116769096Y-88725333D01*
X116840525Y-88534857D01*
X116923858Y-88439619D01*
X117102430Y-88344381D01*
X117471477Y-88249143D01*
X117650048Y-88153905D01*
X117733382Y-88058667D01*
X117804811Y-87868190D01*
X117781001Y-87677714D01*
X117661954Y-87487238D01*
X117554810Y-87392000D01*
X117352429Y-87296762D01*
X116876239Y-87296762D01*
X116602429Y-87392000D01*
X116102430Y-87963429D02*
X115340525Y-87963429D01*
X115733382Y-87296762D02*
X115947668Y-89011048D01*
X115876238Y-89201524D01*
X115697667Y-89296762D01*
X115507191Y-89296762D01*
X113816716Y-87963429D02*
X113983382Y-89296762D01*
X114673859Y-87963429D02*
X114804811Y-89011048D01*
X114733381Y-89201524D01*
X114554810Y-89296762D01*
X114269096Y-89296762D01*
X114066715Y-89201524D01*
X113959573Y-89106286D01*
X112864335Y-87963429D02*
X113114335Y-89963429D01*
X112876239Y-88058667D02*
X112673858Y-87963429D01*
X112292906Y-87963429D01*
X112114334Y-88058667D01*
X112031001Y-88153905D01*
X111959573Y-88344381D01*
X112031001Y-88915810D01*
X112150049Y-89106286D01*
X112257191Y-89201524D01*
X112459572Y-89296762D01*
X112840524Y-89296762D01*
X113019096Y-89201524D01*
X111221477Y-89296762D02*
X111054811Y-87963429D01*
X110971477Y-87296762D02*
X111078620Y-87392000D01*
X110995287Y-87487238D01*
X110888143Y-87392000D01*
X110971477Y-87296762D01*
X110995287Y-87487238D01*
X109411953Y-89296762D02*
X109161953Y-87296762D01*
X109400048Y-89201524D02*
X109602429Y-89296762D01*
X109983381Y-89296762D01*
X110161952Y-89201524D01*
X110245287Y-89106286D01*
X110316715Y-88915810D01*
X110245287Y-88344381D01*
X110126239Y-88153905D01*
X110019095Y-88058667D01*
X109816715Y-87963429D01*
X109435763Y-87963429D01*
X109257191Y-88058667D01*
X105983381Y-89296762D02*
X106935762Y-89296762D01*
X106685762Y-87296762D01*
X104542904Y-89201524D02*
X104745285Y-89296762D01*
X105126237Y-89296762D01*
X105304809Y-89201524D01*
X105376238Y-89011048D01*
X105281000Y-88249143D01*
X105161952Y-88058667D01*
X104959571Y-87963429D01*
X104578619Y-87963429D01*
X104400047Y-88058667D01*
X104328619Y-88249143D01*
X104352428Y-88439619D01*
X105328619Y-88630095D01*
X103316713Y-89296762D02*
X103495284Y-89201524D01*
X103578619Y-89106286D01*
X103650047Y-88915810D01*
X103578619Y-88344381D01*
X103459571Y-88153905D01*
X103352427Y-88058667D01*
X103150047Y-87963429D01*
X102864333Y-87963429D01*
X102685761Y-88058667D01*
X102602428Y-88153905D01*
X102531000Y-88344381D01*
X102602428Y-88915810D01*
X102721476Y-89106286D01*
X102828618Y-89201524D01*
X103030999Y-89296762D01*
X103316713Y-89296762D01*
X101626238Y-87963429D02*
X101792904Y-89296762D01*
X101650047Y-88153905D02*
X101542903Y-88058667D01*
X101340523Y-87963429D01*
X101054809Y-87963429D01*
X100876237Y-88058667D01*
X100804809Y-88249143D01*
X100935761Y-89296762D01*
X99126237Y-89296762D02*
X98995285Y-88249143D01*
X99066713Y-88058667D01*
X99245285Y-87963429D01*
X99626237Y-87963429D01*
X99828618Y-88058667D01*
X99114332Y-89201524D02*
X99316713Y-89296762D01*
X99792903Y-89296762D01*
X99971475Y-89201524D01*
X100042904Y-89011048D01*
X100019094Y-88820571D01*
X99900047Y-88630095D01*
X99697665Y-88534857D01*
X99221475Y-88534857D01*
X99019094Y-88439619D01*
X98173856Y-89296762D02*
X98007190Y-87963429D01*
X98054809Y-88344381D02*
X97935760Y-88153905D01*
X97828617Y-88058667D01*
X97626237Y-87963429D01*
X97435761Y-87963429D01*
X96078618Y-89296762D02*
X95828618Y-87296762D01*
X96066713Y-89201524D02*
X96269094Y-89296762D01*
X96650046Y-89296762D01*
X96828617Y-89201524D01*
X96911952Y-89106286D01*
X96983380Y-88915810D01*
X96911952Y-88344381D01*
X96792904Y-88153905D01*
X96685760Y-88058667D01*
X96483380Y-87963429D01*
X96102428Y-87963429D01*
X95923856Y-88058667D01*
X94840522Y-89296762D02*
X95019093Y-89201524D01*
X95102428Y-89106286D01*
X95173856Y-88915810D01*
X95102428Y-88344381D01*
X94983380Y-88153905D01*
X94876236Y-88058667D01*
X94673856Y-87963429D01*
X94388142Y-87963429D01*
X94209570Y-88058667D01*
X94126237Y-88153905D01*
X94054809Y-88344381D01*
X94126237Y-88915810D01*
X94245285Y-89106286D01*
X94352427Y-89201524D01*
X94554808Y-89296762D01*
X94840522Y-89296762D01*
X91697665Y-88534857D02*
X90173855Y-88534857D01*
X87816713Y-87963429D02*
X87507188Y-89296762D01*
X86864332Y-87963429D01*
X85221473Y-89296762D02*
X86364331Y-89296762D01*
X85792902Y-89296762D02*
X85542902Y-87296762D01*
X85769092Y-87582476D01*
X85983378Y-87772952D01*
X86185760Y-87868190D01*
X84340522Y-89106286D02*
X84257187Y-89201524D01*
X84364331Y-89296762D01*
X84447664Y-89201524D01*
X84340522Y-89106286D01*
X84364331Y-89296762D01*
X82780997Y-87296762D02*
X82590521Y-87296762D01*
X82411950Y-87392000D01*
X82328617Y-87487238D01*
X82257188Y-87677714D01*
X82209568Y-88058667D01*
X82269092Y-88534857D01*
X82411950Y-88915810D01*
X82530998Y-89106286D01*
X82638140Y-89201524D01*
X82840521Y-89296762D01*
X83030997Y-89296762D01*
X83209568Y-89201524D01*
X83292902Y-89106286D01*
X83364331Y-88915810D01*
X83411950Y-88534857D01*
X83352426Y-88058667D01*
X83209569Y-87677714D01*
X83090521Y-87487238D01*
X82983378Y-87392000D01*
X82780997Y-87296762D01*
D12*
X121732144Y-114216571D02*
X121732144Y-112716571D01*
X121089287Y-114216571D02*
X121089287Y-113430857D01*
X121160716Y-113288000D01*
X121303573Y-113216571D01*
X121517858Y-113216571D01*
X121660716Y-113288000D01*
X121732144Y-113359429D01*
X120589287Y-113216571D02*
X120017858Y-113216571D01*
X120375001Y-112716571D02*
X120375001Y-114002286D01*
X120303573Y-114145143D01*
X120160715Y-114216571D01*
X120017858Y-114216571D01*
X119732144Y-113216571D02*
X119160715Y-113216571D01*
X119517858Y-112716571D02*
X119517858Y-114002286D01*
X119446430Y-114145143D01*
X119303572Y-114216571D01*
X119160715Y-114216571D01*
X118660715Y-113216571D02*
X118660715Y-114716571D01*
X118660715Y-113288000D02*
X118517858Y-113216571D01*
X118232144Y-113216571D01*
X118089287Y-113288000D01*
X118017858Y-113359429D01*
X117946429Y-113502286D01*
X117946429Y-113930857D01*
X118017858Y-114073714D01*
X118089287Y-114145143D01*
X118232144Y-114216571D01*
X118517858Y-114216571D01*
X118660715Y-114145143D01*
X117303572Y-114073714D02*
X117232144Y-114145143D01*
X117303572Y-114216571D01*
X117375001Y-114145143D01*
X117303572Y-114073714D01*
X117303572Y-114216571D01*
X117303572Y-113288000D02*
X117232144Y-113359429D01*
X117303572Y-113430857D01*
X117375001Y-113359429D01*
X117303572Y-113288000D01*
X117303572Y-113430857D01*
X115517858Y-112645143D02*
X116803572Y-114573714D01*
X113946429Y-112645143D02*
X115232143Y-114573714D01*
X113446428Y-114216571D02*
X113446428Y-113216571D01*
X113446428Y-113502286D02*
X113375000Y-113359429D01*
X113303571Y-113288000D01*
X113160714Y-113216571D01*
X113017857Y-113216571D01*
X112303571Y-114216571D02*
X112446429Y-114145143D01*
X112517857Y-114002286D01*
X112517857Y-112716571D01*
X111089286Y-114216571D02*
X111089286Y-113430857D01*
X111160715Y-113288000D01*
X111303572Y-113216571D01*
X111589286Y-113216571D01*
X111732143Y-113288000D01*
X111089286Y-114145143D02*
X111232143Y-114216571D01*
X111589286Y-114216571D01*
X111732143Y-114145143D01*
X111803572Y-114002286D01*
X111803572Y-113859429D01*
X111732143Y-113716571D01*
X111589286Y-113645143D01*
X111232143Y-113645143D01*
X111089286Y-113573714D01*
X110375000Y-114216571D02*
X110375000Y-112716571D01*
X110375000Y-113288000D02*
X110232143Y-113216571D01*
X109946429Y-113216571D01*
X109803572Y-113288000D01*
X109732143Y-113359429D01*
X109660714Y-113502286D01*
X109660714Y-113930857D01*
X109732143Y-114073714D01*
X109803572Y-114145143D01*
X109946429Y-114216571D01*
X110232143Y-114216571D01*
X110375000Y-114145143D01*
X109017857Y-114073714D02*
X108946429Y-114145143D01*
X109017857Y-114216571D01*
X109089286Y-114145143D01*
X109017857Y-114073714D01*
X109017857Y-114216571D01*
X108089285Y-114216571D02*
X108232143Y-114145143D01*
X108303571Y-114073714D01*
X108375000Y-113930857D01*
X108375000Y-113502286D01*
X108303571Y-113359429D01*
X108232143Y-113288000D01*
X108089285Y-113216571D01*
X107875000Y-113216571D01*
X107732143Y-113288000D01*
X107660714Y-113359429D01*
X107589285Y-113502286D01*
X107589285Y-113930857D01*
X107660714Y-114073714D01*
X107732143Y-114145143D01*
X107875000Y-114216571D01*
X108089285Y-114216571D01*
X106946428Y-114216571D02*
X106946428Y-113216571D01*
X106946428Y-113502286D02*
X106875000Y-113359429D01*
X106803571Y-113288000D01*
X106660714Y-113216571D01*
X106517857Y-113216571D01*
X105375000Y-113216571D02*
X105375000Y-114430857D01*
X105446429Y-114573714D01*
X105517857Y-114645143D01*
X105660714Y-114716571D01*
X105875000Y-114716571D01*
X106017857Y-114645143D01*
X105375000Y-114145143D02*
X105517857Y-114216571D01*
X105803571Y-114216571D01*
X105946429Y-114145143D01*
X106017857Y-114073714D01*
X106089286Y-113930857D01*
X106089286Y-113502286D01*
X106017857Y-113359429D01*
X105946429Y-113288000D01*
X105803571Y-113216571D01*
X105517857Y-113216571D01*
X105375000Y-113288000D01*
X104660714Y-114073714D02*
X104589286Y-114145143D01*
X104660714Y-114216571D01*
X104732143Y-114145143D01*
X104660714Y-114073714D01*
X104660714Y-114216571D01*
X103303571Y-113216571D02*
X103303571Y-114216571D01*
X103946428Y-113216571D02*
X103946428Y-114002286D01*
X103875000Y-114145143D01*
X103732142Y-114216571D01*
X103517857Y-114216571D01*
X103375000Y-114145143D01*
X103303571Y-114073714D01*
X102589285Y-114216571D02*
X102589285Y-112716571D01*
X102446428Y-113645143D02*
X102017857Y-114216571D01*
X102017857Y-113216571D02*
X102589285Y-113788000D01*
X100303571Y-112645143D02*
X101589285Y-114573714D01*
D13*
G36*
X128757782Y-110705884D02*
X128711726Y-110728976D01*
X128641376Y-110766405D01*
X128548279Y-110817304D01*
X128433980Y-110880810D01*
X128300025Y-110956056D01*
X128147958Y-111042177D01*
X127979327Y-111138308D01*
X127795676Y-111243582D01*
X127598551Y-111357134D01*
X127523875Y-111400283D01*
X126309438Y-112102573D01*
X126309438Y-114973426D01*
X127523875Y-115675716D01*
X127725514Y-115792062D01*
X127914241Y-115900445D01*
X128088509Y-115999998D01*
X128246774Y-116089857D01*
X128387490Y-116169155D01*
X128509112Y-116237028D01*
X128610093Y-116292609D01*
X128688888Y-116335034D01*
X128743952Y-116363436D01*
X128773739Y-116376951D01*
X128778000Y-116378005D01*
X128798219Y-116370115D01*
X128844275Y-116347023D01*
X128914625Y-116309594D01*
X129007722Y-116258695D01*
X129122021Y-116195189D01*
X129255976Y-116119943D01*
X129408043Y-116033822D01*
X129576674Y-115937691D01*
X129760325Y-115832417D01*
X129957450Y-115718865D01*
X130032125Y-115675716D01*
X131246563Y-114973426D01*
X131246563Y-113551928D01*
X131056176Y-113551928D01*
X131050950Y-113716922D01*
X131036766Y-113870602D01*
X131018100Y-113982500D01*
X130949073Y-114243601D01*
X130856824Y-114484389D01*
X130739808Y-114707751D01*
X130596482Y-114916572D01*
X130425300Y-115113738D01*
X130397304Y-115142306D01*
X130193513Y-115326042D01*
X129976175Y-115481069D01*
X129745078Y-115607492D01*
X129500007Y-115705414D01*
X129240749Y-115774941D01*
X129044227Y-115807597D01*
X128935826Y-115816088D01*
X128807034Y-115817982D01*
X128668413Y-115813743D01*
X128530527Y-115803836D01*
X128403940Y-115788722D01*
X128333077Y-115776398D01*
X128073762Y-115709671D01*
X127833131Y-115618043D01*
X127608544Y-115500093D01*
X127397359Y-115354404D01*
X127196933Y-115179555D01*
X127166454Y-115149546D01*
X126990591Y-114955262D01*
X126843164Y-114751501D01*
X126722297Y-114534780D01*
X126626113Y-114301614D01*
X126552736Y-114048520D01*
X126537901Y-113982500D01*
X126516250Y-113846226D01*
X126503558Y-113689935D01*
X126499825Y-113524071D01*
X126505051Y-113359077D01*
X126519235Y-113205397D01*
X126537901Y-113093500D01*
X126605930Y-112834944D01*
X126696303Y-112597178D01*
X126810896Y-112376717D01*
X126951584Y-112170077D01*
X127120245Y-111973775D01*
X127166454Y-111926453D01*
X127360738Y-111750590D01*
X127564499Y-111603163D01*
X127781220Y-111482296D01*
X128014386Y-111386112D01*
X128267480Y-111312735D01*
X128333500Y-111297900D01*
X128469774Y-111276249D01*
X128626065Y-111263557D01*
X128791929Y-111259824D01*
X128956923Y-111265050D01*
X129110603Y-111279234D01*
X129222500Y-111297900D01*
X129481056Y-111365929D01*
X129718822Y-111456302D01*
X129939283Y-111570895D01*
X130145923Y-111711583D01*
X130342225Y-111880244D01*
X130389547Y-111926453D01*
X130565410Y-112120737D01*
X130712837Y-112324498D01*
X130833704Y-112541219D01*
X130929888Y-112774385D01*
X131003265Y-113027479D01*
X131018100Y-113093500D01*
X131039751Y-113229773D01*
X131052443Y-113386064D01*
X131056176Y-113551928D01*
X131246563Y-113551928D01*
X131246563Y-112102573D01*
X130032125Y-111400283D01*
X129830487Y-111283937D01*
X129641760Y-111175554D01*
X129467492Y-111076001D01*
X129309227Y-110986142D01*
X129168511Y-110906844D01*
X129046889Y-110838971D01*
X128945908Y-110783390D01*
X128867113Y-110740965D01*
X128812049Y-110712563D01*
X128782262Y-110699048D01*
X128778000Y-110697994D01*
X128757782Y-110705884D01*
X128757782Y-110705884D01*
G37*
X128757782Y-110705884D02*
X128711726Y-110728976D01*
X128641376Y-110766405D01*
X128548279Y-110817304D01*
X128433980Y-110880810D01*
X128300025Y-110956056D01*
X128147958Y-111042177D01*
X127979327Y-111138308D01*
X127795676Y-111243582D01*
X127598551Y-111357134D01*
X127523875Y-111400283D01*
X126309438Y-112102573D01*
X126309438Y-114973426D01*
X127523875Y-115675716D01*
X127725514Y-115792062D01*
X127914241Y-115900445D01*
X128088509Y-115999998D01*
X128246774Y-116089857D01*
X128387490Y-116169155D01*
X128509112Y-116237028D01*
X128610093Y-116292609D01*
X128688888Y-116335034D01*
X128743952Y-116363436D01*
X128773739Y-116376951D01*
X128778000Y-116378005D01*
X128798219Y-116370115D01*
X128844275Y-116347023D01*
X128914625Y-116309594D01*
X129007722Y-116258695D01*
X129122021Y-116195189D01*
X129255976Y-116119943D01*
X129408043Y-116033822D01*
X129576674Y-115937691D01*
X129760325Y-115832417D01*
X129957450Y-115718865D01*
X130032125Y-115675716D01*
X131246563Y-114973426D01*
X131246563Y-113551928D01*
X131056176Y-113551928D01*
X131050950Y-113716922D01*
X131036766Y-113870602D01*
X131018100Y-113982500D01*
X130949073Y-114243601D01*
X130856824Y-114484389D01*
X130739808Y-114707751D01*
X130596482Y-114916572D01*
X130425300Y-115113738D01*
X130397304Y-115142306D01*
X130193513Y-115326042D01*
X129976175Y-115481069D01*
X129745078Y-115607492D01*
X129500007Y-115705414D01*
X129240749Y-115774941D01*
X129044227Y-115807597D01*
X128935826Y-115816088D01*
X128807034Y-115817982D01*
X128668413Y-115813743D01*
X128530527Y-115803836D01*
X128403940Y-115788722D01*
X128333077Y-115776398D01*
X128073762Y-115709671D01*
X127833131Y-115618043D01*
X127608544Y-115500093D01*
X127397359Y-115354404D01*
X127196933Y-115179555D01*
X127166454Y-115149546D01*
X126990591Y-114955262D01*
X126843164Y-114751501D01*
X126722297Y-114534780D01*
X126626113Y-114301614D01*
X126552736Y-114048520D01*
X126537901Y-113982500D01*
X126516250Y-113846226D01*
X126503558Y-113689935D01*
X126499825Y-113524071D01*
X126505051Y-113359077D01*
X126519235Y-113205397D01*
X126537901Y-113093500D01*
X126605930Y-112834944D01*
X126696303Y-112597178D01*
X126810896Y-112376717D01*
X126951584Y-112170077D01*
X127120245Y-111973775D01*
X127166454Y-111926453D01*
X127360738Y-111750590D01*
X127564499Y-111603163D01*
X127781220Y-111482296D01*
X128014386Y-111386112D01*
X128267480Y-111312735D01*
X128333500Y-111297900D01*
X128469774Y-111276249D01*
X128626065Y-111263557D01*
X128791929Y-111259824D01*
X128956923Y-111265050D01*
X129110603Y-111279234D01*
X129222500Y-111297900D01*
X129481056Y-111365929D01*
X129718822Y-111456302D01*
X129939283Y-111570895D01*
X130145923Y-111711583D01*
X130342225Y-111880244D01*
X130389547Y-111926453D01*
X130565410Y-112120737D01*
X130712837Y-112324498D01*
X130833704Y-112541219D01*
X130929888Y-112774385D01*
X131003265Y-113027479D01*
X131018100Y-113093500D01*
X131039751Y-113229773D01*
X131052443Y-113386064D01*
X131056176Y-113551928D01*
X131246563Y-113551928D01*
X131246563Y-112102573D01*
X130032125Y-111400283D01*
X129830487Y-111283937D01*
X129641760Y-111175554D01*
X129467492Y-111076001D01*
X129309227Y-110986142D01*
X129168511Y-110906844D01*
X129046889Y-110838971D01*
X128945908Y-110783390D01*
X128867113Y-110740965D01*
X128812049Y-110712563D01*
X128782262Y-110699048D01*
X128778000Y-110697994D01*
X128757782Y-110705884D01*
G36*
X129072989Y-112128053D02*
X129040132Y-112139323D01*
X129017246Y-112163423D01*
X129002345Y-112204597D01*
X128993440Y-112267091D01*
X128988545Y-112355148D01*
X128987114Y-112404552D01*
X128981916Y-112617249D01*
X128776771Y-112617250D01*
X128571625Y-112617250D01*
X128571625Y-112410153D01*
X128571332Y-112325199D01*
X128569809Y-112265906D01*
X128566093Y-112226185D01*
X128559219Y-112199948D01*
X128548223Y-112181106D01*
X128532660Y-112164090D01*
X128481269Y-112133297D01*
X128419146Y-112125557D01*
X128357860Y-112141321D01*
X128333500Y-112156308D01*
X128317539Y-112169956D01*
X128306370Y-112185973D01*
X128298946Y-112210066D01*
X128294217Y-112247942D01*
X128291136Y-112305309D01*
X128288653Y-112387875D01*
X128288276Y-112402480D01*
X128282738Y-112618175D01*
X128081901Y-112613743D01*
X127881063Y-112609312D01*
X127876639Y-112399762D01*
X127874598Y-112314540D01*
X127871962Y-112255207D01*
X127867625Y-112215905D01*
X127860478Y-112190780D01*
X127849413Y-112173973D01*
X127833323Y-112159628D01*
X127830842Y-112157669D01*
X127775583Y-112130561D01*
X127715015Y-112125961D01*
X127660369Y-112143655D01*
X127638268Y-112161334D01*
X127624096Y-112179257D01*
X127614237Y-112201617D01*
X127607730Y-112234467D01*
X127603612Y-112283860D01*
X127600920Y-112355850D01*
X127599782Y-112403428D01*
X127595313Y-112609312D01*
X127377836Y-112613724D01*
X127290810Y-112615707D01*
X127229813Y-112618218D01*
X127189131Y-112622305D01*
X127163046Y-112629014D01*
X127145842Y-112639392D01*
X127131805Y-112654487D01*
X127127804Y-112659521D01*
X127120665Y-112669351D01*
X127114654Y-112680932D01*
X127109674Y-112696903D01*
X127105628Y-112719902D01*
X127102419Y-112752567D01*
X127099950Y-112797538D01*
X127098124Y-112857451D01*
X127096845Y-112934947D01*
X127096015Y-113032662D01*
X127095538Y-113153237D01*
X127095316Y-113299308D01*
X127095253Y-113473515D01*
X127095251Y-113545617D01*
X127095272Y-113730784D01*
X127095403Y-113886805D01*
X127095743Y-114016284D01*
X127096390Y-114121824D01*
X127097444Y-114206029D01*
X127099005Y-114271503D01*
X127101171Y-114320850D01*
X127104042Y-114356673D01*
X127107717Y-114381577D01*
X127112296Y-114398165D01*
X127117876Y-114409042D01*
X127124558Y-114416810D01*
X127128595Y-114420570D01*
X127146749Y-114433211D01*
X127172650Y-114442390D01*
X127211946Y-114448972D01*
X127270283Y-114453818D01*
X127353309Y-114457790D01*
X127378627Y-114458750D01*
X127595313Y-114466687D01*
X127599737Y-114676237D01*
X127601778Y-114761459D01*
X127604414Y-114820792D01*
X127608751Y-114860094D01*
X127615898Y-114885219D01*
X127626963Y-114902026D01*
X127643053Y-114916371D01*
X127645534Y-114918330D01*
X127698463Y-114944507D01*
X127757227Y-114950487D01*
X127810196Y-114936322D01*
X127834946Y-114917532D01*
X127847833Y-114898913D01*
X127857143Y-114872238D01*
X127863786Y-114831736D01*
X127868672Y-114771636D01*
X127872712Y-114686166D01*
X127873125Y-114675438D01*
X127881063Y-114466687D01*
X128285875Y-114457801D01*
X128285875Y-114653180D01*
X128286729Y-114740981D01*
X128289749Y-114803102D01*
X128295628Y-114845582D01*
X128305056Y-114874458D01*
X128312737Y-114887811D01*
X128342518Y-114925602D01*
X128372793Y-114944221D01*
X128416738Y-114950264D01*
X128438196Y-114950631D01*
X128483012Y-114947946D01*
X128515869Y-114936676D01*
X128538755Y-114912576D01*
X128553656Y-114871402D01*
X128562561Y-114808908D01*
X128567456Y-114720851D01*
X128568887Y-114671447D01*
X128574085Y-114458750D01*
X128984375Y-114458750D01*
X128984375Y-114665846D01*
X128984669Y-114750800D01*
X128986192Y-114810093D01*
X128989908Y-114849814D01*
X128996782Y-114876051D01*
X129007778Y-114894893D01*
X129023341Y-114911909D01*
X129074732Y-114942702D01*
X129136855Y-114950442D01*
X129198141Y-114934678D01*
X129222500Y-114919691D01*
X129238462Y-114906043D01*
X129249631Y-114890026D01*
X129257055Y-114865933D01*
X129261784Y-114828057D01*
X129264865Y-114770690D01*
X129267348Y-114688124D01*
X129267725Y-114673519D01*
X129273263Y-114457824D01*
X129474100Y-114462256D01*
X129674938Y-114466687D01*
X129679362Y-114676237D01*
X129681403Y-114761459D01*
X129684039Y-114820792D01*
X129688376Y-114860094D01*
X129695523Y-114885219D01*
X129706588Y-114902026D01*
X129722678Y-114916371D01*
X129725159Y-114918330D01*
X129780418Y-114945438D01*
X129840986Y-114950038D01*
X129895632Y-114932344D01*
X129917733Y-114914665D01*
X129931905Y-114896742D01*
X129941764Y-114874382D01*
X129948271Y-114841532D01*
X129952389Y-114792139D01*
X129955081Y-114720149D01*
X129956219Y-114672571D01*
X129960688Y-114466687D01*
X130178165Y-114462275D01*
X130265191Y-114460292D01*
X130326188Y-114457781D01*
X130366870Y-114453694D01*
X130392955Y-114446985D01*
X130410159Y-114436607D01*
X130424196Y-114421512D01*
X130428197Y-114416478D01*
X130435336Y-114406648D01*
X130441347Y-114395067D01*
X130446327Y-114379096D01*
X130450373Y-114356097D01*
X130453582Y-114323432D01*
X130456051Y-114278461D01*
X130457877Y-114218548D01*
X130459156Y-114141052D01*
X130459986Y-114043337D01*
X130460463Y-113922762D01*
X130460685Y-113776691D01*
X130460748Y-113602484D01*
X130460750Y-113530382D01*
X130460729Y-113345215D01*
X130460598Y-113189194D01*
X130460258Y-113059715D01*
X130459611Y-112954175D01*
X130458557Y-112869970D01*
X130458210Y-112855375D01*
X130222625Y-112855375D01*
X130222625Y-114220625D01*
X127333375Y-114220625D01*
X127333375Y-112855375D01*
X130222625Y-112855375D01*
X130458210Y-112855375D01*
X130456996Y-112804496D01*
X130454830Y-112755149D01*
X130451959Y-112719326D01*
X130448284Y-112694422D01*
X130443705Y-112677834D01*
X130438125Y-112666957D01*
X130431443Y-112659189D01*
X130427406Y-112655429D01*
X130409252Y-112642788D01*
X130383351Y-112633609D01*
X130344055Y-112627027D01*
X130285718Y-112622181D01*
X130202692Y-112618209D01*
X130177374Y-112617250D01*
X129960688Y-112609312D01*
X129956264Y-112399762D01*
X129954223Y-112314540D01*
X129951587Y-112255207D01*
X129947250Y-112215905D01*
X129940103Y-112190780D01*
X129929038Y-112173973D01*
X129912948Y-112159628D01*
X129910467Y-112157669D01*
X129857538Y-112131492D01*
X129798774Y-112125512D01*
X129745805Y-112139677D01*
X129721055Y-112158467D01*
X129708168Y-112177086D01*
X129698858Y-112203761D01*
X129692215Y-112244263D01*
X129687329Y-112304363D01*
X129683289Y-112389833D01*
X129682875Y-112400561D01*
X129674938Y-112609312D01*
X129472532Y-112613755D01*
X129270125Y-112618198D01*
X129270125Y-112422819D01*
X129269272Y-112335018D01*
X129266252Y-112272897D01*
X129260373Y-112230417D01*
X129250945Y-112201541D01*
X129243264Y-112188188D01*
X129213483Y-112150397D01*
X129183208Y-112131778D01*
X129139263Y-112125735D01*
X129117805Y-112125368D01*
X129072989Y-112128053D01*
X129072989Y-112128053D01*
G37*
X129072989Y-112128053D02*
X129040132Y-112139323D01*
X129017246Y-112163423D01*
X129002345Y-112204597D01*
X128993440Y-112267091D01*
X128988545Y-112355148D01*
X128987114Y-112404552D01*
X128981916Y-112617249D01*
X128776771Y-112617250D01*
X128571625Y-112617250D01*
X128571625Y-112410153D01*
X128571332Y-112325199D01*
X128569809Y-112265906D01*
X128566093Y-112226185D01*
X128559219Y-112199948D01*
X128548223Y-112181106D01*
X128532660Y-112164090D01*
X128481269Y-112133297D01*
X128419146Y-112125557D01*
X128357860Y-112141321D01*
X128333500Y-112156308D01*
X128317539Y-112169956D01*
X128306370Y-112185973D01*
X128298946Y-112210066D01*
X128294217Y-112247942D01*
X128291136Y-112305309D01*
X128288653Y-112387875D01*
X128288276Y-112402480D01*
X128282738Y-112618175D01*
X128081901Y-112613743D01*
X127881063Y-112609312D01*
X127876639Y-112399762D01*
X127874598Y-112314540D01*
X127871962Y-112255207D01*
X127867625Y-112215905D01*
X127860478Y-112190780D01*
X127849413Y-112173973D01*
X127833323Y-112159628D01*
X127830842Y-112157669D01*
X127775583Y-112130561D01*
X127715015Y-112125961D01*
X127660369Y-112143655D01*
X127638268Y-112161334D01*
X127624096Y-112179257D01*
X127614237Y-112201617D01*
X127607730Y-112234467D01*
X127603612Y-112283860D01*
X127600920Y-112355850D01*
X127599782Y-112403428D01*
X127595313Y-112609312D01*
X127377836Y-112613724D01*
X127290810Y-112615707D01*
X127229813Y-112618218D01*
X127189131Y-112622305D01*
X127163046Y-112629014D01*
X127145842Y-112639392D01*
X127131805Y-112654487D01*
X127127804Y-112659521D01*
X127120665Y-112669351D01*
X127114654Y-112680932D01*
X127109674Y-112696903D01*
X127105628Y-112719902D01*
X127102419Y-112752567D01*
X127099950Y-112797538D01*
X127098124Y-112857451D01*
X127096845Y-112934947D01*
X127096015Y-113032662D01*
X127095538Y-113153237D01*
X127095316Y-113299308D01*
X127095253Y-113473515D01*
X127095251Y-113545617D01*
X127095272Y-113730784D01*
X127095403Y-113886805D01*
X127095743Y-114016284D01*
X127096390Y-114121824D01*
X127097444Y-114206029D01*
X127099005Y-114271503D01*
X127101171Y-114320850D01*
X127104042Y-114356673D01*
X127107717Y-114381577D01*
X127112296Y-114398165D01*
X127117876Y-114409042D01*
X127124558Y-114416810D01*
X127128595Y-114420570D01*
X127146749Y-114433211D01*
X127172650Y-114442390D01*
X127211946Y-114448972D01*
X127270283Y-114453818D01*
X127353309Y-114457790D01*
X127378627Y-114458750D01*
X127595313Y-114466687D01*
X127599737Y-114676237D01*
X127601778Y-114761459D01*
X127604414Y-114820792D01*
X127608751Y-114860094D01*
X127615898Y-114885219D01*
X127626963Y-114902026D01*
X127643053Y-114916371D01*
X127645534Y-114918330D01*
X127698463Y-114944507D01*
X127757227Y-114950487D01*
X127810196Y-114936322D01*
X127834946Y-114917532D01*
X127847833Y-114898913D01*
X127857143Y-114872238D01*
X127863786Y-114831736D01*
X127868672Y-114771636D01*
X127872712Y-114686166D01*
X127873125Y-114675438D01*
X127881063Y-114466687D01*
X128285875Y-114457801D01*
X128285875Y-114653180D01*
X128286729Y-114740981D01*
X128289749Y-114803102D01*
X128295628Y-114845582D01*
X128305056Y-114874458D01*
X128312737Y-114887811D01*
X128342518Y-114925602D01*
X128372793Y-114944221D01*
X128416738Y-114950264D01*
X128438196Y-114950631D01*
X128483012Y-114947946D01*
X128515869Y-114936676D01*
X128538755Y-114912576D01*
X128553656Y-114871402D01*
X128562561Y-114808908D01*
X128567456Y-114720851D01*
X128568887Y-114671447D01*
X128574085Y-114458750D01*
X128984375Y-114458750D01*
X128984375Y-114665846D01*
X128984669Y-114750800D01*
X128986192Y-114810093D01*
X128989908Y-114849814D01*
X128996782Y-114876051D01*
X129007778Y-114894893D01*
X129023341Y-114911909D01*
X129074732Y-114942702D01*
X129136855Y-114950442D01*
X129198141Y-114934678D01*
X129222500Y-114919691D01*
X129238462Y-114906043D01*
X129249631Y-114890026D01*
X129257055Y-114865933D01*
X129261784Y-114828057D01*
X129264865Y-114770690D01*
X129267348Y-114688124D01*
X129267725Y-114673519D01*
X129273263Y-114457824D01*
X129474100Y-114462256D01*
X129674938Y-114466687D01*
X129679362Y-114676237D01*
X129681403Y-114761459D01*
X129684039Y-114820792D01*
X129688376Y-114860094D01*
X129695523Y-114885219D01*
X129706588Y-114902026D01*
X129722678Y-114916371D01*
X129725159Y-114918330D01*
X129780418Y-114945438D01*
X129840986Y-114950038D01*
X129895632Y-114932344D01*
X129917733Y-114914665D01*
X129931905Y-114896742D01*
X129941764Y-114874382D01*
X129948271Y-114841532D01*
X129952389Y-114792139D01*
X129955081Y-114720149D01*
X129956219Y-114672571D01*
X129960688Y-114466687D01*
X130178165Y-114462275D01*
X130265191Y-114460292D01*
X130326188Y-114457781D01*
X130366870Y-114453694D01*
X130392955Y-114446985D01*
X130410159Y-114436607D01*
X130424196Y-114421512D01*
X130428197Y-114416478D01*
X130435336Y-114406648D01*
X130441347Y-114395067D01*
X130446327Y-114379096D01*
X130450373Y-114356097D01*
X130453582Y-114323432D01*
X130456051Y-114278461D01*
X130457877Y-114218548D01*
X130459156Y-114141052D01*
X130459986Y-114043337D01*
X130460463Y-113922762D01*
X130460685Y-113776691D01*
X130460748Y-113602484D01*
X130460750Y-113530382D01*
X130460729Y-113345215D01*
X130460598Y-113189194D01*
X130460258Y-113059715D01*
X130459611Y-112954175D01*
X130458557Y-112869970D01*
X130458210Y-112855375D01*
X130222625Y-112855375D01*
X130222625Y-114220625D01*
X127333375Y-114220625D01*
X127333375Y-112855375D01*
X130222625Y-112855375D01*
X130458210Y-112855375D01*
X130456996Y-112804496D01*
X130454830Y-112755149D01*
X130451959Y-112719326D01*
X130448284Y-112694422D01*
X130443705Y-112677834D01*
X130438125Y-112666957D01*
X130431443Y-112659189D01*
X130427406Y-112655429D01*
X130409252Y-112642788D01*
X130383351Y-112633609D01*
X130344055Y-112627027D01*
X130285718Y-112622181D01*
X130202692Y-112618209D01*
X130177374Y-112617250D01*
X129960688Y-112609312D01*
X129956264Y-112399762D01*
X129954223Y-112314540D01*
X129951587Y-112255207D01*
X129947250Y-112215905D01*
X129940103Y-112190780D01*
X129929038Y-112173973D01*
X129912948Y-112159628D01*
X129910467Y-112157669D01*
X129857538Y-112131492D01*
X129798774Y-112125512D01*
X129745805Y-112139677D01*
X129721055Y-112158467D01*
X129708168Y-112177086D01*
X129698858Y-112203761D01*
X129692215Y-112244263D01*
X129687329Y-112304363D01*
X129683289Y-112389833D01*
X129682875Y-112400561D01*
X129674938Y-112609312D01*
X129472532Y-112613755D01*
X129270125Y-112618198D01*
X129270125Y-112422819D01*
X129269272Y-112335018D01*
X129266252Y-112272897D01*
X129260373Y-112230417D01*
X129250945Y-112201541D01*
X129243264Y-112188188D01*
X129213483Y-112150397D01*
X129183208Y-112131778D01*
X129139263Y-112125735D01*
X129117805Y-112125368D01*
X129072989Y-112128053D01*
G36*
X129768429Y-113299875D02*
X129619375Y-113299875D01*
X129619375Y-113490375D01*
X129704990Y-113490375D01*
X129760219Y-113493281D01*
X129790423Y-113503105D01*
X129800240Y-113515485D01*
X129803695Y-113539793D01*
X129806602Y-113589404D01*
X129808715Y-113657873D01*
X129809790Y-113738756D01*
X129809875Y-113769485D01*
X129809875Y-113998375D01*
X130002226Y-113998375D01*
X129997332Y-113679442D01*
X129995434Y-113560200D01*
X129992364Y-113468950D01*
X129985866Y-113401952D01*
X129973685Y-113355466D01*
X129953566Y-113325753D01*
X129923254Y-113309073D01*
X129880493Y-113301687D01*
X129823028Y-113299854D01*
X129768429Y-113299875D01*
X129768429Y-113299875D01*
G37*
X129768429Y-113299875D02*
X129619375Y-113299875D01*
X129619375Y-113490375D01*
X129704990Y-113490375D01*
X129760219Y-113493281D01*
X129790423Y-113503105D01*
X129800240Y-113515485D01*
X129803695Y-113539793D01*
X129806602Y-113589404D01*
X129808715Y-113657873D01*
X129809790Y-113738756D01*
X129809875Y-113769485D01*
X129809875Y-113998375D01*
X130002226Y-113998375D01*
X129997332Y-113679442D01*
X129995434Y-113560200D01*
X129992364Y-113468950D01*
X129985866Y-113401952D01*
X129973685Y-113355466D01*
X129953566Y-113325753D01*
X129923254Y-113309073D01*
X129880493Y-113301687D01*
X129823028Y-113299854D01*
X129768429Y-113299875D01*
G36*
X129333625Y-113776125D02*
X129000250Y-113776125D01*
X129000250Y-113998375D01*
X129540000Y-113998375D01*
X129540000Y-113077625D01*
X129333625Y-113077625D01*
X129333625Y-113776125D01*
X129333625Y-113776125D01*
G37*
X129333625Y-113776125D02*
X129000250Y-113776125D01*
X129000250Y-113998375D01*
X129540000Y-113998375D01*
X129540000Y-113077625D01*
X129333625Y-113077625D01*
X129333625Y-113776125D01*
G36*
X128564291Y-113300472D02*
X128486272Y-113302123D01*
X128424314Y-113304611D01*
X128384491Y-113307721D01*
X128373899Y-113309736D01*
X128347735Y-113326083D01*
X128328402Y-113354884D01*
X128315037Y-113400165D01*
X128306772Y-113465952D01*
X128302744Y-113556269D01*
X128301985Y-113644367D01*
X128303687Y-113761638D01*
X128308540Y-113847532D01*
X128316560Y-113902266D01*
X128322242Y-113919000D01*
X128348540Y-113951072D01*
X128392542Y-113973852D01*
X128457981Y-113988313D01*
X128548590Y-113995430D01*
X128619250Y-113996582D01*
X128695422Y-113994774D01*
X128765593Y-113989905D01*
X128819952Y-113982812D01*
X128841500Y-113977635D01*
X128886935Y-113952861D01*
X128913306Y-113910642D01*
X128916011Y-113903125D01*
X128933117Y-113809265D01*
X128730375Y-113809265D01*
X128615282Y-113804601D01*
X128500188Y-113799937D01*
X128500188Y-113704687D01*
X128615282Y-113700023D01*
X128730375Y-113695359D01*
X128730375Y-113809265D01*
X128933117Y-113809265D01*
X128934717Y-113800488D01*
X128924172Y-113693022D01*
X128920048Y-113676931D01*
X128901391Y-113631875D01*
X128871452Y-113600675D01*
X128825454Y-113581486D01*
X128758618Y-113572465D01*
X128666169Y-113571766D01*
X128649016Y-113572292D01*
X128577428Y-113574379D01*
X128531758Y-113574020D01*
X128506207Y-113570211D01*
X128494976Y-113561946D01*
X128492266Y-113548223D01*
X128492235Y-113545143D01*
X128495802Y-113517053D01*
X128509574Y-113497441D01*
X128538203Y-113484849D01*
X128586343Y-113477819D01*
X128658647Y-113474892D01*
X128717675Y-113474500D01*
X128905000Y-113474500D01*
X128905000Y-113299875D01*
X128652299Y-113299875D01*
X128564291Y-113300472D01*
X128564291Y-113300472D01*
G37*
X128564291Y-113300472D02*
X128486272Y-113302123D01*
X128424314Y-113304611D01*
X128384491Y-113307721D01*
X128373899Y-113309736D01*
X128347735Y-113326083D01*
X128328402Y-113354884D01*
X128315037Y-113400165D01*
X128306772Y-113465952D01*
X128302744Y-113556269D01*
X128301985Y-113644367D01*
X128303687Y-113761638D01*
X128308540Y-113847532D01*
X128316560Y-113902266D01*
X128322242Y-113919000D01*
X128348540Y-113951072D01*
X128392542Y-113973852D01*
X128457981Y-113988313D01*
X128548590Y-113995430D01*
X128619250Y-113996582D01*
X128695422Y-113994774D01*
X128765593Y-113989905D01*
X128819952Y-113982812D01*
X128841500Y-113977635D01*
X128886935Y-113952861D01*
X128913306Y-113910642D01*
X128916011Y-113903125D01*
X128933117Y-113809265D01*
X128730375Y-113809265D01*
X128615282Y-113804601D01*
X128500188Y-113799937D01*
X128500188Y-113704687D01*
X128615282Y-113700023D01*
X128730375Y-113695359D01*
X128730375Y-113809265D01*
X128933117Y-113809265D01*
X128934717Y-113800488D01*
X128924172Y-113693022D01*
X128920048Y-113676931D01*
X128901391Y-113631875D01*
X128871452Y-113600675D01*
X128825454Y-113581486D01*
X128758618Y-113572465D01*
X128666169Y-113571766D01*
X128649016Y-113572292D01*
X128577428Y-113574379D01*
X128531758Y-113574020D01*
X128506207Y-113570211D01*
X128494976Y-113561946D01*
X128492266Y-113548223D01*
X128492235Y-113545143D01*
X128495802Y-113517053D01*
X128509574Y-113497441D01*
X128538203Y-113484849D01*
X128586343Y-113477819D01*
X128658647Y-113474892D01*
X128717675Y-113474500D01*
X128905000Y-113474500D01*
X128905000Y-113299875D01*
X128652299Y-113299875D01*
X128564291Y-113300472D01*
G36*
X127984250Y-113299875D02*
X127818861Y-113299875D01*
X127747245Y-113300786D01*
X127685844Y-113303244D01*
X127642679Y-113306835D01*
X127627774Y-113309736D01*
X127602114Y-113325523D01*
X127583028Y-113353129D01*
X127569677Y-113396567D01*
X127561220Y-113459854D01*
X127556817Y-113547002D01*
X127555625Y-113654515D01*
X127556430Y-113759888D01*
X127559956Y-113838130D01*
X127567872Y-113893840D01*
X127581846Y-113931621D01*
X127603545Y-113956072D01*
X127634638Y-113971794D01*
X127674688Y-113982904D01*
X127713907Y-113988335D01*
X127776932Y-113992919D01*
X127855822Y-113996243D01*
X127942637Y-113997894D01*
X127964407Y-113997996D01*
X128190625Y-113998375D01*
X128190625Y-113490375D01*
X127984250Y-113490375D01*
X127984250Y-113792000D01*
X127874824Y-113792000D01*
X127813050Y-113790274D01*
X127776470Y-113784194D01*
X127758666Y-113772408D01*
X127755761Y-113766889D01*
X127750673Y-113738358D01*
X127747181Y-113689575D01*
X127746125Y-113641187D01*
X127747120Y-113571318D01*
X127753486Y-113527252D01*
X127770297Y-113503042D01*
X127802628Y-113492744D01*
X127855552Y-113490410D01*
X127874824Y-113490375D01*
X127984250Y-113490375D01*
X128190625Y-113490375D01*
X128190625Y-113077625D01*
X127984250Y-113077625D01*
X127984250Y-113299875D01*
X127984250Y-113299875D01*
G37*
X127984250Y-113299875D02*
X127818861Y-113299875D01*
X127747245Y-113300786D01*
X127685844Y-113303244D01*
X127642679Y-113306835D01*
X127627774Y-113309736D01*
X127602114Y-113325523D01*
X127583028Y-113353129D01*
X127569677Y-113396567D01*
X127561220Y-113459854D01*
X127556817Y-113547002D01*
X127555625Y-113654515D01*
X127556430Y-113759888D01*
X127559956Y-113838130D01*
X127567872Y-113893840D01*
X127581846Y-113931621D01*
X127603545Y-113956072D01*
X127634638Y-113971794D01*
X127674688Y-113982904D01*
X127713907Y-113988335D01*
X127776932Y-113992919D01*
X127855822Y-113996243D01*
X127942637Y-113997894D01*
X127964407Y-113997996D01*
X128190625Y-113998375D01*
X128190625Y-113490375D01*
X127984250Y-113490375D01*
X127984250Y-113792000D01*
X127874824Y-113792000D01*
X127813050Y-113790274D01*
X127776470Y-113784194D01*
X127758666Y-113772408D01*
X127755761Y-113766889D01*
X127750673Y-113738358D01*
X127747181Y-113689575D01*
X127746125Y-113641187D01*
X127747120Y-113571318D01*
X127753486Y-113527252D01*
X127770297Y-113503042D01*
X127802628Y-113492744D01*
X127855552Y-113490410D01*
X127874824Y-113490375D01*
X127984250Y-113490375D01*
X128190625Y-113490375D01*
X128190625Y-113077625D01*
X127984250Y-113077625D01*
X127984250Y-113299875D01*
M02*
