G04 #@! TF.FileFunction,Copper,L2,Bot,Signal*
%FSLAX46Y46*%
G04 Gerber Fmt 4.6, Leading zero omitted, Abs format (unit mm)*
G04 Created by KiCad (PCBNEW 4.0.7) date 10/12/17 20:03:31*
%MOMM*%
%LPD*%
G01*
G04 APERTURE LIST*
%ADD10C,0.100000*%
%ADD11C,2.600000*%
%ADD12R,1.700000X1.700000*%
%ADD13O,1.700000X1.700000*%
%ADD14O,0.950000X1.250000*%
%ADD15O,1.550000X1.000000*%
%ADD16C,0.600000*%
%ADD17C,0.500000*%
%ADD18C,0.250000*%
%ADD19C,0.254000*%
G04 APERTURE END LIST*
D10*
D11*
X75565000Y-119380000D03*
X81765000Y-119380000D03*
X78665000Y-124380000D03*
D12*
X99060000Y-124460000D03*
D13*
X101600000Y-124460000D03*
X104140000Y-124460000D03*
X106680000Y-124460000D03*
X109220000Y-124460000D03*
X111760000Y-124460000D03*
X114300000Y-124460000D03*
X116840000Y-124460000D03*
D12*
X121920000Y-124460000D03*
D13*
X124460000Y-124460000D03*
X127000000Y-124460000D03*
X129540000Y-124460000D03*
X132080000Y-124460000D03*
X134620000Y-124460000D03*
D12*
X89916000Y-76200000D03*
D13*
X92456000Y-76200000D03*
X94996000Y-76200000D03*
X97536000Y-76200000D03*
X100076000Y-76200000D03*
X102616000Y-76200000D03*
X105156000Y-76200000D03*
X107696000Y-76200000D03*
X110236000Y-76200000D03*
X112776000Y-76200000D03*
D12*
X116840000Y-76200000D03*
D13*
X119380000Y-76200000D03*
X121920000Y-76200000D03*
X124460000Y-76200000D03*
X127000000Y-76200000D03*
X129540000Y-76200000D03*
X132080000Y-76200000D03*
X134620000Y-76200000D03*
D12*
X134620000Y-96520000D03*
D13*
X137160000Y-96520000D03*
X134620000Y-99060000D03*
X137160000Y-99060000D03*
X134620000Y-101600000D03*
X137160000Y-101600000D03*
D14*
X75725000Y-100965000D03*
X75725000Y-105965000D03*
D15*
X73025000Y-99965000D03*
X73025000Y-106965000D03*
D16*
X94869000Y-85217000D03*
X89281000Y-91948000D03*
X132461000Y-100076000D03*
X91428462Y-93282252D03*
X116600000Y-96500000D03*
X85598000Y-86360000D03*
X81153000Y-80645000D03*
X101473000Y-99695000D03*
X102362000Y-110236000D03*
X94107000Y-114935000D03*
X130175000Y-116459000D03*
X114000000Y-108800000D03*
X119300000Y-109900000D03*
X124254010Y-115297380D03*
X133096000Y-103759000D03*
X131953000Y-108458000D03*
X116078000Y-117094000D03*
X123190000Y-110998000D03*
X112141000Y-102870000D03*
X103981814Y-91313132D03*
X114921273Y-95759937D03*
X131064000Y-108966000D03*
X95359934Y-95377000D03*
X97663000Y-107823000D03*
X77470000Y-114300000D03*
X77470000Y-111125000D03*
X83820000Y-114300000D03*
X82550000Y-114300000D03*
X81280000Y-114300000D03*
X80010000Y-114300000D03*
X78740000Y-114300000D03*
X78740000Y-111125000D03*
X80010000Y-111125000D03*
X81280000Y-111125000D03*
X82550000Y-111125000D03*
X83820000Y-111125000D03*
X96139000Y-99568000D03*
X95983136Y-98783318D03*
X102616000Y-95758000D03*
X118335171Y-94417935D03*
X76356713Y-83130206D03*
X130777811Y-98838189D03*
X76322004Y-83929464D03*
X86360000Y-81534000D03*
X129286000Y-93980000D03*
X117254819Y-79332452D03*
X116724637Y-80499037D03*
X114060471Y-79548868D03*
X118020375Y-78900033D03*
X121985560Y-78450052D03*
X116318430Y-81364879D03*
X110437429Y-105021138D03*
X134084553Y-105056447D03*
X133859106Y-106232755D03*
X111184898Y-106232755D03*
D17*
X132461000Y-100500264D02*
X132461000Y-100076000D01*
X107439092Y-112622320D02*
X108608772Y-113792000D01*
X100278031Y-91948000D02*
X107439092Y-99109061D01*
X108608772Y-113792000D02*
X129032000Y-113792000D01*
X89281000Y-91948000D02*
X100278031Y-91948000D01*
X129032000Y-113792000D02*
X135059118Y-107764882D01*
X107439092Y-99109061D02*
X107439092Y-112622320D01*
X135059118Y-104325118D02*
X132461000Y-101727000D01*
X135059118Y-107764882D02*
X135059118Y-104325118D01*
X132461000Y-101727000D02*
X132461000Y-100500264D01*
X89281000Y-91948000D02*
X89281000Y-88319688D01*
X89281000Y-88319688D02*
X90834422Y-86766266D01*
X90834422Y-86766266D02*
X94869000Y-86766266D01*
X94869000Y-86766266D02*
X94869000Y-85217000D01*
X91128463Y-93582251D02*
X91428462Y-93282252D01*
X91004198Y-93282252D02*
X91428462Y-93282252D01*
X85598000Y-89400048D02*
X89480204Y-93282252D01*
X85598000Y-86360000D02*
X85598000Y-89400048D01*
X84745714Y-99965000D02*
X91128463Y-93582251D01*
X73025000Y-99965000D02*
X84745714Y-99965000D01*
X89480204Y-93282252D02*
X91004198Y-93282252D01*
X86995000Y-116205000D02*
X78740000Y-116205000D01*
X78740000Y-116205000D02*
X75565000Y-119380000D01*
X86995000Y-110490000D02*
X86995000Y-116205000D01*
X83470000Y-106965000D02*
X86995000Y-110490000D01*
X73025000Y-106965000D02*
X83470000Y-106965000D01*
X73035681Y-106975681D02*
X73025000Y-106965000D01*
X119300000Y-109900000D02*
X119300000Y-99200000D01*
X119300000Y-99200000D02*
X116600000Y-96500000D01*
X85471000Y-79375000D02*
X84201000Y-80645000D01*
X84201000Y-80645000D02*
X81153000Y-80645000D01*
X94234000Y-79375000D02*
X85471000Y-79375000D01*
X95563081Y-79375000D02*
X94234000Y-79375000D01*
X97536000Y-76200000D02*
X97536000Y-77402081D01*
X97536000Y-77402081D02*
X95563081Y-79375000D01*
X102362000Y-100584000D02*
X101473000Y-99695000D01*
X102362000Y-110236000D02*
X102362000Y-100584000D01*
X94107000Y-114935000D02*
X97663000Y-114935000D01*
X97663000Y-114935000D02*
X102362000Y-110236000D01*
X114300000Y-124460000D02*
X122301000Y-116459000D01*
X122301000Y-116459000D02*
X130175000Y-116459000D01*
X137160000Y-109474000D02*
X130175000Y-116459000D01*
X137160000Y-101600000D02*
X137160000Y-109474000D01*
X119300000Y-109900000D02*
X115100000Y-109900000D01*
X115100000Y-109900000D02*
X114000000Y-108800000D01*
X111760000Y-124460000D02*
X109709999Y-126510001D01*
X80795001Y-126510001D02*
X79964999Y-125679999D01*
X109709999Y-126510001D02*
X80795001Y-126510001D01*
X79964999Y-125679999D02*
X78665000Y-124380000D01*
X114300000Y-124460000D02*
X111760000Y-124460000D01*
X73025000Y-99965000D02*
X73025000Y-100965000D01*
X73025000Y-100965000D02*
X73025000Y-106965000D01*
X75725000Y-100965000D02*
X74025000Y-100965000D01*
X74025000Y-100965000D02*
X73025000Y-99965000D01*
X73025000Y-106965000D02*
X74725000Y-106965000D01*
X74725000Y-106965000D02*
X75725000Y-105965000D01*
X75565000Y-119380000D02*
X78665000Y-122480000D01*
X78665000Y-122480000D02*
X78665000Y-124380000D01*
X131953000Y-108458000D02*
X133109096Y-107301904D01*
X133109096Y-107301904D02*
X133109096Y-103772096D01*
X133109096Y-103772096D02*
X133096000Y-103759000D01*
X117874620Y-115297380D02*
X123829746Y-115297380D01*
X116078000Y-117094000D02*
X117874620Y-115297380D01*
X123829746Y-115297380D02*
X124254010Y-115297380D01*
D18*
X112141000Y-102870000D02*
X112141000Y-108222753D01*
X112141000Y-108222753D02*
X115531436Y-111613189D01*
X115531436Y-111613189D02*
X122574811Y-111613189D01*
X122574811Y-111613189D02*
X123190000Y-110998000D01*
D17*
X131064000Y-108966000D02*
X131064000Y-100185053D01*
X131064000Y-100185053D02*
X126628945Y-95749998D01*
X115345537Y-95759937D02*
X114921273Y-95759937D01*
X126628945Y-95749998D02*
X115355476Y-95749998D01*
X115355476Y-95749998D02*
X115345537Y-95759937D01*
X114921273Y-95759937D02*
X114921273Y-95743702D01*
X114921273Y-95743702D02*
X110490703Y-91313132D01*
X110490703Y-91313132D02*
X103981814Y-91313132D01*
D18*
X95059935Y-105219935D02*
X95059935Y-95676999D01*
X97663000Y-107823000D02*
X95059935Y-105219935D01*
X95059935Y-95676999D02*
X95359934Y-95377000D01*
D17*
X105110702Y-122555000D02*
X106119072Y-121546630D01*
X96563264Y-99568000D02*
X96139000Y-99568000D01*
X106119072Y-121546630D02*
X106119072Y-100637594D01*
X106119072Y-100637594D02*
X102087654Y-96606176D01*
X101600000Y-124460000D02*
X103505000Y-122555000D01*
X103505000Y-122555000D02*
X105110702Y-122555000D01*
X102087654Y-96606176D02*
X99621224Y-96606176D01*
X99621224Y-96606176D02*
X96659400Y-99568000D01*
X96659400Y-99568000D02*
X96563264Y-99568000D01*
X77470000Y-114300000D02*
X78740000Y-114300000D01*
X78740000Y-111125000D02*
X77470000Y-111125000D01*
X82550000Y-114300000D02*
X83820000Y-114300000D01*
X80010000Y-114300000D02*
X81280000Y-114300000D01*
X81280000Y-111125000D02*
X80010000Y-111125000D01*
X83820000Y-111125000D02*
X82550000Y-111125000D01*
X106779082Y-99921082D02*
X102915999Y-96057999D01*
X106680000Y-123257919D02*
X106779082Y-123158837D01*
X106680000Y-124460000D02*
X106680000Y-123257919D01*
X106779082Y-123158837D02*
X106779082Y-99921082D01*
X102915999Y-96057999D02*
X102616000Y-95758000D01*
X96283135Y-98483319D02*
X95983136Y-98783318D01*
X99008454Y-95758000D02*
X96283135Y-98483319D01*
X102616000Y-95758000D02*
X99008454Y-95758000D01*
D18*
X117910907Y-94417935D02*
X118335171Y-94417935D01*
X115701606Y-94417935D02*
X117910907Y-94417935D01*
X104413877Y-83130206D02*
X115701606Y-94417935D01*
X76356713Y-83130206D02*
X104413877Y-83130206D01*
X126982567Y-95042945D02*
X130477812Y-98538190D01*
X130477812Y-98538190D02*
X130777811Y-98838189D01*
X104576725Y-83929464D02*
X115690206Y-95042945D01*
X76322004Y-83929464D02*
X104576725Y-83929464D01*
X115690206Y-95042945D02*
X126982567Y-95042945D01*
X128861736Y-93980000D02*
X129286000Y-93980000D01*
X104237781Y-82317700D02*
X115713015Y-93792934D01*
X86360000Y-81534000D02*
X87143700Y-82317700D01*
X118822238Y-93980000D02*
X128861736Y-93980000D01*
X118635172Y-93792934D02*
X118822238Y-93980000D01*
X115713015Y-93792934D02*
X118635172Y-93792934D01*
X87143700Y-82317700D02*
X104237781Y-82317700D01*
X129149002Y-114563998D02*
X135634129Y-108078871D01*
X107402638Y-115920757D02*
X108759397Y-114563998D01*
X107402638Y-123443636D02*
X107402638Y-115920757D01*
X107855001Y-123895999D02*
X107402638Y-123443636D01*
X105315001Y-125635001D02*
X107244001Y-125635001D01*
X135634129Y-108078871D02*
X135634129Y-102614129D01*
X135634129Y-102614129D02*
X135469999Y-102449999D01*
X104140000Y-124460000D02*
X105315001Y-125635001D01*
X107855001Y-125024001D02*
X107855001Y-123895999D01*
X107244001Y-125635001D02*
X107855001Y-125024001D01*
X135469999Y-102449999D02*
X134620000Y-101600000D01*
X108759397Y-114563998D02*
X129149002Y-114563998D01*
X133770001Y-100750001D02*
X134620000Y-101600000D01*
X133770001Y-100459999D02*
X133770001Y-100750001D01*
X129286000Y-93980000D02*
X129286000Y-95975998D01*
X129286000Y-95975998D02*
X133770001Y-100459999D01*
X113760470Y-78923867D02*
X116421970Y-78923867D01*
X113749946Y-78934391D02*
X113760470Y-78923867D01*
X106151389Y-78934391D02*
X113749946Y-78934391D01*
X102443848Y-74288846D02*
X103877367Y-75722365D01*
X103877367Y-75722365D02*
X103877367Y-76660369D01*
X89916000Y-76200000D02*
X89916000Y-75100000D01*
X89916000Y-75100000D02*
X90727154Y-74288846D01*
X90727154Y-74288846D02*
X102443848Y-74288846D01*
X116830555Y-79332452D02*
X117254819Y-79332452D01*
X116421970Y-78923867D02*
X116830555Y-79332452D01*
X103877367Y-76660369D02*
X106151389Y-78934391D01*
X117447402Y-79525035D02*
X117254819Y-79332452D01*
X118770358Y-79075054D02*
X118320377Y-79525035D01*
X127000000Y-76200000D02*
X124124946Y-79075054D01*
X124124946Y-79075054D02*
X118770358Y-79075054D01*
X118320377Y-79525035D02*
X117447402Y-79525035D01*
X92456000Y-76200000D02*
X93853000Y-74803000D01*
X93853000Y-74803000D02*
X100418002Y-74803000D01*
X100418002Y-74803000D02*
X101362625Y-75747623D01*
X101362625Y-76856255D02*
X102135424Y-77629054D01*
X101362625Y-75747623D02*
X101362625Y-76856255D01*
X115451589Y-80499037D02*
X116724637Y-80499037D01*
X102135424Y-77629054D02*
X103010286Y-77629054D01*
X103010286Y-77629054D02*
X105555110Y-80173878D01*
X105555110Y-80173878D02*
X115126430Y-80173878D01*
X115126430Y-80173878D02*
X115451589Y-80499037D01*
X118506777Y-79975045D02*
X117248628Y-79975046D01*
X126461409Y-77375001D02*
X124311346Y-79525064D01*
X128364999Y-77375001D02*
X126461409Y-77375001D01*
X117024636Y-80199038D02*
X116724637Y-80499037D01*
X129540000Y-76200000D02*
X128364999Y-77375001D01*
X118956758Y-79525064D02*
X118506777Y-79975045D01*
X117248628Y-79975046D02*
X117024636Y-80199038D01*
X124311346Y-79525064D02*
X118956758Y-79525064D01*
X102616000Y-76200000D02*
X105964868Y-79548868D01*
X113636207Y-79548868D02*
X114060471Y-79548868D01*
X105964868Y-79548868D02*
X113636207Y-79548868D01*
X105156000Y-76200000D02*
X107394596Y-78438596D01*
X107394596Y-78438596D02*
X116573110Y-78438596D01*
X116573110Y-78438596D02*
X116767632Y-78633118D01*
X116767632Y-78633118D02*
X117753460Y-78633118D01*
X117753460Y-78633118D02*
X118020375Y-78900033D01*
X116840000Y-76200000D02*
X116840000Y-77410760D01*
X121685561Y-78150053D02*
X121985560Y-78450052D01*
X116840000Y-77410760D02*
X117579293Y-78150053D01*
X117579293Y-78150053D02*
X121685561Y-78150053D01*
X117682518Y-80425055D02*
X116742694Y-81364879D01*
X118693176Y-80425055D02*
X117682518Y-80425055D01*
X119143157Y-79975074D02*
X118693176Y-80425055D01*
X132940059Y-77825012D02*
X126647808Y-77825012D01*
X134565071Y-76200000D02*
X132940059Y-77825012D01*
X116742694Y-81364879D02*
X116318430Y-81364879D01*
X134620000Y-76200000D02*
X134565071Y-76200000D01*
X122658361Y-79975074D02*
X121312756Y-79975072D01*
X121312754Y-79975074D02*
X119143157Y-79975074D01*
X126647808Y-77825012D02*
X124497746Y-79975074D01*
X121312756Y-79975072D02*
X121312754Y-79975074D01*
X124497746Y-79975074D02*
X122658361Y-79975074D01*
X134384552Y-105356446D02*
X134084553Y-105056447D01*
X110437429Y-105021138D02*
X110437429Y-107846720D01*
X110437429Y-107846720D02*
X115116163Y-112525454D01*
X134484108Y-107502717D02*
X134484108Y-105456002D01*
X134484108Y-105456002D02*
X134384552Y-105356446D01*
X129461371Y-112525454D02*
X134484108Y-107502717D01*
X115116163Y-112525454D02*
X129461371Y-112525454D01*
X111184898Y-106232755D02*
X111184898Y-107957778D01*
X133859106Y-106657019D02*
X133859106Y-106232755D01*
X133859106Y-107491308D02*
X133859106Y-106657019D01*
X129274971Y-112075443D02*
X133859106Y-107491308D01*
X115302563Y-112075443D02*
X129274971Y-112075443D01*
X111184898Y-107957778D02*
X115302563Y-112075443D01*
D19*
G36*
X84466364Y-74932321D02*
X84125389Y-75753481D01*
X84124613Y-76642619D01*
X84464155Y-77464372D01*
X85092321Y-78093636D01*
X85913481Y-78434611D01*
X86802619Y-78435387D01*
X87624372Y-78095845D01*
X88253636Y-77467679D01*
X88421214Y-77064106D01*
X88462838Y-77285317D01*
X88601910Y-77501441D01*
X88814110Y-77646431D01*
X89066000Y-77697440D01*
X90766000Y-77697440D01*
X91001317Y-77653162D01*
X91217441Y-77514090D01*
X91362431Y-77301890D01*
X91376086Y-77234459D01*
X91405946Y-77279147D01*
X91887715Y-77601054D01*
X92456000Y-77714093D01*
X93024285Y-77601054D01*
X93506054Y-77279147D01*
X93726000Y-76949974D01*
X93945946Y-77279147D01*
X94427715Y-77601054D01*
X94996000Y-77714093D01*
X95564285Y-77601054D01*
X96046054Y-77279147D01*
X96273702Y-76938447D01*
X96340817Y-77081358D01*
X96769076Y-77471645D01*
X97179110Y-77641476D01*
X97409000Y-77520155D01*
X97409000Y-77107771D01*
X97566000Y-77139000D01*
X97663000Y-77119706D01*
X97663000Y-77520155D01*
X97892890Y-77641476D01*
X98302924Y-77471645D01*
X98731183Y-77081358D01*
X98798298Y-76938447D01*
X99025946Y-77279147D01*
X99507715Y-77601054D01*
X100076000Y-77714093D01*
X100644285Y-77601054D01*
X100877076Y-77445508D01*
X101598023Y-78166455D01*
X101844585Y-78331202D01*
X102135424Y-78389054D01*
X102695484Y-78389054D01*
X105017709Y-80711279D01*
X105264271Y-80876026D01*
X105555110Y-80933878D01*
X114811628Y-80933878D01*
X114914188Y-81036438D01*
X115160749Y-81201185D01*
X115383533Y-81245500D01*
X115383268Y-81550046D01*
X115525313Y-81893822D01*
X115788103Y-82157071D01*
X116131631Y-82299717D01*
X116503597Y-82300041D01*
X116847373Y-82157996D01*
X116914852Y-82090634D01*
X117033533Y-82067027D01*
X117280095Y-81902280D01*
X117997320Y-81185055D01*
X118693176Y-81185055D01*
X118984015Y-81127203D01*
X119230577Y-80962456D01*
X119457959Y-80735074D01*
X121312754Y-80735074D01*
X121312764Y-80735072D01*
X122658360Y-80735074D01*
X124497746Y-80735074D01*
X124788585Y-80677222D01*
X125035147Y-80512475D01*
X126962610Y-78585012D01*
X132940059Y-78585012D01*
X133230898Y-78527160D01*
X133477460Y-78362413D01*
X134207776Y-77632097D01*
X134620000Y-77714093D01*
X135188285Y-77601054D01*
X135670054Y-77279147D01*
X135991961Y-76797378D01*
X136105000Y-76229093D01*
X136105000Y-76170907D01*
X135991961Y-75602622D01*
X135670054Y-75120853D01*
X135188285Y-74798946D01*
X134620000Y-74685907D01*
X134051715Y-74798946D01*
X133569946Y-75120853D01*
X133350000Y-75450026D01*
X133130054Y-75120853D01*
X132648285Y-74798946D01*
X132080000Y-74685907D01*
X131511715Y-74798946D01*
X131029946Y-75120853D01*
X130810000Y-75450026D01*
X130590054Y-75120853D01*
X130108285Y-74798946D01*
X129540000Y-74685907D01*
X128971715Y-74798946D01*
X128489946Y-75120853D01*
X128270000Y-75450026D01*
X128050054Y-75120853D01*
X127568285Y-74798946D01*
X127000000Y-74685907D01*
X126431715Y-74798946D01*
X125949946Y-75120853D01*
X125730000Y-75450026D01*
X125510054Y-75120853D01*
X125028285Y-74798946D01*
X124460000Y-74685907D01*
X123891715Y-74798946D01*
X123409946Y-75120853D01*
X123190000Y-75450026D01*
X122970054Y-75120853D01*
X122488285Y-74798946D01*
X121920000Y-74685907D01*
X121351715Y-74798946D01*
X120869946Y-75120853D01*
X120650000Y-75450026D01*
X120430054Y-75120853D01*
X119948285Y-74798946D01*
X119380000Y-74685907D01*
X118811715Y-74798946D01*
X118329946Y-75120853D01*
X118302150Y-75162452D01*
X118293162Y-75114683D01*
X118154090Y-74898559D01*
X117941890Y-74753569D01*
X117690000Y-74702560D01*
X115990000Y-74702560D01*
X115754683Y-74746838D01*
X115538559Y-74885910D01*
X115393569Y-75098110D01*
X115342560Y-75350000D01*
X115342560Y-77050000D01*
X115386838Y-77285317D01*
X115525910Y-77501441D01*
X115738110Y-77646431D01*
X115896946Y-77678596D01*
X112954455Y-77678596D01*
X113344285Y-77601054D01*
X113826054Y-77279147D01*
X114147961Y-76797378D01*
X114261000Y-76229093D01*
X114261000Y-76170907D01*
X114147961Y-75602622D01*
X113826054Y-75120853D01*
X113344285Y-74798946D01*
X112776000Y-74685907D01*
X112207715Y-74798946D01*
X111725946Y-75120853D01*
X111506000Y-75450026D01*
X111286054Y-75120853D01*
X110804285Y-74798946D01*
X110236000Y-74685907D01*
X109667715Y-74798946D01*
X109185946Y-75120853D01*
X108966000Y-75450026D01*
X108746054Y-75120853D01*
X108264285Y-74798946D01*
X107696000Y-74685907D01*
X107127715Y-74798946D01*
X106645946Y-75120853D01*
X106426000Y-75450026D01*
X106206054Y-75120853D01*
X105724285Y-74798946D01*
X105156000Y-74685907D01*
X104587715Y-74798946D01*
X104252640Y-75022836D01*
X103536331Y-74306527D01*
X135341472Y-74306527D01*
X136505000Y-75470055D01*
X136505000Y-86614000D01*
X136530287Y-86741124D01*
X136554055Y-86868556D01*
X136556330Y-86872050D01*
X136557143Y-86876138D01*
X136629148Y-86983901D01*
X136699878Y-87092545D01*
X138985000Y-89432952D01*
X138985000Y-90104659D01*
X138427679Y-89546364D01*
X137606519Y-89205389D01*
X136717381Y-89204613D01*
X135895628Y-89544155D01*
X135266364Y-90172321D01*
X134925389Y-90993481D01*
X134924613Y-91882619D01*
X135264155Y-92704372D01*
X135892321Y-93333636D01*
X136713481Y-93674611D01*
X137602619Y-93675387D01*
X138424372Y-93335845D01*
X138985000Y-92776195D01*
X138985000Y-118044659D01*
X138427679Y-117486364D01*
X137606519Y-117145389D01*
X136717381Y-117144613D01*
X135895628Y-117484155D01*
X135266364Y-118112321D01*
X134925389Y-118933481D01*
X134924613Y-119822619D01*
X135264155Y-120644372D01*
X135892321Y-121273636D01*
X136713481Y-121614611D01*
X137602619Y-121615387D01*
X138424372Y-121275845D01*
X138985000Y-120716195D01*
X138985000Y-121641048D01*
X136699878Y-123981455D01*
X136629148Y-124090099D01*
X136557143Y-124197862D01*
X136556330Y-124201950D01*
X136554055Y-124205444D01*
X136530287Y-124332876D01*
X136505000Y-124460000D01*
X136505000Y-126315000D01*
X107567988Y-126315000D01*
X107781402Y-126172402D01*
X108316640Y-125637164D01*
X108651715Y-125861054D01*
X109220000Y-125974093D01*
X109788285Y-125861054D01*
X110270054Y-125539147D01*
X110497702Y-125198447D01*
X110564817Y-125341358D01*
X110993076Y-125731645D01*
X111403110Y-125901476D01*
X111633000Y-125780155D01*
X111633000Y-125373738D01*
X111760000Y-125399000D01*
X111887000Y-125373738D01*
X111887000Y-125780155D01*
X112116890Y-125901476D01*
X112526924Y-125731645D01*
X112955183Y-125341358D01*
X113030000Y-125182046D01*
X113104817Y-125341358D01*
X113533076Y-125731645D01*
X113943110Y-125901476D01*
X114173000Y-125780155D01*
X114173000Y-125373738D01*
X114300000Y-125399000D01*
X114427000Y-125373738D01*
X114427000Y-125780155D01*
X114656890Y-125901476D01*
X115066924Y-125731645D01*
X115495183Y-125341358D01*
X115562298Y-125198447D01*
X115789946Y-125539147D01*
X116271715Y-125861054D01*
X116840000Y-125974093D01*
X117408285Y-125861054D01*
X117890054Y-125539147D01*
X118211961Y-125057378D01*
X118325000Y-124489093D01*
X118325000Y-124430907D01*
X118211961Y-123862622D01*
X118043165Y-123610000D01*
X120422560Y-123610000D01*
X120422560Y-125310000D01*
X120466838Y-125545317D01*
X120605910Y-125761441D01*
X120818110Y-125906431D01*
X121070000Y-125957440D01*
X122770000Y-125957440D01*
X123005317Y-125913162D01*
X123221441Y-125774090D01*
X123366431Y-125561890D01*
X123380086Y-125494459D01*
X123409946Y-125539147D01*
X123891715Y-125861054D01*
X124460000Y-125974093D01*
X125028285Y-125861054D01*
X125510054Y-125539147D01*
X125730000Y-125209974D01*
X125949946Y-125539147D01*
X126431715Y-125861054D01*
X127000000Y-125974093D01*
X127568285Y-125861054D01*
X128050054Y-125539147D01*
X128270000Y-125209974D01*
X128489946Y-125539147D01*
X128971715Y-125861054D01*
X129540000Y-125974093D01*
X130108285Y-125861054D01*
X130590054Y-125539147D01*
X130810000Y-125209974D01*
X131029946Y-125539147D01*
X131511715Y-125861054D01*
X132080000Y-125974093D01*
X132648285Y-125861054D01*
X133130054Y-125539147D01*
X133350000Y-125209974D01*
X133569946Y-125539147D01*
X134051715Y-125861054D01*
X134620000Y-125974093D01*
X135188285Y-125861054D01*
X135670054Y-125539147D01*
X135991961Y-125057378D01*
X136105000Y-124489093D01*
X136105000Y-124430907D01*
X135991961Y-123862622D01*
X135670054Y-123380853D01*
X135188285Y-123058946D01*
X134620000Y-122945907D01*
X134051715Y-123058946D01*
X133569946Y-123380853D01*
X133350000Y-123710026D01*
X133130054Y-123380853D01*
X132648285Y-123058946D01*
X132080000Y-122945907D01*
X131511715Y-123058946D01*
X131029946Y-123380853D01*
X130810000Y-123710026D01*
X130590054Y-123380853D01*
X130108285Y-123058946D01*
X129540000Y-122945907D01*
X128971715Y-123058946D01*
X128489946Y-123380853D01*
X128270000Y-123710026D01*
X128050054Y-123380853D01*
X127568285Y-123058946D01*
X127000000Y-122945907D01*
X126431715Y-123058946D01*
X125949946Y-123380853D01*
X125730000Y-123710026D01*
X125510054Y-123380853D01*
X125028285Y-123058946D01*
X124460000Y-122945907D01*
X123891715Y-123058946D01*
X123409946Y-123380853D01*
X123382150Y-123422452D01*
X123373162Y-123374683D01*
X123234090Y-123158559D01*
X123021890Y-123013569D01*
X122770000Y-122962560D01*
X121070000Y-122962560D01*
X120834683Y-123006838D01*
X120618559Y-123145910D01*
X120473569Y-123358110D01*
X120422560Y-123610000D01*
X118043165Y-123610000D01*
X117890054Y-123380853D01*
X117408285Y-123058946D01*
X116840000Y-122945907D01*
X116271715Y-123058946D01*
X115789946Y-123380853D01*
X115562298Y-123721553D01*
X115495183Y-123578642D01*
X115066924Y-123188355D01*
X114656890Y-123018524D01*
X114427000Y-123139845D01*
X114427000Y-123546262D01*
X114300000Y-123521000D01*
X114173000Y-123546262D01*
X114173000Y-123139845D01*
X113943110Y-123018524D01*
X113533076Y-123188355D01*
X113104817Y-123578642D01*
X113030000Y-123737954D01*
X112955183Y-123578642D01*
X112526924Y-123188355D01*
X112116890Y-123018524D01*
X111887000Y-123139845D01*
X111887000Y-123546262D01*
X111760000Y-123521000D01*
X111633000Y-123546262D01*
X111633000Y-123139845D01*
X111403110Y-123018524D01*
X110993076Y-123188355D01*
X110564817Y-123578642D01*
X110497702Y-123721553D01*
X110270054Y-123380853D01*
X109788285Y-123058946D01*
X109220000Y-122945907D01*
X108651715Y-123058946D01*
X108316640Y-123282836D01*
X108162638Y-123128834D01*
X108162638Y-116235559D01*
X109074199Y-115323998D01*
X116596423Y-115323998D01*
X115669164Y-116251256D01*
X115549057Y-116300883D01*
X115285808Y-116563673D01*
X115143162Y-116907201D01*
X115142838Y-117279167D01*
X115284883Y-117622943D01*
X115547673Y-117886192D01*
X115891201Y-118028838D01*
X116263167Y-118029162D01*
X116606943Y-117887117D01*
X116870192Y-117624327D01*
X116920566Y-117503014D01*
X118241199Y-116182380D01*
X123947188Y-116182380D01*
X124067211Y-116232218D01*
X124439177Y-116232542D01*
X124782953Y-116090497D01*
X125046202Y-115827707D01*
X125188848Y-115484179D01*
X125188988Y-115323998D01*
X129149002Y-115323998D01*
X129439841Y-115266146D01*
X129686403Y-115101399D01*
X136171530Y-108616272D01*
X136336277Y-108369710D01*
X136394129Y-108078871D01*
X136394129Y-102849419D01*
X136803108Y-103041486D01*
X137033000Y-102920819D01*
X137033000Y-101727000D01*
X137287000Y-101727000D01*
X137287000Y-102920819D01*
X137516892Y-103041486D01*
X138041358Y-102795183D01*
X138431645Y-102366924D01*
X138601476Y-101956890D01*
X138480155Y-101727000D01*
X137287000Y-101727000D01*
X137033000Y-101727000D01*
X137013000Y-101727000D01*
X137013000Y-101473000D01*
X137033000Y-101473000D01*
X137033000Y-101453000D01*
X137287000Y-101453000D01*
X137287000Y-101473000D01*
X138480155Y-101473000D01*
X138601476Y-101243110D01*
X138431645Y-100833076D01*
X138041358Y-100404817D01*
X137898447Y-100337702D01*
X138239147Y-100110054D01*
X138561054Y-99628285D01*
X138674093Y-99060000D01*
X138561054Y-98491715D01*
X138239147Y-98009946D01*
X137909974Y-97790000D01*
X138239147Y-97570054D01*
X138561054Y-97088285D01*
X138674093Y-96520000D01*
X138561054Y-95951715D01*
X138239147Y-95469946D01*
X137757378Y-95148039D01*
X137189093Y-95035000D01*
X137130907Y-95035000D01*
X136562622Y-95148039D01*
X136080853Y-95469946D01*
X136080029Y-95471179D01*
X136073162Y-95434683D01*
X135934090Y-95218559D01*
X135721890Y-95073569D01*
X135470000Y-95022560D01*
X133770000Y-95022560D01*
X133534683Y-95066838D01*
X133318559Y-95205910D01*
X133173569Y-95418110D01*
X133122560Y-95670000D01*
X133122560Y-97370000D01*
X133166838Y-97605317D01*
X133305910Y-97821441D01*
X133518110Y-97966431D01*
X133585541Y-97980086D01*
X133540853Y-98009946D01*
X133218946Y-98491715D01*
X133162134Y-98777330D01*
X130046000Y-95661196D01*
X130046000Y-94542463D01*
X130078192Y-94510327D01*
X130220838Y-94166799D01*
X130221162Y-93794833D01*
X130079117Y-93451057D01*
X129816327Y-93187808D01*
X129472799Y-93045162D01*
X129100833Y-93044838D01*
X128757057Y-93186883D01*
X128723882Y-93220000D01*
X119119394Y-93220000D01*
X118926011Y-93090786D01*
X118635172Y-93032934D01*
X116027817Y-93032934D01*
X104775182Y-81780299D01*
X104528620Y-81615552D01*
X104237781Y-81557700D01*
X87458502Y-81557700D01*
X87295122Y-81394320D01*
X87295162Y-81348833D01*
X87153117Y-81005057D01*
X86890327Y-80741808D01*
X86546799Y-80599162D01*
X86174833Y-80598838D01*
X85831057Y-80740883D01*
X85567808Y-81003673D01*
X85425162Y-81347201D01*
X85424838Y-81719167D01*
X85566883Y-82062943D01*
X85829673Y-82326192D01*
X85935670Y-82370206D01*
X76919176Y-82370206D01*
X76887040Y-82338014D01*
X76543512Y-82195368D01*
X76171546Y-82195044D01*
X75827770Y-82337089D01*
X75564521Y-82599879D01*
X75421875Y-82943407D01*
X75421551Y-83315373D01*
X75492896Y-83488041D01*
X75387166Y-83742665D01*
X75386842Y-84114631D01*
X75528887Y-84458407D01*
X75791677Y-84721656D01*
X76135205Y-84864302D01*
X76507171Y-84864626D01*
X76850947Y-84722581D01*
X76884122Y-84689464D01*
X94075649Y-84689464D01*
X93934162Y-85030201D01*
X93933838Y-85402167D01*
X93984000Y-85523569D01*
X93984000Y-85881266D01*
X90834422Y-85881266D01*
X90495747Y-85948633D01*
X90208632Y-86140476D01*
X90208630Y-86140479D01*
X88655210Y-87693898D01*
X88463367Y-87981013D01*
X88463367Y-87981014D01*
X88395999Y-88319688D01*
X88396000Y-88319693D01*
X88396000Y-91641178D01*
X88346162Y-91761201D01*
X88345838Y-92133167D01*
X88487883Y-92476943D01*
X88750673Y-92740192D01*
X89094201Y-92882838D01*
X89466167Y-92883162D01*
X89587569Y-92833000D01*
X99911451Y-92833000D01*
X101951451Y-94873000D01*
X99008459Y-94873000D01*
X99008454Y-94872999D01*
X98669779Y-94940367D01*
X98382664Y-95132210D01*
X98382662Y-95132213D01*
X95819935Y-97694939D01*
X95819935Y-96198603D01*
X95888877Y-96170117D01*
X96152126Y-95907327D01*
X96294772Y-95563799D01*
X96295096Y-95191833D01*
X96153051Y-94848057D01*
X95890261Y-94584808D01*
X95546733Y-94442162D01*
X95174767Y-94441838D01*
X94830991Y-94583883D01*
X94567742Y-94846673D01*
X94425096Y-95190201D01*
X94425013Y-95285549D01*
X94357787Y-95386160D01*
X94299935Y-95676999D01*
X94299935Y-105219935D01*
X94357787Y-105510774D01*
X94522534Y-105757336D01*
X96727878Y-107962680D01*
X96727838Y-108008167D01*
X96869883Y-108351943D01*
X97132673Y-108615192D01*
X97476201Y-108757838D01*
X97848167Y-108758162D01*
X98191943Y-108616117D01*
X98455192Y-108353327D01*
X98597838Y-108009799D01*
X98598162Y-107637833D01*
X98456117Y-107294057D01*
X98193327Y-107030808D01*
X97849799Y-106888162D01*
X97802923Y-106888121D01*
X95819935Y-104905133D01*
X95819935Y-100447916D01*
X95952201Y-100502838D01*
X96324167Y-100503162D01*
X96445569Y-100453000D01*
X96659395Y-100453000D01*
X96659400Y-100453001D01*
X96941884Y-100396810D01*
X96998075Y-100385633D01*
X97285190Y-100193790D01*
X99987803Y-97491176D01*
X101721074Y-97491176D01*
X105234072Y-101004173D01*
X105234072Y-121180051D01*
X104744122Y-121670000D01*
X103505005Y-121670000D01*
X103505000Y-121669999D01*
X103222516Y-121726190D01*
X103166325Y-121737367D01*
X102879210Y-121929210D01*
X102879208Y-121929213D01*
X101818960Y-122989461D01*
X101600000Y-122945907D01*
X101031715Y-123058946D01*
X100549946Y-123380853D01*
X100522150Y-123422452D01*
X100513162Y-123374683D01*
X100374090Y-123158559D01*
X100161890Y-123013569D01*
X99910000Y-122962560D01*
X98210000Y-122962560D01*
X97974683Y-123006838D01*
X97758559Y-123145910D01*
X97613569Y-123358110D01*
X97562560Y-123610000D01*
X97562560Y-125310000D01*
X97606838Y-125545317D01*
X97745910Y-125761441D01*
X97958110Y-125906431D01*
X98210000Y-125957440D01*
X99910000Y-125957440D01*
X100145317Y-125913162D01*
X100361441Y-125774090D01*
X100506431Y-125561890D01*
X100520086Y-125494459D01*
X100549946Y-125539147D01*
X101031715Y-125861054D01*
X101600000Y-125974093D01*
X102168285Y-125861054D01*
X102650054Y-125539147D01*
X102870000Y-125209974D01*
X103089946Y-125539147D01*
X103571715Y-125861054D01*
X104140000Y-125974093D01*
X104506408Y-125901210D01*
X104777600Y-126172402D01*
X104991013Y-126315000D01*
X86395288Y-126315000D01*
X86983636Y-125727679D01*
X87324611Y-124906519D01*
X87325387Y-124017381D01*
X86985845Y-123195628D01*
X86357679Y-122566364D01*
X85536519Y-122225389D01*
X84647381Y-122224613D01*
X83825628Y-122564155D01*
X83196364Y-123192321D01*
X82855389Y-124013481D01*
X82854613Y-124902619D01*
X83194155Y-125724372D01*
X83783752Y-126315000D01*
X78689322Y-126315000D01*
X79098427Y-126304710D01*
X79719496Y-126047455D01*
X79854854Y-125749459D01*
X78665000Y-124559605D01*
X77475146Y-125749459D01*
X77610504Y-126047455D01*
X78305335Y-126315000D01*
X71805000Y-126315000D01*
X71805000Y-124043880D01*
X76720934Y-124043880D01*
X76740290Y-124813427D01*
X76997545Y-125434496D01*
X77295541Y-125569854D01*
X78485395Y-124380000D01*
X78844605Y-124380000D01*
X80034459Y-125569854D01*
X80332455Y-125434496D01*
X80609066Y-124716120D01*
X80589710Y-123946573D01*
X80332455Y-123325504D01*
X80034459Y-123190146D01*
X78844605Y-124380000D01*
X78485395Y-124380000D01*
X77295541Y-123190146D01*
X76997545Y-123325504D01*
X76720934Y-124043880D01*
X71805000Y-124043880D01*
X71805000Y-123010541D01*
X77475146Y-123010541D01*
X78665000Y-124200395D01*
X79854854Y-123010541D01*
X79719496Y-122712545D01*
X79001120Y-122435934D01*
X78231573Y-122455290D01*
X77610504Y-122712545D01*
X77475146Y-123010541D01*
X71805000Y-123010541D01*
X71805000Y-120749459D01*
X74375146Y-120749459D01*
X74510504Y-121047455D01*
X75228880Y-121324066D01*
X75998427Y-121304710D01*
X76619496Y-121047455D01*
X76754854Y-120749459D01*
X75565000Y-119559605D01*
X74375146Y-120749459D01*
X71805000Y-120749459D01*
X71805000Y-119043880D01*
X73620934Y-119043880D01*
X73640290Y-119813427D01*
X73897545Y-120434496D01*
X74195541Y-120569854D01*
X75385395Y-119380000D01*
X75744605Y-119380000D01*
X76934459Y-120569854D01*
X77232455Y-120434496D01*
X77490935Y-119763207D01*
X79829665Y-119763207D01*
X80123630Y-120474658D01*
X80667479Y-121019457D01*
X81378416Y-121314663D01*
X82148207Y-121315335D01*
X82859658Y-121021370D01*
X83404457Y-120477521D01*
X83699663Y-119766584D01*
X83700335Y-118996793D01*
X83406370Y-118285342D01*
X82862521Y-117740543D01*
X82151584Y-117445337D01*
X81381793Y-117444665D01*
X80670342Y-117738630D01*
X80125543Y-118282479D01*
X79830337Y-118993416D01*
X79829665Y-119763207D01*
X77490935Y-119763207D01*
X77509066Y-119716120D01*
X77489710Y-118946573D01*
X77232455Y-118325504D01*
X76934459Y-118190146D01*
X75744605Y-119380000D01*
X75385395Y-119380000D01*
X74195541Y-118190146D01*
X73897545Y-118325504D01*
X73620934Y-119043880D01*
X71805000Y-119043880D01*
X71805000Y-118010541D01*
X74375146Y-118010541D01*
X75565000Y-119200395D01*
X76754854Y-118010541D01*
X76619496Y-117712545D01*
X75901120Y-117435934D01*
X75131573Y-117455290D01*
X74510504Y-117712545D01*
X74375146Y-118010541D01*
X71805000Y-118010541D01*
X71805000Y-115697000D01*
X85090000Y-115697000D01*
X85139410Y-115686994D01*
X85179803Y-115659803D01*
X85313203Y-115526403D01*
X85328946Y-115523328D01*
X85539013Y-115384013D01*
X86174013Y-114749013D01*
X86309971Y-114547051D01*
X86314393Y-114525213D01*
X86449803Y-114389803D01*
X86477666Y-114347789D01*
X86487000Y-114300000D01*
X86487000Y-111125000D01*
X86476994Y-111075590D01*
X86449803Y-111035197D01*
X86316403Y-110901797D01*
X86313328Y-110886054D01*
X86174013Y-110675987D01*
X85539013Y-110040987D01*
X85337051Y-109905029D01*
X85315213Y-109900607D01*
X85179803Y-109765197D01*
X85137789Y-109737334D01*
X85090000Y-109728000D01*
X71805000Y-109728000D01*
X71805000Y-107570572D01*
X71857632Y-107677763D01*
X72198322Y-107965002D01*
X72623000Y-108100000D01*
X72898000Y-108100000D01*
X72898000Y-107092000D01*
X73152000Y-107092000D01*
X73152000Y-108100000D01*
X73427000Y-108100000D01*
X73851678Y-107965002D01*
X74192368Y-107677763D01*
X74394119Y-107266874D01*
X74267954Y-107092000D01*
X73152000Y-107092000D01*
X72898000Y-107092000D01*
X72878000Y-107092000D01*
X72878000Y-106838000D01*
X72898000Y-106838000D01*
X72898000Y-105830000D01*
X73152000Y-105830000D01*
X73152000Y-106838000D01*
X74267954Y-106838000D01*
X74394119Y-106663126D01*
X74199191Y-106266131D01*
X74623771Y-106266131D01*
X74765432Y-106676049D01*
X75053179Y-107000552D01*
X75427062Y-107184268D01*
X75598000Y-107057734D01*
X75598000Y-106092000D01*
X75852000Y-106092000D01*
X75852000Y-107057734D01*
X76022938Y-107184268D01*
X76396821Y-107000552D01*
X76684568Y-106676049D01*
X76826229Y-106266131D01*
X76677563Y-106092000D01*
X75852000Y-106092000D01*
X75598000Y-106092000D01*
X74772437Y-106092000D01*
X74623771Y-106266131D01*
X74199191Y-106266131D01*
X74192368Y-106252237D01*
X73851678Y-105964998D01*
X73427000Y-105830000D01*
X73152000Y-105830000D01*
X72898000Y-105830000D01*
X72623000Y-105830000D01*
X72198322Y-105964998D01*
X71857632Y-106252237D01*
X71805000Y-106359428D01*
X71805000Y-105663869D01*
X74623771Y-105663869D01*
X74772437Y-105838000D01*
X75598000Y-105838000D01*
X75598000Y-104872266D01*
X75852000Y-104872266D01*
X75852000Y-105838000D01*
X76677563Y-105838000D01*
X76826229Y-105663869D01*
X76684568Y-105253951D01*
X76396821Y-104929448D01*
X76022938Y-104745732D01*
X75852000Y-104872266D01*
X75598000Y-104872266D01*
X75427062Y-104745732D01*
X75053179Y-104929448D01*
X74765432Y-105253951D01*
X74623771Y-105663869D01*
X71805000Y-105663869D01*
X71805000Y-101266131D01*
X74623771Y-101266131D01*
X74765432Y-101676049D01*
X75053179Y-102000552D01*
X75427062Y-102184268D01*
X75598000Y-102057734D01*
X75598000Y-101092000D01*
X75852000Y-101092000D01*
X75852000Y-102057734D01*
X76022938Y-102184268D01*
X76396821Y-102000552D01*
X76684568Y-101676049D01*
X76826229Y-101266131D01*
X76677563Y-101092000D01*
X75852000Y-101092000D01*
X75598000Y-101092000D01*
X74772437Y-101092000D01*
X74623771Y-101266131D01*
X71805000Y-101266131D01*
X71805000Y-100570572D01*
X71857632Y-100677763D01*
X72198322Y-100965002D01*
X72623000Y-101100000D01*
X72898000Y-101100000D01*
X72898000Y-100092000D01*
X73152000Y-100092000D01*
X73152000Y-101100000D01*
X73427000Y-101100000D01*
X73851678Y-100965002D01*
X74192368Y-100677763D01*
X74199190Y-100663869D01*
X74623771Y-100663869D01*
X74772437Y-100838000D01*
X75598000Y-100838000D01*
X75598000Y-99872266D01*
X75852000Y-99872266D01*
X75852000Y-100838000D01*
X76677563Y-100838000D01*
X76826229Y-100663869D01*
X76684568Y-100253951D01*
X76396821Y-99929448D01*
X76022938Y-99745732D01*
X75852000Y-99872266D01*
X75598000Y-99872266D01*
X75427062Y-99745732D01*
X75053179Y-99929448D01*
X74765432Y-100253951D01*
X74623771Y-100663869D01*
X74199190Y-100663869D01*
X74394119Y-100266874D01*
X74267954Y-100092000D01*
X73152000Y-100092000D01*
X72898000Y-100092000D01*
X72878000Y-100092000D01*
X72878000Y-99838000D01*
X72898000Y-99838000D01*
X72898000Y-98830000D01*
X73152000Y-98830000D01*
X73152000Y-99838000D01*
X74267954Y-99838000D01*
X74394119Y-99663126D01*
X74192368Y-99252237D01*
X73851678Y-98964998D01*
X73427000Y-98830000D01*
X73152000Y-98830000D01*
X72898000Y-98830000D01*
X72623000Y-98830000D01*
X72198322Y-98964998D01*
X71857632Y-99252237D01*
X71805000Y-99359428D01*
X71805000Y-74306527D01*
X85093252Y-74306527D01*
X84466364Y-74932321D01*
X84466364Y-74932321D01*
G37*
X84466364Y-74932321D02*
X84125389Y-75753481D01*
X84124613Y-76642619D01*
X84464155Y-77464372D01*
X85092321Y-78093636D01*
X85913481Y-78434611D01*
X86802619Y-78435387D01*
X87624372Y-78095845D01*
X88253636Y-77467679D01*
X88421214Y-77064106D01*
X88462838Y-77285317D01*
X88601910Y-77501441D01*
X88814110Y-77646431D01*
X89066000Y-77697440D01*
X90766000Y-77697440D01*
X91001317Y-77653162D01*
X91217441Y-77514090D01*
X91362431Y-77301890D01*
X91376086Y-77234459D01*
X91405946Y-77279147D01*
X91887715Y-77601054D01*
X92456000Y-77714093D01*
X93024285Y-77601054D01*
X93506054Y-77279147D01*
X93726000Y-76949974D01*
X93945946Y-77279147D01*
X94427715Y-77601054D01*
X94996000Y-77714093D01*
X95564285Y-77601054D01*
X96046054Y-77279147D01*
X96273702Y-76938447D01*
X96340817Y-77081358D01*
X96769076Y-77471645D01*
X97179110Y-77641476D01*
X97409000Y-77520155D01*
X97409000Y-77107771D01*
X97566000Y-77139000D01*
X97663000Y-77119706D01*
X97663000Y-77520155D01*
X97892890Y-77641476D01*
X98302924Y-77471645D01*
X98731183Y-77081358D01*
X98798298Y-76938447D01*
X99025946Y-77279147D01*
X99507715Y-77601054D01*
X100076000Y-77714093D01*
X100644285Y-77601054D01*
X100877076Y-77445508D01*
X101598023Y-78166455D01*
X101844585Y-78331202D01*
X102135424Y-78389054D01*
X102695484Y-78389054D01*
X105017709Y-80711279D01*
X105264271Y-80876026D01*
X105555110Y-80933878D01*
X114811628Y-80933878D01*
X114914188Y-81036438D01*
X115160749Y-81201185D01*
X115383533Y-81245500D01*
X115383268Y-81550046D01*
X115525313Y-81893822D01*
X115788103Y-82157071D01*
X116131631Y-82299717D01*
X116503597Y-82300041D01*
X116847373Y-82157996D01*
X116914852Y-82090634D01*
X117033533Y-82067027D01*
X117280095Y-81902280D01*
X117997320Y-81185055D01*
X118693176Y-81185055D01*
X118984015Y-81127203D01*
X119230577Y-80962456D01*
X119457959Y-80735074D01*
X121312754Y-80735074D01*
X121312764Y-80735072D01*
X122658360Y-80735074D01*
X124497746Y-80735074D01*
X124788585Y-80677222D01*
X125035147Y-80512475D01*
X126962610Y-78585012D01*
X132940059Y-78585012D01*
X133230898Y-78527160D01*
X133477460Y-78362413D01*
X134207776Y-77632097D01*
X134620000Y-77714093D01*
X135188285Y-77601054D01*
X135670054Y-77279147D01*
X135991961Y-76797378D01*
X136105000Y-76229093D01*
X136105000Y-76170907D01*
X135991961Y-75602622D01*
X135670054Y-75120853D01*
X135188285Y-74798946D01*
X134620000Y-74685907D01*
X134051715Y-74798946D01*
X133569946Y-75120853D01*
X133350000Y-75450026D01*
X133130054Y-75120853D01*
X132648285Y-74798946D01*
X132080000Y-74685907D01*
X131511715Y-74798946D01*
X131029946Y-75120853D01*
X130810000Y-75450026D01*
X130590054Y-75120853D01*
X130108285Y-74798946D01*
X129540000Y-74685907D01*
X128971715Y-74798946D01*
X128489946Y-75120853D01*
X128270000Y-75450026D01*
X128050054Y-75120853D01*
X127568285Y-74798946D01*
X127000000Y-74685907D01*
X126431715Y-74798946D01*
X125949946Y-75120853D01*
X125730000Y-75450026D01*
X125510054Y-75120853D01*
X125028285Y-74798946D01*
X124460000Y-74685907D01*
X123891715Y-74798946D01*
X123409946Y-75120853D01*
X123190000Y-75450026D01*
X122970054Y-75120853D01*
X122488285Y-74798946D01*
X121920000Y-74685907D01*
X121351715Y-74798946D01*
X120869946Y-75120853D01*
X120650000Y-75450026D01*
X120430054Y-75120853D01*
X119948285Y-74798946D01*
X119380000Y-74685907D01*
X118811715Y-74798946D01*
X118329946Y-75120853D01*
X118302150Y-75162452D01*
X118293162Y-75114683D01*
X118154090Y-74898559D01*
X117941890Y-74753569D01*
X117690000Y-74702560D01*
X115990000Y-74702560D01*
X115754683Y-74746838D01*
X115538559Y-74885910D01*
X115393569Y-75098110D01*
X115342560Y-75350000D01*
X115342560Y-77050000D01*
X115386838Y-77285317D01*
X115525910Y-77501441D01*
X115738110Y-77646431D01*
X115896946Y-77678596D01*
X112954455Y-77678596D01*
X113344285Y-77601054D01*
X113826054Y-77279147D01*
X114147961Y-76797378D01*
X114261000Y-76229093D01*
X114261000Y-76170907D01*
X114147961Y-75602622D01*
X113826054Y-75120853D01*
X113344285Y-74798946D01*
X112776000Y-74685907D01*
X112207715Y-74798946D01*
X111725946Y-75120853D01*
X111506000Y-75450026D01*
X111286054Y-75120853D01*
X110804285Y-74798946D01*
X110236000Y-74685907D01*
X109667715Y-74798946D01*
X109185946Y-75120853D01*
X108966000Y-75450026D01*
X108746054Y-75120853D01*
X108264285Y-74798946D01*
X107696000Y-74685907D01*
X107127715Y-74798946D01*
X106645946Y-75120853D01*
X106426000Y-75450026D01*
X106206054Y-75120853D01*
X105724285Y-74798946D01*
X105156000Y-74685907D01*
X104587715Y-74798946D01*
X104252640Y-75022836D01*
X103536331Y-74306527D01*
X135341472Y-74306527D01*
X136505000Y-75470055D01*
X136505000Y-86614000D01*
X136530287Y-86741124D01*
X136554055Y-86868556D01*
X136556330Y-86872050D01*
X136557143Y-86876138D01*
X136629148Y-86983901D01*
X136699878Y-87092545D01*
X138985000Y-89432952D01*
X138985000Y-90104659D01*
X138427679Y-89546364D01*
X137606519Y-89205389D01*
X136717381Y-89204613D01*
X135895628Y-89544155D01*
X135266364Y-90172321D01*
X134925389Y-90993481D01*
X134924613Y-91882619D01*
X135264155Y-92704372D01*
X135892321Y-93333636D01*
X136713481Y-93674611D01*
X137602619Y-93675387D01*
X138424372Y-93335845D01*
X138985000Y-92776195D01*
X138985000Y-118044659D01*
X138427679Y-117486364D01*
X137606519Y-117145389D01*
X136717381Y-117144613D01*
X135895628Y-117484155D01*
X135266364Y-118112321D01*
X134925389Y-118933481D01*
X134924613Y-119822619D01*
X135264155Y-120644372D01*
X135892321Y-121273636D01*
X136713481Y-121614611D01*
X137602619Y-121615387D01*
X138424372Y-121275845D01*
X138985000Y-120716195D01*
X138985000Y-121641048D01*
X136699878Y-123981455D01*
X136629148Y-124090099D01*
X136557143Y-124197862D01*
X136556330Y-124201950D01*
X136554055Y-124205444D01*
X136530287Y-124332876D01*
X136505000Y-124460000D01*
X136505000Y-126315000D01*
X107567988Y-126315000D01*
X107781402Y-126172402D01*
X108316640Y-125637164D01*
X108651715Y-125861054D01*
X109220000Y-125974093D01*
X109788285Y-125861054D01*
X110270054Y-125539147D01*
X110497702Y-125198447D01*
X110564817Y-125341358D01*
X110993076Y-125731645D01*
X111403110Y-125901476D01*
X111633000Y-125780155D01*
X111633000Y-125373738D01*
X111760000Y-125399000D01*
X111887000Y-125373738D01*
X111887000Y-125780155D01*
X112116890Y-125901476D01*
X112526924Y-125731645D01*
X112955183Y-125341358D01*
X113030000Y-125182046D01*
X113104817Y-125341358D01*
X113533076Y-125731645D01*
X113943110Y-125901476D01*
X114173000Y-125780155D01*
X114173000Y-125373738D01*
X114300000Y-125399000D01*
X114427000Y-125373738D01*
X114427000Y-125780155D01*
X114656890Y-125901476D01*
X115066924Y-125731645D01*
X115495183Y-125341358D01*
X115562298Y-125198447D01*
X115789946Y-125539147D01*
X116271715Y-125861054D01*
X116840000Y-125974093D01*
X117408285Y-125861054D01*
X117890054Y-125539147D01*
X118211961Y-125057378D01*
X118325000Y-124489093D01*
X118325000Y-124430907D01*
X118211961Y-123862622D01*
X118043165Y-123610000D01*
X120422560Y-123610000D01*
X120422560Y-125310000D01*
X120466838Y-125545317D01*
X120605910Y-125761441D01*
X120818110Y-125906431D01*
X121070000Y-125957440D01*
X122770000Y-125957440D01*
X123005317Y-125913162D01*
X123221441Y-125774090D01*
X123366431Y-125561890D01*
X123380086Y-125494459D01*
X123409946Y-125539147D01*
X123891715Y-125861054D01*
X124460000Y-125974093D01*
X125028285Y-125861054D01*
X125510054Y-125539147D01*
X125730000Y-125209974D01*
X125949946Y-125539147D01*
X126431715Y-125861054D01*
X127000000Y-125974093D01*
X127568285Y-125861054D01*
X128050054Y-125539147D01*
X128270000Y-125209974D01*
X128489946Y-125539147D01*
X128971715Y-125861054D01*
X129540000Y-125974093D01*
X130108285Y-125861054D01*
X130590054Y-125539147D01*
X130810000Y-125209974D01*
X131029946Y-125539147D01*
X131511715Y-125861054D01*
X132080000Y-125974093D01*
X132648285Y-125861054D01*
X133130054Y-125539147D01*
X133350000Y-125209974D01*
X133569946Y-125539147D01*
X134051715Y-125861054D01*
X134620000Y-125974093D01*
X135188285Y-125861054D01*
X135670054Y-125539147D01*
X135991961Y-125057378D01*
X136105000Y-124489093D01*
X136105000Y-124430907D01*
X135991961Y-123862622D01*
X135670054Y-123380853D01*
X135188285Y-123058946D01*
X134620000Y-122945907D01*
X134051715Y-123058946D01*
X133569946Y-123380853D01*
X133350000Y-123710026D01*
X133130054Y-123380853D01*
X132648285Y-123058946D01*
X132080000Y-122945907D01*
X131511715Y-123058946D01*
X131029946Y-123380853D01*
X130810000Y-123710026D01*
X130590054Y-123380853D01*
X130108285Y-123058946D01*
X129540000Y-122945907D01*
X128971715Y-123058946D01*
X128489946Y-123380853D01*
X128270000Y-123710026D01*
X128050054Y-123380853D01*
X127568285Y-123058946D01*
X127000000Y-122945907D01*
X126431715Y-123058946D01*
X125949946Y-123380853D01*
X125730000Y-123710026D01*
X125510054Y-123380853D01*
X125028285Y-123058946D01*
X124460000Y-122945907D01*
X123891715Y-123058946D01*
X123409946Y-123380853D01*
X123382150Y-123422452D01*
X123373162Y-123374683D01*
X123234090Y-123158559D01*
X123021890Y-123013569D01*
X122770000Y-122962560D01*
X121070000Y-122962560D01*
X120834683Y-123006838D01*
X120618559Y-123145910D01*
X120473569Y-123358110D01*
X120422560Y-123610000D01*
X118043165Y-123610000D01*
X117890054Y-123380853D01*
X117408285Y-123058946D01*
X116840000Y-122945907D01*
X116271715Y-123058946D01*
X115789946Y-123380853D01*
X115562298Y-123721553D01*
X115495183Y-123578642D01*
X115066924Y-123188355D01*
X114656890Y-123018524D01*
X114427000Y-123139845D01*
X114427000Y-123546262D01*
X114300000Y-123521000D01*
X114173000Y-123546262D01*
X114173000Y-123139845D01*
X113943110Y-123018524D01*
X113533076Y-123188355D01*
X113104817Y-123578642D01*
X113030000Y-123737954D01*
X112955183Y-123578642D01*
X112526924Y-123188355D01*
X112116890Y-123018524D01*
X111887000Y-123139845D01*
X111887000Y-123546262D01*
X111760000Y-123521000D01*
X111633000Y-123546262D01*
X111633000Y-123139845D01*
X111403110Y-123018524D01*
X110993076Y-123188355D01*
X110564817Y-123578642D01*
X110497702Y-123721553D01*
X110270054Y-123380853D01*
X109788285Y-123058946D01*
X109220000Y-122945907D01*
X108651715Y-123058946D01*
X108316640Y-123282836D01*
X108162638Y-123128834D01*
X108162638Y-116235559D01*
X109074199Y-115323998D01*
X116596423Y-115323998D01*
X115669164Y-116251256D01*
X115549057Y-116300883D01*
X115285808Y-116563673D01*
X115143162Y-116907201D01*
X115142838Y-117279167D01*
X115284883Y-117622943D01*
X115547673Y-117886192D01*
X115891201Y-118028838D01*
X116263167Y-118029162D01*
X116606943Y-117887117D01*
X116870192Y-117624327D01*
X116920566Y-117503014D01*
X118241199Y-116182380D01*
X123947188Y-116182380D01*
X124067211Y-116232218D01*
X124439177Y-116232542D01*
X124782953Y-116090497D01*
X125046202Y-115827707D01*
X125188848Y-115484179D01*
X125188988Y-115323998D01*
X129149002Y-115323998D01*
X129439841Y-115266146D01*
X129686403Y-115101399D01*
X136171530Y-108616272D01*
X136336277Y-108369710D01*
X136394129Y-108078871D01*
X136394129Y-102849419D01*
X136803108Y-103041486D01*
X137033000Y-102920819D01*
X137033000Y-101727000D01*
X137287000Y-101727000D01*
X137287000Y-102920819D01*
X137516892Y-103041486D01*
X138041358Y-102795183D01*
X138431645Y-102366924D01*
X138601476Y-101956890D01*
X138480155Y-101727000D01*
X137287000Y-101727000D01*
X137033000Y-101727000D01*
X137013000Y-101727000D01*
X137013000Y-101473000D01*
X137033000Y-101473000D01*
X137033000Y-101453000D01*
X137287000Y-101453000D01*
X137287000Y-101473000D01*
X138480155Y-101473000D01*
X138601476Y-101243110D01*
X138431645Y-100833076D01*
X138041358Y-100404817D01*
X137898447Y-100337702D01*
X138239147Y-100110054D01*
X138561054Y-99628285D01*
X138674093Y-99060000D01*
X138561054Y-98491715D01*
X138239147Y-98009946D01*
X137909974Y-97790000D01*
X138239147Y-97570054D01*
X138561054Y-97088285D01*
X138674093Y-96520000D01*
X138561054Y-95951715D01*
X138239147Y-95469946D01*
X137757378Y-95148039D01*
X137189093Y-95035000D01*
X137130907Y-95035000D01*
X136562622Y-95148039D01*
X136080853Y-95469946D01*
X136080029Y-95471179D01*
X136073162Y-95434683D01*
X135934090Y-95218559D01*
X135721890Y-95073569D01*
X135470000Y-95022560D01*
X133770000Y-95022560D01*
X133534683Y-95066838D01*
X133318559Y-95205910D01*
X133173569Y-95418110D01*
X133122560Y-95670000D01*
X133122560Y-97370000D01*
X133166838Y-97605317D01*
X133305910Y-97821441D01*
X133518110Y-97966431D01*
X133585541Y-97980086D01*
X133540853Y-98009946D01*
X133218946Y-98491715D01*
X133162134Y-98777330D01*
X130046000Y-95661196D01*
X130046000Y-94542463D01*
X130078192Y-94510327D01*
X130220838Y-94166799D01*
X130221162Y-93794833D01*
X130079117Y-93451057D01*
X129816327Y-93187808D01*
X129472799Y-93045162D01*
X129100833Y-93044838D01*
X128757057Y-93186883D01*
X128723882Y-93220000D01*
X119119394Y-93220000D01*
X118926011Y-93090786D01*
X118635172Y-93032934D01*
X116027817Y-93032934D01*
X104775182Y-81780299D01*
X104528620Y-81615552D01*
X104237781Y-81557700D01*
X87458502Y-81557700D01*
X87295122Y-81394320D01*
X87295162Y-81348833D01*
X87153117Y-81005057D01*
X86890327Y-80741808D01*
X86546799Y-80599162D01*
X86174833Y-80598838D01*
X85831057Y-80740883D01*
X85567808Y-81003673D01*
X85425162Y-81347201D01*
X85424838Y-81719167D01*
X85566883Y-82062943D01*
X85829673Y-82326192D01*
X85935670Y-82370206D01*
X76919176Y-82370206D01*
X76887040Y-82338014D01*
X76543512Y-82195368D01*
X76171546Y-82195044D01*
X75827770Y-82337089D01*
X75564521Y-82599879D01*
X75421875Y-82943407D01*
X75421551Y-83315373D01*
X75492896Y-83488041D01*
X75387166Y-83742665D01*
X75386842Y-84114631D01*
X75528887Y-84458407D01*
X75791677Y-84721656D01*
X76135205Y-84864302D01*
X76507171Y-84864626D01*
X76850947Y-84722581D01*
X76884122Y-84689464D01*
X94075649Y-84689464D01*
X93934162Y-85030201D01*
X93933838Y-85402167D01*
X93984000Y-85523569D01*
X93984000Y-85881266D01*
X90834422Y-85881266D01*
X90495747Y-85948633D01*
X90208632Y-86140476D01*
X90208630Y-86140479D01*
X88655210Y-87693898D01*
X88463367Y-87981013D01*
X88463367Y-87981014D01*
X88395999Y-88319688D01*
X88396000Y-88319693D01*
X88396000Y-91641178D01*
X88346162Y-91761201D01*
X88345838Y-92133167D01*
X88487883Y-92476943D01*
X88750673Y-92740192D01*
X89094201Y-92882838D01*
X89466167Y-92883162D01*
X89587569Y-92833000D01*
X99911451Y-92833000D01*
X101951451Y-94873000D01*
X99008459Y-94873000D01*
X99008454Y-94872999D01*
X98669779Y-94940367D01*
X98382664Y-95132210D01*
X98382662Y-95132213D01*
X95819935Y-97694939D01*
X95819935Y-96198603D01*
X95888877Y-96170117D01*
X96152126Y-95907327D01*
X96294772Y-95563799D01*
X96295096Y-95191833D01*
X96153051Y-94848057D01*
X95890261Y-94584808D01*
X95546733Y-94442162D01*
X95174767Y-94441838D01*
X94830991Y-94583883D01*
X94567742Y-94846673D01*
X94425096Y-95190201D01*
X94425013Y-95285549D01*
X94357787Y-95386160D01*
X94299935Y-95676999D01*
X94299935Y-105219935D01*
X94357787Y-105510774D01*
X94522534Y-105757336D01*
X96727878Y-107962680D01*
X96727838Y-108008167D01*
X96869883Y-108351943D01*
X97132673Y-108615192D01*
X97476201Y-108757838D01*
X97848167Y-108758162D01*
X98191943Y-108616117D01*
X98455192Y-108353327D01*
X98597838Y-108009799D01*
X98598162Y-107637833D01*
X98456117Y-107294057D01*
X98193327Y-107030808D01*
X97849799Y-106888162D01*
X97802923Y-106888121D01*
X95819935Y-104905133D01*
X95819935Y-100447916D01*
X95952201Y-100502838D01*
X96324167Y-100503162D01*
X96445569Y-100453000D01*
X96659395Y-100453000D01*
X96659400Y-100453001D01*
X96941884Y-100396810D01*
X96998075Y-100385633D01*
X97285190Y-100193790D01*
X99987803Y-97491176D01*
X101721074Y-97491176D01*
X105234072Y-101004173D01*
X105234072Y-121180051D01*
X104744122Y-121670000D01*
X103505005Y-121670000D01*
X103505000Y-121669999D01*
X103222516Y-121726190D01*
X103166325Y-121737367D01*
X102879210Y-121929210D01*
X102879208Y-121929213D01*
X101818960Y-122989461D01*
X101600000Y-122945907D01*
X101031715Y-123058946D01*
X100549946Y-123380853D01*
X100522150Y-123422452D01*
X100513162Y-123374683D01*
X100374090Y-123158559D01*
X100161890Y-123013569D01*
X99910000Y-122962560D01*
X98210000Y-122962560D01*
X97974683Y-123006838D01*
X97758559Y-123145910D01*
X97613569Y-123358110D01*
X97562560Y-123610000D01*
X97562560Y-125310000D01*
X97606838Y-125545317D01*
X97745910Y-125761441D01*
X97958110Y-125906431D01*
X98210000Y-125957440D01*
X99910000Y-125957440D01*
X100145317Y-125913162D01*
X100361441Y-125774090D01*
X100506431Y-125561890D01*
X100520086Y-125494459D01*
X100549946Y-125539147D01*
X101031715Y-125861054D01*
X101600000Y-125974093D01*
X102168285Y-125861054D01*
X102650054Y-125539147D01*
X102870000Y-125209974D01*
X103089946Y-125539147D01*
X103571715Y-125861054D01*
X104140000Y-125974093D01*
X104506408Y-125901210D01*
X104777600Y-126172402D01*
X104991013Y-126315000D01*
X86395288Y-126315000D01*
X86983636Y-125727679D01*
X87324611Y-124906519D01*
X87325387Y-124017381D01*
X86985845Y-123195628D01*
X86357679Y-122566364D01*
X85536519Y-122225389D01*
X84647381Y-122224613D01*
X83825628Y-122564155D01*
X83196364Y-123192321D01*
X82855389Y-124013481D01*
X82854613Y-124902619D01*
X83194155Y-125724372D01*
X83783752Y-126315000D01*
X78689322Y-126315000D01*
X79098427Y-126304710D01*
X79719496Y-126047455D01*
X79854854Y-125749459D01*
X78665000Y-124559605D01*
X77475146Y-125749459D01*
X77610504Y-126047455D01*
X78305335Y-126315000D01*
X71805000Y-126315000D01*
X71805000Y-124043880D01*
X76720934Y-124043880D01*
X76740290Y-124813427D01*
X76997545Y-125434496D01*
X77295541Y-125569854D01*
X78485395Y-124380000D01*
X78844605Y-124380000D01*
X80034459Y-125569854D01*
X80332455Y-125434496D01*
X80609066Y-124716120D01*
X80589710Y-123946573D01*
X80332455Y-123325504D01*
X80034459Y-123190146D01*
X78844605Y-124380000D01*
X78485395Y-124380000D01*
X77295541Y-123190146D01*
X76997545Y-123325504D01*
X76720934Y-124043880D01*
X71805000Y-124043880D01*
X71805000Y-123010541D01*
X77475146Y-123010541D01*
X78665000Y-124200395D01*
X79854854Y-123010541D01*
X79719496Y-122712545D01*
X79001120Y-122435934D01*
X78231573Y-122455290D01*
X77610504Y-122712545D01*
X77475146Y-123010541D01*
X71805000Y-123010541D01*
X71805000Y-120749459D01*
X74375146Y-120749459D01*
X74510504Y-121047455D01*
X75228880Y-121324066D01*
X75998427Y-121304710D01*
X76619496Y-121047455D01*
X76754854Y-120749459D01*
X75565000Y-119559605D01*
X74375146Y-120749459D01*
X71805000Y-120749459D01*
X71805000Y-119043880D01*
X73620934Y-119043880D01*
X73640290Y-119813427D01*
X73897545Y-120434496D01*
X74195541Y-120569854D01*
X75385395Y-119380000D01*
X75744605Y-119380000D01*
X76934459Y-120569854D01*
X77232455Y-120434496D01*
X77490935Y-119763207D01*
X79829665Y-119763207D01*
X80123630Y-120474658D01*
X80667479Y-121019457D01*
X81378416Y-121314663D01*
X82148207Y-121315335D01*
X82859658Y-121021370D01*
X83404457Y-120477521D01*
X83699663Y-119766584D01*
X83700335Y-118996793D01*
X83406370Y-118285342D01*
X82862521Y-117740543D01*
X82151584Y-117445337D01*
X81381793Y-117444665D01*
X80670342Y-117738630D01*
X80125543Y-118282479D01*
X79830337Y-118993416D01*
X79829665Y-119763207D01*
X77490935Y-119763207D01*
X77509066Y-119716120D01*
X77489710Y-118946573D01*
X77232455Y-118325504D01*
X76934459Y-118190146D01*
X75744605Y-119380000D01*
X75385395Y-119380000D01*
X74195541Y-118190146D01*
X73897545Y-118325504D01*
X73620934Y-119043880D01*
X71805000Y-119043880D01*
X71805000Y-118010541D01*
X74375146Y-118010541D01*
X75565000Y-119200395D01*
X76754854Y-118010541D01*
X76619496Y-117712545D01*
X75901120Y-117435934D01*
X75131573Y-117455290D01*
X74510504Y-117712545D01*
X74375146Y-118010541D01*
X71805000Y-118010541D01*
X71805000Y-115697000D01*
X85090000Y-115697000D01*
X85139410Y-115686994D01*
X85179803Y-115659803D01*
X85313203Y-115526403D01*
X85328946Y-115523328D01*
X85539013Y-115384013D01*
X86174013Y-114749013D01*
X86309971Y-114547051D01*
X86314393Y-114525213D01*
X86449803Y-114389803D01*
X86477666Y-114347789D01*
X86487000Y-114300000D01*
X86487000Y-111125000D01*
X86476994Y-111075590D01*
X86449803Y-111035197D01*
X86316403Y-110901797D01*
X86313328Y-110886054D01*
X86174013Y-110675987D01*
X85539013Y-110040987D01*
X85337051Y-109905029D01*
X85315213Y-109900607D01*
X85179803Y-109765197D01*
X85137789Y-109737334D01*
X85090000Y-109728000D01*
X71805000Y-109728000D01*
X71805000Y-107570572D01*
X71857632Y-107677763D01*
X72198322Y-107965002D01*
X72623000Y-108100000D01*
X72898000Y-108100000D01*
X72898000Y-107092000D01*
X73152000Y-107092000D01*
X73152000Y-108100000D01*
X73427000Y-108100000D01*
X73851678Y-107965002D01*
X74192368Y-107677763D01*
X74394119Y-107266874D01*
X74267954Y-107092000D01*
X73152000Y-107092000D01*
X72898000Y-107092000D01*
X72878000Y-107092000D01*
X72878000Y-106838000D01*
X72898000Y-106838000D01*
X72898000Y-105830000D01*
X73152000Y-105830000D01*
X73152000Y-106838000D01*
X74267954Y-106838000D01*
X74394119Y-106663126D01*
X74199191Y-106266131D01*
X74623771Y-106266131D01*
X74765432Y-106676049D01*
X75053179Y-107000552D01*
X75427062Y-107184268D01*
X75598000Y-107057734D01*
X75598000Y-106092000D01*
X75852000Y-106092000D01*
X75852000Y-107057734D01*
X76022938Y-107184268D01*
X76396821Y-107000552D01*
X76684568Y-106676049D01*
X76826229Y-106266131D01*
X76677563Y-106092000D01*
X75852000Y-106092000D01*
X75598000Y-106092000D01*
X74772437Y-106092000D01*
X74623771Y-106266131D01*
X74199191Y-106266131D01*
X74192368Y-106252237D01*
X73851678Y-105964998D01*
X73427000Y-105830000D01*
X73152000Y-105830000D01*
X72898000Y-105830000D01*
X72623000Y-105830000D01*
X72198322Y-105964998D01*
X71857632Y-106252237D01*
X71805000Y-106359428D01*
X71805000Y-105663869D01*
X74623771Y-105663869D01*
X74772437Y-105838000D01*
X75598000Y-105838000D01*
X75598000Y-104872266D01*
X75852000Y-104872266D01*
X75852000Y-105838000D01*
X76677563Y-105838000D01*
X76826229Y-105663869D01*
X76684568Y-105253951D01*
X76396821Y-104929448D01*
X76022938Y-104745732D01*
X75852000Y-104872266D01*
X75598000Y-104872266D01*
X75427062Y-104745732D01*
X75053179Y-104929448D01*
X74765432Y-105253951D01*
X74623771Y-105663869D01*
X71805000Y-105663869D01*
X71805000Y-101266131D01*
X74623771Y-101266131D01*
X74765432Y-101676049D01*
X75053179Y-102000552D01*
X75427062Y-102184268D01*
X75598000Y-102057734D01*
X75598000Y-101092000D01*
X75852000Y-101092000D01*
X75852000Y-102057734D01*
X76022938Y-102184268D01*
X76396821Y-102000552D01*
X76684568Y-101676049D01*
X76826229Y-101266131D01*
X76677563Y-101092000D01*
X75852000Y-101092000D01*
X75598000Y-101092000D01*
X74772437Y-101092000D01*
X74623771Y-101266131D01*
X71805000Y-101266131D01*
X71805000Y-100570572D01*
X71857632Y-100677763D01*
X72198322Y-100965002D01*
X72623000Y-101100000D01*
X72898000Y-101100000D01*
X72898000Y-100092000D01*
X73152000Y-100092000D01*
X73152000Y-101100000D01*
X73427000Y-101100000D01*
X73851678Y-100965002D01*
X74192368Y-100677763D01*
X74199190Y-100663869D01*
X74623771Y-100663869D01*
X74772437Y-100838000D01*
X75598000Y-100838000D01*
X75598000Y-99872266D01*
X75852000Y-99872266D01*
X75852000Y-100838000D01*
X76677563Y-100838000D01*
X76826229Y-100663869D01*
X76684568Y-100253951D01*
X76396821Y-99929448D01*
X76022938Y-99745732D01*
X75852000Y-99872266D01*
X75598000Y-99872266D01*
X75427062Y-99745732D01*
X75053179Y-99929448D01*
X74765432Y-100253951D01*
X74623771Y-100663869D01*
X74199190Y-100663869D01*
X74394119Y-100266874D01*
X74267954Y-100092000D01*
X73152000Y-100092000D01*
X72898000Y-100092000D01*
X72878000Y-100092000D01*
X72878000Y-99838000D01*
X72898000Y-99838000D01*
X72898000Y-98830000D01*
X73152000Y-98830000D01*
X73152000Y-99838000D01*
X74267954Y-99838000D01*
X74394119Y-99663126D01*
X74192368Y-99252237D01*
X73851678Y-98964998D01*
X73427000Y-98830000D01*
X73152000Y-98830000D01*
X72898000Y-98830000D01*
X72623000Y-98830000D01*
X72198322Y-98964998D01*
X71857632Y-99252237D01*
X71805000Y-99359428D01*
X71805000Y-74306527D01*
X85093252Y-74306527D01*
X84466364Y-74932321D01*
G36*
X111887000Y-124054262D02*
X111887000Y-124333000D01*
X111907000Y-124333000D01*
X111907000Y-124587000D01*
X111887000Y-124587000D01*
X111887000Y-124865738D01*
X111760000Y-124891000D01*
X111633000Y-124865738D01*
X111633000Y-124587000D01*
X111613000Y-124587000D01*
X111613000Y-124333000D01*
X111633000Y-124333000D01*
X111633000Y-124054262D01*
X111760000Y-124029000D01*
X111887000Y-124054262D01*
X111887000Y-124054262D01*
G37*
X111887000Y-124054262D02*
X111887000Y-124333000D01*
X111907000Y-124333000D01*
X111907000Y-124587000D01*
X111887000Y-124587000D01*
X111887000Y-124865738D01*
X111760000Y-124891000D01*
X111633000Y-124865738D01*
X111633000Y-124587000D01*
X111613000Y-124587000D01*
X111613000Y-124333000D01*
X111633000Y-124333000D01*
X111633000Y-124054262D01*
X111760000Y-124029000D01*
X111887000Y-124054262D01*
G36*
X114427000Y-124054262D02*
X114427000Y-124333000D01*
X114447000Y-124333000D01*
X114447000Y-124587000D01*
X114427000Y-124587000D01*
X114427000Y-124865738D01*
X114300000Y-124891000D01*
X114173000Y-124865738D01*
X114173000Y-124587000D01*
X114153000Y-124587000D01*
X114153000Y-124333000D01*
X114173000Y-124333000D01*
X114173000Y-124054262D01*
X114300000Y-124029000D01*
X114427000Y-124054262D01*
X114427000Y-124054262D01*
G37*
X114427000Y-124054262D02*
X114427000Y-124333000D01*
X114447000Y-124333000D01*
X114447000Y-124587000D01*
X114427000Y-124587000D01*
X114427000Y-124865738D01*
X114300000Y-124891000D01*
X114173000Y-124865738D01*
X114173000Y-124587000D01*
X114153000Y-124587000D01*
X114153000Y-124333000D01*
X114173000Y-124333000D01*
X114173000Y-124054262D01*
X114300000Y-124029000D01*
X114427000Y-124054262D01*
G36*
X110000591Y-90428132D02*
X104288636Y-90428132D01*
X104168613Y-90378294D01*
X103796647Y-90377970D01*
X103452871Y-90520015D01*
X103189622Y-90782805D01*
X103046976Y-91126333D01*
X103046652Y-91498299D01*
X103188697Y-91842075D01*
X103451487Y-92105324D01*
X103795015Y-92247970D01*
X104166981Y-92248294D01*
X104288383Y-92198132D01*
X110124123Y-92198132D01*
X114067097Y-96141105D01*
X114128156Y-96288880D01*
X114390946Y-96552129D01*
X114734474Y-96694775D01*
X115106440Y-96695099D01*
X115227842Y-96644937D01*
X115345532Y-96644937D01*
X115345537Y-96644938D01*
X115395508Y-96634998D01*
X126262365Y-96634998D01*
X130179000Y-100551632D01*
X130179000Y-108659178D01*
X130129162Y-108779201D01*
X130128838Y-109151167D01*
X130270883Y-109494943D01*
X130525554Y-109750058D01*
X128960169Y-111315443D01*
X124070590Y-111315443D01*
X124124838Y-111184799D01*
X124125162Y-110812833D01*
X123983117Y-110469057D01*
X123720327Y-110205808D01*
X123376799Y-110063162D01*
X123004833Y-110062838D01*
X122661057Y-110204883D01*
X122397808Y-110467673D01*
X122255162Y-110811201D01*
X122255125Y-110853189D01*
X115846238Y-110853189D01*
X112901000Y-107907951D01*
X112901000Y-103432463D01*
X112933192Y-103400327D01*
X113075838Y-103056799D01*
X113076162Y-102684833D01*
X112934117Y-102341057D01*
X112671327Y-102077808D01*
X112327799Y-101935162D01*
X111955833Y-101934838D01*
X111612057Y-102076883D01*
X111348808Y-102339673D01*
X111206162Y-102683201D01*
X111205838Y-103055167D01*
X111347883Y-103398943D01*
X111381000Y-103432118D01*
X111381000Y-105301780D01*
X111371697Y-105297917D01*
X111334917Y-105297885D01*
X111372267Y-105207937D01*
X111372591Y-104835971D01*
X111230546Y-104492195D01*
X110967756Y-104228946D01*
X110624228Y-104086300D01*
X110252262Y-104085976D01*
X109908486Y-104228021D01*
X109645237Y-104490811D01*
X109502591Y-104834339D01*
X109502267Y-105206305D01*
X109644312Y-105550081D01*
X109677429Y-105583256D01*
X109677429Y-107846720D01*
X109735281Y-108137559D01*
X109900028Y-108384121D01*
X114422907Y-112907000D01*
X108975351Y-112907000D01*
X108324092Y-112255740D01*
X108324092Y-99109066D01*
X108324093Y-99109061D01*
X108256726Y-98770387D01*
X108101577Y-98538190D01*
X108064882Y-98483271D01*
X108064879Y-98483269D01*
X100903821Y-91322210D01*
X100654781Y-91155808D01*
X100616706Y-91130367D01*
X100560515Y-91119190D01*
X100278031Y-91062999D01*
X100278026Y-91063000D01*
X90166000Y-91063000D01*
X90166000Y-88686268D01*
X91201001Y-87651266D01*
X94869000Y-87651266D01*
X95207675Y-87583899D01*
X95494790Y-87392056D01*
X95686633Y-87104941D01*
X95754000Y-86766266D01*
X95754000Y-85523822D01*
X95803838Y-85403799D01*
X95804162Y-85031833D01*
X95662698Y-84689464D01*
X104261923Y-84689464D01*
X110000591Y-90428132D01*
X110000591Y-90428132D01*
G37*
X110000591Y-90428132D02*
X104288636Y-90428132D01*
X104168613Y-90378294D01*
X103796647Y-90377970D01*
X103452871Y-90520015D01*
X103189622Y-90782805D01*
X103046976Y-91126333D01*
X103046652Y-91498299D01*
X103188697Y-91842075D01*
X103451487Y-92105324D01*
X103795015Y-92247970D01*
X104166981Y-92248294D01*
X104288383Y-92198132D01*
X110124123Y-92198132D01*
X114067097Y-96141105D01*
X114128156Y-96288880D01*
X114390946Y-96552129D01*
X114734474Y-96694775D01*
X115106440Y-96695099D01*
X115227842Y-96644937D01*
X115345532Y-96644937D01*
X115345537Y-96644938D01*
X115395508Y-96634998D01*
X126262365Y-96634998D01*
X130179000Y-100551632D01*
X130179000Y-108659178D01*
X130129162Y-108779201D01*
X130128838Y-109151167D01*
X130270883Y-109494943D01*
X130525554Y-109750058D01*
X128960169Y-111315443D01*
X124070590Y-111315443D01*
X124124838Y-111184799D01*
X124125162Y-110812833D01*
X123983117Y-110469057D01*
X123720327Y-110205808D01*
X123376799Y-110063162D01*
X123004833Y-110062838D01*
X122661057Y-110204883D01*
X122397808Y-110467673D01*
X122255162Y-110811201D01*
X122255125Y-110853189D01*
X115846238Y-110853189D01*
X112901000Y-107907951D01*
X112901000Y-103432463D01*
X112933192Y-103400327D01*
X113075838Y-103056799D01*
X113076162Y-102684833D01*
X112934117Y-102341057D01*
X112671327Y-102077808D01*
X112327799Y-101935162D01*
X111955833Y-101934838D01*
X111612057Y-102076883D01*
X111348808Y-102339673D01*
X111206162Y-102683201D01*
X111205838Y-103055167D01*
X111347883Y-103398943D01*
X111381000Y-103432118D01*
X111381000Y-105301780D01*
X111371697Y-105297917D01*
X111334917Y-105297885D01*
X111372267Y-105207937D01*
X111372591Y-104835971D01*
X111230546Y-104492195D01*
X110967756Y-104228946D01*
X110624228Y-104086300D01*
X110252262Y-104085976D01*
X109908486Y-104228021D01*
X109645237Y-104490811D01*
X109502591Y-104834339D01*
X109502267Y-105206305D01*
X109644312Y-105550081D01*
X109677429Y-105583256D01*
X109677429Y-107846720D01*
X109735281Y-108137559D01*
X109900028Y-108384121D01*
X114422907Y-112907000D01*
X108975351Y-112907000D01*
X108324092Y-112255740D01*
X108324092Y-99109066D01*
X108324093Y-99109061D01*
X108256726Y-98770387D01*
X108101577Y-98538190D01*
X108064882Y-98483271D01*
X108064879Y-98483269D01*
X100903821Y-91322210D01*
X100654781Y-91155808D01*
X100616706Y-91130367D01*
X100560515Y-91119190D01*
X100278031Y-91062999D01*
X100278026Y-91063000D01*
X90166000Y-91063000D01*
X90166000Y-88686268D01*
X91201001Y-87651266D01*
X94869000Y-87651266D01*
X95207675Y-87583899D01*
X95494790Y-87392056D01*
X95686633Y-87104941D01*
X95754000Y-86766266D01*
X95754000Y-85523822D01*
X95803838Y-85403799D01*
X95804162Y-85031833D01*
X95662698Y-84689464D01*
X104261923Y-84689464D01*
X110000591Y-90428132D01*
G36*
X97663000Y-76073000D02*
X97683000Y-76073000D01*
X97683000Y-76327000D01*
X97663000Y-76327000D01*
X97663000Y-76611706D01*
X97566000Y-76631000D01*
X97409000Y-76599771D01*
X97409000Y-76327000D01*
X97389000Y-76327000D01*
X97389000Y-76073000D01*
X97409000Y-76073000D01*
X97409000Y-76053000D01*
X97663000Y-76053000D01*
X97663000Y-76073000D01*
X97663000Y-76073000D01*
G37*
X97663000Y-76073000D02*
X97683000Y-76073000D01*
X97683000Y-76327000D01*
X97663000Y-76327000D01*
X97663000Y-76611706D01*
X97566000Y-76631000D01*
X97409000Y-76599771D01*
X97409000Y-76327000D01*
X97389000Y-76327000D01*
X97389000Y-76073000D01*
X97409000Y-76073000D01*
X97409000Y-76053000D01*
X97663000Y-76053000D01*
X97663000Y-76073000D01*
G36*
X85598000Y-111177606D02*
X85598000Y-114247394D01*
X85037394Y-114808000D01*
X71882000Y-114808000D01*
X71882000Y-110617000D01*
X85037394Y-110617000D01*
X85598000Y-111177606D01*
X85598000Y-111177606D01*
G37*
X85598000Y-111177606D02*
X85598000Y-114247394D01*
X85037394Y-114808000D01*
X71882000Y-114808000D01*
X71882000Y-110617000D01*
X85037394Y-110617000D01*
X85598000Y-111177606D01*
M02*
