G04 #@! TF.FileFunction,Soldermask,Top*
%FSLAX46Y46*%
G04 Gerber Fmt 4.6, Leading zero omitted, Abs format (unit mm)*
G04 Created by KiCad (PCBNEW 4.0.7) date 10/12/17 20:03:31*
%MOMM*%
%LPD*%
G01*
G04 APERTURE LIST*
%ADD10C,0.100000*%
%ADD11C,3.000000*%
%ADD12R,3.400000X2.000000*%
%ADD13R,1.650000X1.400000*%
%ADD14R,1.400000X1.650000*%
%ADD15R,1.600000X1.600000*%
%ADD16R,2.100000X2.100000*%
%ADD17O,2.100000X2.100000*%
%ADD18R,1.750000X0.800000*%
%ADD19O,1.350000X1.650000*%
%ADD20O,1.950000X1.400000*%
%ADD21R,1.300000X1.200000*%
%ADD22R,1.100000X1.700000*%
%ADD23R,1.700000X1.100000*%
%ADD24R,0.900000X1.300000*%
%ADD25R,2.100000X1.400000*%
%ADD26R,1.500000X0.800000*%
%ADD27R,2.000000X0.960000*%
%ADD28R,0.960000X2.000000*%
%ADD29R,2.400000X4.200000*%
%ADD30R,2.400000X1.900000*%
%ADD31R,1.460000X1.050000*%
%ADD32R,2.000000X1.700000*%
%ADD33R,2.700000X2.900000*%
%ADD34C,3.600000*%
%ADD35R,1.250000X3.830000*%
G04 APERTURE END LIST*
D10*
D11*
X75565000Y-119380000D03*
X81765000Y-119380000D03*
X78665000Y-124380000D03*
D12*
X87630000Y-95377000D03*
X92030000Y-95377000D03*
D13*
X83820000Y-96155000D03*
X83820000Y-98155000D03*
X118810126Y-91360164D03*
X118810126Y-89360164D03*
X127065126Y-89376164D03*
X127065126Y-91376164D03*
X131191000Y-101235000D03*
X131191000Y-103235000D03*
X124460000Y-110744000D03*
X124460000Y-112744000D03*
D14*
X128397000Y-110300000D03*
X126397000Y-110300000D03*
X98949000Y-107823000D03*
X100949000Y-107823000D03*
X124900000Y-93700000D03*
X126900000Y-93700000D03*
D12*
X87040000Y-119380000D03*
X91440000Y-119380000D03*
D14*
X97933000Y-99695000D03*
X99933000Y-99695000D03*
D12*
X99355000Y-119380000D03*
X94955000Y-119380000D03*
D14*
X99806000Y-93726000D03*
X97806000Y-93726000D03*
D15*
X75500000Y-86360000D03*
X73300000Y-86360000D03*
X75479000Y-93980000D03*
X73279000Y-93980000D03*
X75479000Y-91440000D03*
X73279000Y-91440000D03*
X75479000Y-88900000D03*
X73279000Y-88900000D03*
D16*
X99060000Y-124460000D03*
D17*
X101600000Y-124460000D03*
X104140000Y-124460000D03*
X106680000Y-124460000D03*
X109220000Y-124460000D03*
X111760000Y-124460000D03*
X114300000Y-124460000D03*
X116840000Y-124460000D03*
D16*
X121920000Y-124460000D03*
D17*
X124460000Y-124460000D03*
X127000000Y-124460000D03*
X129540000Y-124460000D03*
X132080000Y-124460000D03*
X134620000Y-124460000D03*
D16*
X89916000Y-76200000D03*
D17*
X92456000Y-76200000D03*
X94996000Y-76200000D03*
X97536000Y-76200000D03*
X100076000Y-76200000D03*
X102616000Y-76200000D03*
X105156000Y-76200000D03*
X107696000Y-76200000D03*
X110236000Y-76200000D03*
X112776000Y-76200000D03*
D16*
X116840000Y-76200000D03*
D17*
X119380000Y-76200000D03*
X121920000Y-76200000D03*
X124460000Y-76200000D03*
X127000000Y-76200000D03*
X129540000Y-76200000D03*
X132080000Y-76200000D03*
X134620000Y-76200000D03*
D16*
X134620000Y-96520000D03*
D17*
X137160000Y-96520000D03*
X134620000Y-99060000D03*
X137160000Y-99060000D03*
X134620000Y-101600000D03*
X137160000Y-101600000D03*
D18*
X75725000Y-102165000D03*
X75725000Y-102815000D03*
X75725000Y-103465000D03*
X75725000Y-104115000D03*
X75725000Y-104765000D03*
D19*
X75725000Y-100965000D03*
X75725000Y-105965000D03*
D20*
X73025000Y-99965000D03*
X73025000Y-106965000D03*
D14*
X99790000Y-91313000D03*
X97790000Y-91313000D03*
X81423000Y-107950000D03*
X83423000Y-107950000D03*
D21*
X92869000Y-83124000D03*
X92869000Y-85024000D03*
X94869000Y-84074000D03*
D22*
X80010000Y-93980000D03*
X78110000Y-93980000D03*
X125404000Y-116621000D03*
X123504000Y-116621000D03*
X80010000Y-91440000D03*
X78110000Y-91440000D03*
X128899000Y-116621000D03*
X126999000Y-116621000D03*
X80005000Y-88900000D03*
X78105000Y-88900000D03*
D23*
X114000000Y-105900000D03*
X114000000Y-107800000D03*
D22*
X95520022Y-110296324D03*
X97420022Y-110296324D03*
X99015022Y-110296324D03*
X100915022Y-110296324D03*
X83185000Y-104140000D03*
X81285000Y-104140000D03*
X83185000Y-102235000D03*
X81285000Y-102235000D03*
X80005000Y-86360000D03*
X78105000Y-86360000D03*
D23*
X78740000Y-105095000D03*
X78740000Y-106995000D03*
D24*
X81165000Y-100330000D03*
X82665000Y-100330000D03*
X81165000Y-106045000D03*
X82665000Y-106045000D03*
D25*
X73050000Y-76840000D03*
X79350000Y-76840000D03*
X73050000Y-80640000D03*
X79350000Y-80640000D03*
D26*
X85607000Y-83226000D03*
X85607000Y-83876000D03*
X85607000Y-84526000D03*
X85607000Y-85176000D03*
X89907000Y-85176000D03*
X89907000Y-84526000D03*
X89907000Y-83876000D03*
X89907000Y-83226000D03*
D27*
X128350000Y-105900000D03*
X128350000Y-105100000D03*
X128350000Y-104300000D03*
X128350000Y-103500000D03*
X128350000Y-102700000D03*
X128350000Y-101900000D03*
X128350000Y-101100000D03*
X128350000Y-100300000D03*
X128350000Y-99500000D03*
X128350000Y-98700000D03*
X128350000Y-97900000D03*
D28*
X126500000Y-96050000D03*
X125700000Y-96050000D03*
X124900000Y-96050000D03*
X124100000Y-96050000D03*
X123300000Y-96050000D03*
X122500000Y-96050000D03*
X121700000Y-96050000D03*
X120900000Y-96050000D03*
X120100000Y-96050000D03*
X119300000Y-96050000D03*
X118500000Y-96050000D03*
D27*
X116650000Y-97900000D03*
X116650000Y-98700000D03*
X116650000Y-99500000D03*
X116650000Y-100300000D03*
X116650000Y-101100000D03*
X116650000Y-101900000D03*
X116650000Y-102700000D03*
X116650000Y-103500000D03*
X116650000Y-104300000D03*
X116650000Y-105100000D03*
X116650000Y-105900000D03*
D28*
X118500000Y-107750000D03*
X119300000Y-107750000D03*
X120100000Y-107750000D03*
X120900000Y-107750000D03*
X121700000Y-107750000D03*
X122500000Y-107750000D03*
X123300000Y-107750000D03*
X124100000Y-107750000D03*
X124900000Y-107750000D03*
X125700000Y-107750000D03*
X126500000Y-107750000D03*
D29*
X85775000Y-112635000D03*
D30*
X92075000Y-112635000D03*
X92075000Y-110335000D03*
X92075000Y-114935000D03*
D31*
X97749000Y-95758000D03*
X97749000Y-96708000D03*
X97749000Y-97658000D03*
X99949000Y-97658000D03*
X99949000Y-95758000D03*
D32*
X124525126Y-89392164D03*
X121225126Y-89392164D03*
X121225126Y-91392164D03*
X124525126Y-91392164D03*
D33*
X74041000Y-113656000D03*
X74041000Y-109356000D03*
D34*
X137160000Y-91440000D03*
X137160000Y-119380000D03*
X85090000Y-124460000D03*
X86360000Y-76200000D03*
D35*
X80300000Y-97000000D03*
X75700000Y-97000000D03*
M02*
