G04 #@! TF.FileFunction,Legend,Top*
%FSLAX46Y46*%
G04 Gerber Fmt 4.6, Leading zero omitted, Abs format (unit mm)*
G04 Created by KiCad (PCBNEW 4.0.7) date 10/12/17 20:03:31*
%MOMM*%
%LPD*%
G01*
G04 APERTURE LIST*
%ADD10C,0.100000*%
%ADD11C,0.200000*%
%ADD12C,0.300000*%
%ADD13C,0.150000*%
%ADD14C,0.120000*%
%ADD15C,0.254000*%
G04 APERTURE END LIST*
D10*
D11*
X101671429Y-122570905D02*
X101671429Y-121809000D01*
X102052381Y-122189952D02*
X101290476Y-122189952D01*
X101052381Y-120856619D02*
X101052381Y-121332810D01*
X101528571Y-121380429D01*
X101480952Y-121332810D01*
X101433333Y-121237572D01*
X101433333Y-120999476D01*
X101480952Y-120904238D01*
X101528571Y-120856619D01*
X101623810Y-120809000D01*
X101861905Y-120809000D01*
X101957143Y-120856619D01*
X102004762Y-120904238D01*
X102052381Y-120999476D01*
X102052381Y-121237572D01*
X102004762Y-121332810D01*
X101957143Y-121380429D01*
X101052381Y-120523286D02*
X102052381Y-120189953D01*
X101052381Y-119856619D01*
X104465381Y-121999476D02*
X103989190Y-122332810D01*
X104465381Y-122570905D02*
X103465381Y-122570905D01*
X103465381Y-122189952D01*
X103513000Y-122094714D01*
X103560619Y-122047095D01*
X103655857Y-121999476D01*
X103798714Y-121999476D01*
X103893952Y-122047095D01*
X103941571Y-122094714D01*
X103989190Y-122189952D01*
X103989190Y-122570905D01*
X104417762Y-121189952D02*
X104465381Y-121285190D01*
X104465381Y-121475667D01*
X104417762Y-121570905D01*
X104322524Y-121618524D01*
X103941571Y-121618524D01*
X103846333Y-121570905D01*
X103798714Y-121475667D01*
X103798714Y-121285190D01*
X103846333Y-121189952D01*
X103941571Y-121142333D01*
X104036810Y-121142333D01*
X104132048Y-121618524D01*
X104417762Y-120761381D02*
X104465381Y-120666143D01*
X104465381Y-120475667D01*
X104417762Y-120380428D01*
X104322524Y-120332809D01*
X104274905Y-120332809D01*
X104179667Y-120380428D01*
X104132048Y-120475667D01*
X104132048Y-120618524D01*
X104084429Y-120713762D01*
X103989190Y-120761381D01*
X103941571Y-120761381D01*
X103846333Y-120713762D01*
X103798714Y-120618524D01*
X103798714Y-120475667D01*
X103846333Y-120380428D01*
X104417762Y-119523285D02*
X104465381Y-119618523D01*
X104465381Y-119809000D01*
X104417762Y-119904238D01*
X104322524Y-119951857D01*
X103941571Y-119951857D01*
X103846333Y-119904238D01*
X103798714Y-119809000D01*
X103798714Y-119618523D01*
X103846333Y-119523285D01*
X103941571Y-119475666D01*
X104036810Y-119475666D01*
X104132048Y-119951857D01*
X103798714Y-119189952D02*
X103798714Y-118809000D01*
X103465381Y-119047095D02*
X104322524Y-119047095D01*
X104417762Y-118999476D01*
X104465381Y-118904238D01*
X104465381Y-118809000D01*
X106751429Y-122570905D02*
X106751429Y-121809000D01*
X107132381Y-122189952D02*
X106370476Y-122189952D01*
X106132381Y-121428048D02*
X106132381Y-120809000D01*
X106513333Y-121142334D01*
X106513333Y-120999476D01*
X106560952Y-120904238D01*
X106608571Y-120856619D01*
X106703810Y-120809000D01*
X106941905Y-120809000D01*
X107037143Y-120856619D01*
X107084762Y-120904238D01*
X107132381Y-120999476D01*
X107132381Y-121285191D01*
X107084762Y-121380429D01*
X107037143Y-121428048D01*
X106132381Y-120523286D02*
X107132381Y-120189953D01*
X106132381Y-119856619D01*
X106132381Y-119618524D02*
X106132381Y-118999476D01*
X106513333Y-119332810D01*
X106513333Y-119189952D01*
X106560952Y-119094714D01*
X106608571Y-119047095D01*
X106703810Y-118999476D01*
X106941905Y-118999476D01*
X107037143Y-119047095D01*
X107084762Y-119094714D01*
X107132381Y-119189952D01*
X107132381Y-119475667D01*
X107084762Y-119570905D01*
X107037143Y-119618524D01*
X109291429Y-122570905D02*
X109291429Y-121809000D01*
X109672381Y-122189952D02*
X108910476Y-122189952D01*
X108672381Y-120856619D02*
X108672381Y-121332810D01*
X109148571Y-121380429D01*
X109100952Y-121332810D01*
X109053333Y-121237572D01*
X109053333Y-120999476D01*
X109100952Y-120904238D01*
X109148571Y-120856619D01*
X109243810Y-120809000D01*
X109481905Y-120809000D01*
X109577143Y-120856619D01*
X109624762Y-120904238D01*
X109672381Y-120999476D01*
X109672381Y-121237572D01*
X109624762Y-121332810D01*
X109577143Y-121380429D01*
X108672381Y-120523286D02*
X109672381Y-120189953D01*
X108672381Y-119856619D01*
X111260000Y-122047095D02*
X111212381Y-122142333D01*
X111212381Y-122285190D01*
X111260000Y-122428048D01*
X111355238Y-122523286D01*
X111450476Y-122570905D01*
X111640952Y-122618524D01*
X111783810Y-122618524D01*
X111974286Y-122570905D01*
X112069524Y-122523286D01*
X112164762Y-122428048D01*
X112212381Y-122285190D01*
X112212381Y-122189952D01*
X112164762Y-122047095D01*
X112117143Y-121999476D01*
X111783810Y-121999476D01*
X111783810Y-122189952D01*
X112212381Y-121570905D02*
X111212381Y-121570905D01*
X112212381Y-120999476D01*
X111212381Y-120999476D01*
X112212381Y-120523286D02*
X111212381Y-120523286D01*
X111212381Y-120285191D01*
X111260000Y-120142333D01*
X111355238Y-120047095D01*
X111450476Y-119999476D01*
X111640952Y-119951857D01*
X111783810Y-119951857D01*
X111974286Y-119999476D01*
X112069524Y-120047095D01*
X112164762Y-120142333D01*
X112212381Y-120285191D01*
X112212381Y-120523286D01*
X113800000Y-122047095D02*
X113752381Y-122142333D01*
X113752381Y-122285190D01*
X113800000Y-122428048D01*
X113895238Y-122523286D01*
X113990476Y-122570905D01*
X114180952Y-122618524D01*
X114323810Y-122618524D01*
X114514286Y-122570905D01*
X114609524Y-122523286D01*
X114704762Y-122428048D01*
X114752381Y-122285190D01*
X114752381Y-122189952D01*
X114704762Y-122047095D01*
X114657143Y-121999476D01*
X114323810Y-121999476D01*
X114323810Y-122189952D01*
X114752381Y-121570905D02*
X113752381Y-121570905D01*
X114752381Y-120999476D01*
X113752381Y-120999476D01*
X114752381Y-120523286D02*
X113752381Y-120523286D01*
X113752381Y-120285191D01*
X113800000Y-120142333D01*
X113895238Y-120047095D01*
X113990476Y-119999476D01*
X114180952Y-119951857D01*
X114323810Y-119951857D01*
X114514286Y-119999476D01*
X114609524Y-120047095D01*
X114704762Y-120142333D01*
X114752381Y-120285191D01*
X114752381Y-120523286D01*
X116292381Y-122713762D02*
X117292381Y-122380429D01*
X116292381Y-122047095D01*
X117292381Y-121713762D02*
X116292381Y-121713762D01*
X117292381Y-121237572D02*
X116292381Y-121237572D01*
X117292381Y-120666143D01*
X116292381Y-120666143D01*
X134786667Y-122618524D02*
X134786667Y-122142333D01*
X135072381Y-122713762D02*
X134072381Y-122380429D01*
X135072381Y-122047095D01*
X134072381Y-121237571D02*
X134072381Y-121713762D01*
X134548571Y-121761381D01*
X134500952Y-121713762D01*
X134453333Y-121618524D01*
X134453333Y-121380428D01*
X134500952Y-121285190D01*
X134548571Y-121237571D01*
X134643810Y-121189952D01*
X134881905Y-121189952D01*
X134977143Y-121237571D01*
X135024762Y-121285190D01*
X135072381Y-121380428D01*
X135072381Y-121618524D01*
X135024762Y-121713762D01*
X134977143Y-121761381D01*
X132246667Y-122618524D02*
X132246667Y-122142333D01*
X132532381Y-122713762D02*
X131532381Y-122380429D01*
X132532381Y-122047095D01*
X131865714Y-121285190D02*
X132532381Y-121285190D01*
X131484762Y-121523286D02*
X132199048Y-121761381D01*
X132199048Y-121142333D01*
X129706667Y-122618524D02*
X129706667Y-122142333D01*
X129992381Y-122713762D02*
X128992381Y-122380429D01*
X129992381Y-122047095D01*
X128992381Y-121809000D02*
X128992381Y-121189952D01*
X129373333Y-121523286D01*
X129373333Y-121380428D01*
X129420952Y-121285190D01*
X129468571Y-121237571D01*
X129563810Y-121189952D01*
X129801905Y-121189952D01*
X129897143Y-121237571D01*
X129944762Y-121285190D01*
X129992381Y-121380428D01*
X129992381Y-121666143D01*
X129944762Y-121761381D01*
X129897143Y-121809000D01*
X127166667Y-122618524D02*
X127166667Y-122142333D01*
X127452381Y-122713762D02*
X126452381Y-122380429D01*
X127452381Y-122047095D01*
X126547619Y-121761381D02*
X126500000Y-121713762D01*
X126452381Y-121618524D01*
X126452381Y-121380428D01*
X126500000Y-121285190D01*
X126547619Y-121237571D01*
X126642857Y-121189952D01*
X126738095Y-121189952D01*
X126880952Y-121237571D01*
X127452381Y-121809000D01*
X127452381Y-121189952D01*
X124626667Y-122618524D02*
X124626667Y-122142333D01*
X124912381Y-122713762D02*
X123912381Y-122380429D01*
X124912381Y-122047095D01*
X124912381Y-121189952D02*
X124912381Y-121761381D01*
X124912381Y-121475667D02*
X123912381Y-121475667D01*
X124055238Y-121570905D01*
X124150476Y-121666143D01*
X124198095Y-121761381D01*
X122086667Y-122618524D02*
X122086667Y-122142333D01*
X122372381Y-122713762D02*
X121372381Y-122380429D01*
X122372381Y-122047095D01*
X121372381Y-121523286D02*
X121372381Y-121428047D01*
X121420000Y-121332809D01*
X121467619Y-121285190D01*
X121562857Y-121237571D01*
X121753333Y-121189952D01*
X121991429Y-121189952D01*
X122181905Y-121237571D01*
X122277143Y-121285190D01*
X122324762Y-121332809D01*
X122372381Y-121428047D01*
X122372381Y-121523286D01*
X122324762Y-121618524D01*
X122277143Y-121666143D01*
X122181905Y-121713762D01*
X121991429Y-121761381D01*
X121753333Y-121761381D01*
X121562857Y-121713762D01*
X121467619Y-121666143D01*
X121420000Y-121618524D01*
X121372381Y-121523286D01*
X135072381Y-79565286D02*
X134072381Y-79565286D01*
X134072381Y-79327191D01*
X134120000Y-79184333D01*
X134215238Y-79089095D01*
X134310476Y-79041476D01*
X134500952Y-78993857D01*
X134643810Y-78993857D01*
X134834286Y-79041476D01*
X134929524Y-79089095D01*
X135024762Y-79184333D01*
X135072381Y-79327191D01*
X135072381Y-79565286D01*
X134072381Y-78374810D02*
X134072381Y-78279571D01*
X134120000Y-78184333D01*
X134167619Y-78136714D01*
X134262857Y-78089095D01*
X134453333Y-78041476D01*
X134691429Y-78041476D01*
X134881905Y-78089095D01*
X134977143Y-78136714D01*
X135024762Y-78184333D01*
X135072381Y-78279571D01*
X135072381Y-78374810D01*
X135024762Y-78470048D01*
X134977143Y-78517667D01*
X134881905Y-78565286D01*
X134691429Y-78612905D01*
X134453333Y-78612905D01*
X134262857Y-78565286D01*
X134167619Y-78517667D01*
X134120000Y-78470048D01*
X134072381Y-78374810D01*
X132532381Y-79565286D02*
X131532381Y-79565286D01*
X131532381Y-79327191D01*
X131580000Y-79184333D01*
X131675238Y-79089095D01*
X131770476Y-79041476D01*
X131960952Y-78993857D01*
X132103810Y-78993857D01*
X132294286Y-79041476D01*
X132389524Y-79089095D01*
X132484762Y-79184333D01*
X132532381Y-79327191D01*
X132532381Y-79565286D01*
X132532381Y-78041476D02*
X132532381Y-78612905D01*
X132532381Y-78327191D02*
X131532381Y-78327191D01*
X131675238Y-78422429D01*
X131770476Y-78517667D01*
X131818095Y-78612905D01*
X129992381Y-79565286D02*
X128992381Y-79565286D01*
X128992381Y-79327191D01*
X129040000Y-79184333D01*
X129135238Y-79089095D01*
X129230476Y-79041476D01*
X129420952Y-78993857D01*
X129563810Y-78993857D01*
X129754286Y-79041476D01*
X129849524Y-79089095D01*
X129944762Y-79184333D01*
X129992381Y-79327191D01*
X129992381Y-79565286D01*
X129087619Y-78612905D02*
X129040000Y-78565286D01*
X128992381Y-78470048D01*
X128992381Y-78231952D01*
X129040000Y-78136714D01*
X129087619Y-78089095D01*
X129182857Y-78041476D01*
X129278095Y-78041476D01*
X129420952Y-78089095D01*
X129992381Y-78660524D01*
X129992381Y-78041476D01*
X127452381Y-79565286D02*
X126452381Y-79565286D01*
X126452381Y-79327191D01*
X126500000Y-79184333D01*
X126595238Y-79089095D01*
X126690476Y-79041476D01*
X126880952Y-78993857D01*
X127023810Y-78993857D01*
X127214286Y-79041476D01*
X127309524Y-79089095D01*
X127404762Y-79184333D01*
X127452381Y-79327191D01*
X127452381Y-79565286D01*
X126452381Y-78660524D02*
X126452381Y-78041476D01*
X126833333Y-78374810D01*
X126833333Y-78231952D01*
X126880952Y-78136714D01*
X126928571Y-78089095D01*
X127023810Y-78041476D01*
X127261905Y-78041476D01*
X127357143Y-78089095D01*
X127404762Y-78136714D01*
X127452381Y-78231952D01*
X127452381Y-78517667D01*
X127404762Y-78612905D01*
X127357143Y-78660524D01*
X124912381Y-79565286D02*
X123912381Y-79565286D01*
X123912381Y-79327191D01*
X123960000Y-79184333D01*
X124055238Y-79089095D01*
X124150476Y-79041476D01*
X124340952Y-78993857D01*
X124483810Y-78993857D01*
X124674286Y-79041476D01*
X124769524Y-79089095D01*
X124864762Y-79184333D01*
X124912381Y-79327191D01*
X124912381Y-79565286D01*
X124245714Y-78136714D02*
X124912381Y-78136714D01*
X123864762Y-78374810D02*
X124579048Y-78612905D01*
X124579048Y-77993857D01*
X122372381Y-79565286D02*
X121372381Y-79565286D01*
X121372381Y-79327191D01*
X121420000Y-79184333D01*
X121515238Y-79089095D01*
X121610476Y-79041476D01*
X121800952Y-78993857D01*
X121943810Y-78993857D01*
X122134286Y-79041476D01*
X122229524Y-79089095D01*
X122324762Y-79184333D01*
X122372381Y-79327191D01*
X122372381Y-79565286D01*
X121372381Y-78089095D02*
X121372381Y-78565286D01*
X121848571Y-78612905D01*
X121800952Y-78565286D01*
X121753333Y-78470048D01*
X121753333Y-78231952D01*
X121800952Y-78136714D01*
X121848571Y-78089095D01*
X121943810Y-78041476D01*
X122181905Y-78041476D01*
X122277143Y-78089095D01*
X122324762Y-78136714D01*
X122372381Y-78231952D01*
X122372381Y-78470048D01*
X122324762Y-78565286D01*
X122277143Y-78612905D01*
X119832381Y-79565286D02*
X118832381Y-79565286D01*
X118832381Y-79327191D01*
X118880000Y-79184333D01*
X118975238Y-79089095D01*
X119070476Y-79041476D01*
X119260952Y-78993857D01*
X119403810Y-78993857D01*
X119594286Y-79041476D01*
X119689524Y-79089095D01*
X119784762Y-79184333D01*
X119832381Y-79327191D01*
X119832381Y-79565286D01*
X118832381Y-78136714D02*
X118832381Y-78327191D01*
X118880000Y-78422429D01*
X118927619Y-78470048D01*
X119070476Y-78565286D01*
X119260952Y-78612905D01*
X119641905Y-78612905D01*
X119737143Y-78565286D01*
X119784762Y-78517667D01*
X119832381Y-78422429D01*
X119832381Y-78231952D01*
X119784762Y-78136714D01*
X119737143Y-78089095D01*
X119641905Y-78041476D01*
X119403810Y-78041476D01*
X119308571Y-78089095D01*
X119260952Y-78136714D01*
X119213333Y-78231952D01*
X119213333Y-78422429D01*
X119260952Y-78517667D01*
X119308571Y-78565286D01*
X119403810Y-78612905D01*
X117292381Y-79565286D02*
X116292381Y-79565286D01*
X116292381Y-79327191D01*
X116340000Y-79184333D01*
X116435238Y-79089095D01*
X116530476Y-79041476D01*
X116720952Y-78993857D01*
X116863810Y-78993857D01*
X117054286Y-79041476D01*
X117149524Y-79089095D01*
X117244762Y-79184333D01*
X117292381Y-79327191D01*
X117292381Y-79565286D01*
X116292381Y-78660524D02*
X116292381Y-77993857D01*
X117292381Y-78422429D01*
X113228381Y-79565286D02*
X112228381Y-79565286D01*
X112228381Y-79327191D01*
X112276000Y-79184333D01*
X112371238Y-79089095D01*
X112466476Y-79041476D01*
X112656952Y-78993857D01*
X112799810Y-78993857D01*
X112990286Y-79041476D01*
X113085524Y-79089095D01*
X113180762Y-79184333D01*
X113228381Y-79327191D01*
X113228381Y-79565286D01*
X112656952Y-78422429D02*
X112609333Y-78517667D01*
X112561714Y-78565286D01*
X112466476Y-78612905D01*
X112418857Y-78612905D01*
X112323619Y-78565286D01*
X112276000Y-78517667D01*
X112228381Y-78422429D01*
X112228381Y-78231952D01*
X112276000Y-78136714D01*
X112323619Y-78089095D01*
X112418857Y-78041476D01*
X112466476Y-78041476D01*
X112561714Y-78089095D01*
X112609333Y-78136714D01*
X112656952Y-78231952D01*
X112656952Y-78422429D01*
X112704571Y-78517667D01*
X112752190Y-78565286D01*
X112847429Y-78612905D01*
X113037905Y-78612905D01*
X113133143Y-78565286D01*
X113180762Y-78517667D01*
X113228381Y-78422429D01*
X113228381Y-78231952D01*
X113180762Y-78136714D01*
X113133143Y-78089095D01*
X113037905Y-78041476D01*
X112847429Y-78041476D01*
X112752190Y-78089095D01*
X112704571Y-78136714D01*
X112656952Y-78231952D01*
X110688381Y-79565286D02*
X109688381Y-79565286D01*
X109688381Y-79327191D01*
X109736000Y-79184333D01*
X109831238Y-79089095D01*
X109926476Y-79041476D01*
X110116952Y-78993857D01*
X110259810Y-78993857D01*
X110450286Y-79041476D01*
X110545524Y-79089095D01*
X110640762Y-79184333D01*
X110688381Y-79327191D01*
X110688381Y-79565286D01*
X110688381Y-78517667D02*
X110688381Y-78327191D01*
X110640762Y-78231952D01*
X110593143Y-78184333D01*
X110450286Y-78089095D01*
X110259810Y-78041476D01*
X109878857Y-78041476D01*
X109783619Y-78089095D01*
X109736000Y-78136714D01*
X109688381Y-78231952D01*
X109688381Y-78422429D01*
X109736000Y-78517667D01*
X109783619Y-78565286D01*
X109878857Y-78612905D01*
X110116952Y-78612905D01*
X110212190Y-78565286D01*
X110259810Y-78517667D01*
X110307429Y-78422429D01*
X110307429Y-78231952D01*
X110259810Y-78136714D01*
X110212190Y-78089095D01*
X110116952Y-78041476D01*
X108148381Y-80517667D02*
X107148381Y-80517667D01*
X107148381Y-80279572D01*
X107196000Y-80136714D01*
X107291238Y-80041476D01*
X107386476Y-79993857D01*
X107576952Y-79946238D01*
X107719810Y-79946238D01*
X107910286Y-79993857D01*
X108005524Y-80041476D01*
X108100762Y-80136714D01*
X108148381Y-80279572D01*
X108148381Y-80517667D01*
X108148381Y-78993857D02*
X108148381Y-79565286D01*
X108148381Y-79279572D02*
X107148381Y-79279572D01*
X107291238Y-79374810D01*
X107386476Y-79470048D01*
X107434095Y-79565286D01*
X107148381Y-78374810D02*
X107148381Y-78279571D01*
X107196000Y-78184333D01*
X107243619Y-78136714D01*
X107338857Y-78089095D01*
X107529333Y-78041476D01*
X107767429Y-78041476D01*
X107957905Y-78089095D01*
X108053143Y-78136714D01*
X108100762Y-78184333D01*
X108148381Y-78279571D01*
X108148381Y-78374810D01*
X108100762Y-78470048D01*
X108053143Y-78517667D01*
X107957905Y-78565286D01*
X107767429Y-78612905D01*
X107529333Y-78612905D01*
X107338857Y-78565286D01*
X107243619Y-78517667D01*
X107196000Y-78470048D01*
X107148381Y-78374810D01*
X105608381Y-80517667D02*
X104608381Y-80517667D01*
X104608381Y-80279572D01*
X104656000Y-80136714D01*
X104751238Y-80041476D01*
X104846476Y-79993857D01*
X105036952Y-79946238D01*
X105179810Y-79946238D01*
X105370286Y-79993857D01*
X105465524Y-80041476D01*
X105560762Y-80136714D01*
X105608381Y-80279572D01*
X105608381Y-80517667D01*
X105608381Y-78993857D02*
X105608381Y-79565286D01*
X105608381Y-79279572D02*
X104608381Y-79279572D01*
X104751238Y-79374810D01*
X104846476Y-79470048D01*
X104894095Y-79565286D01*
X105608381Y-78041476D02*
X105608381Y-78612905D01*
X105608381Y-78327191D02*
X104608381Y-78327191D01*
X104751238Y-78422429D01*
X104846476Y-78517667D01*
X104894095Y-78612905D01*
X103068381Y-80517667D02*
X102068381Y-80517667D01*
X102068381Y-80279572D01*
X102116000Y-80136714D01*
X102211238Y-80041476D01*
X102306476Y-79993857D01*
X102496952Y-79946238D01*
X102639810Y-79946238D01*
X102830286Y-79993857D01*
X102925524Y-80041476D01*
X103020762Y-80136714D01*
X103068381Y-80279572D01*
X103068381Y-80517667D01*
X103068381Y-78993857D02*
X103068381Y-79565286D01*
X103068381Y-79279572D02*
X102068381Y-79279572D01*
X102211238Y-79374810D01*
X102306476Y-79470048D01*
X102354095Y-79565286D01*
X102163619Y-78612905D02*
X102116000Y-78565286D01*
X102068381Y-78470048D01*
X102068381Y-78231952D01*
X102116000Y-78136714D01*
X102163619Y-78089095D01*
X102258857Y-78041476D01*
X102354095Y-78041476D01*
X102496952Y-78089095D01*
X103068381Y-78660524D01*
X103068381Y-78041476D01*
X100528381Y-80517667D02*
X99528381Y-80517667D01*
X99528381Y-80279572D01*
X99576000Y-80136714D01*
X99671238Y-80041476D01*
X99766476Y-79993857D01*
X99956952Y-79946238D01*
X100099810Y-79946238D01*
X100290286Y-79993857D01*
X100385524Y-80041476D01*
X100480762Y-80136714D01*
X100528381Y-80279572D01*
X100528381Y-80517667D01*
X100528381Y-78993857D02*
X100528381Y-79565286D01*
X100528381Y-79279572D02*
X99528381Y-79279572D01*
X99671238Y-79374810D01*
X99766476Y-79470048D01*
X99814095Y-79565286D01*
X99528381Y-78660524D02*
X99528381Y-78041476D01*
X99909333Y-78374810D01*
X99909333Y-78231952D01*
X99956952Y-78136714D01*
X100004571Y-78089095D01*
X100099810Y-78041476D01*
X100337905Y-78041476D01*
X100433143Y-78089095D01*
X100480762Y-78136714D01*
X100528381Y-78231952D01*
X100528381Y-78517667D01*
X100480762Y-78612905D01*
X100433143Y-78660524D01*
X97036000Y-80136714D02*
X96988381Y-80231952D01*
X96988381Y-80374809D01*
X97036000Y-80517667D01*
X97131238Y-80612905D01*
X97226476Y-80660524D01*
X97416952Y-80708143D01*
X97559810Y-80708143D01*
X97750286Y-80660524D01*
X97845524Y-80612905D01*
X97940762Y-80517667D01*
X97988381Y-80374809D01*
X97988381Y-80279571D01*
X97940762Y-80136714D01*
X97893143Y-80089095D01*
X97559810Y-80089095D01*
X97559810Y-80279571D01*
X97988381Y-79660524D02*
X96988381Y-79660524D01*
X97988381Y-79089095D01*
X96988381Y-79089095D01*
X97988381Y-78612905D02*
X96988381Y-78612905D01*
X96988381Y-78374810D01*
X97036000Y-78231952D01*
X97131238Y-78136714D01*
X97226476Y-78089095D01*
X97416952Y-78041476D01*
X97559810Y-78041476D01*
X97750286Y-78089095D01*
X97845524Y-78136714D01*
X97940762Y-78231952D01*
X97988381Y-78374810D01*
X97988381Y-78612905D01*
X95162667Y-81279572D02*
X95162667Y-80803381D01*
X95448381Y-81374810D02*
X94448381Y-81041477D01*
X95448381Y-80708143D01*
X95448381Y-79803381D02*
X94972190Y-80136715D01*
X95448381Y-80374810D02*
X94448381Y-80374810D01*
X94448381Y-79993857D01*
X94496000Y-79898619D01*
X94543619Y-79851000D01*
X94638857Y-79803381D01*
X94781714Y-79803381D01*
X94876952Y-79851000D01*
X94924571Y-79898619D01*
X94972190Y-79993857D01*
X94972190Y-80374810D01*
X94924571Y-79374810D02*
X94924571Y-79041476D01*
X95448381Y-78898619D02*
X95448381Y-79374810D01*
X94448381Y-79374810D01*
X94448381Y-78898619D01*
X94924571Y-78136714D02*
X94924571Y-78470048D01*
X95448381Y-78470048D02*
X94448381Y-78470048D01*
X94448381Y-77993857D01*
X92860762Y-80470048D02*
X92908381Y-80327191D01*
X92908381Y-80089095D01*
X92860762Y-79993857D01*
X92813143Y-79946238D01*
X92717905Y-79898619D01*
X92622667Y-79898619D01*
X92527429Y-79946238D01*
X92479810Y-79993857D01*
X92432190Y-80089095D01*
X92384571Y-80279572D01*
X92336952Y-80374810D01*
X92289333Y-80422429D01*
X92194095Y-80470048D01*
X92098857Y-80470048D01*
X92003619Y-80422429D01*
X91956000Y-80374810D01*
X91908381Y-80279572D01*
X91908381Y-80041476D01*
X91956000Y-79898619D01*
X92908381Y-79470048D02*
X91908381Y-79470048D01*
X91908381Y-79231953D01*
X91956000Y-79089095D01*
X92051238Y-78993857D01*
X92146476Y-78946238D01*
X92336952Y-78898619D01*
X92479810Y-78898619D01*
X92670286Y-78946238D01*
X92765524Y-78993857D01*
X92860762Y-79089095D01*
X92908381Y-79231953D01*
X92908381Y-79470048D01*
X92622667Y-78517667D02*
X92622667Y-78041476D01*
X92908381Y-78612905D02*
X91908381Y-78279572D01*
X92908381Y-77946238D01*
X90320762Y-80422429D02*
X90368381Y-80279572D01*
X90368381Y-80041476D01*
X90320762Y-79946238D01*
X90273143Y-79898619D01*
X90177905Y-79851000D01*
X90082667Y-79851000D01*
X89987429Y-79898619D01*
X89939810Y-79946238D01*
X89892190Y-80041476D01*
X89844571Y-80231953D01*
X89796952Y-80327191D01*
X89749333Y-80374810D01*
X89654095Y-80422429D01*
X89558857Y-80422429D01*
X89463619Y-80374810D01*
X89416000Y-80327191D01*
X89368381Y-80231953D01*
X89368381Y-79993857D01*
X89416000Y-79851000D01*
X90273143Y-78851000D02*
X90320762Y-78898619D01*
X90368381Y-79041476D01*
X90368381Y-79136714D01*
X90320762Y-79279572D01*
X90225524Y-79374810D01*
X90130286Y-79422429D01*
X89939810Y-79470048D01*
X89796952Y-79470048D01*
X89606476Y-79422429D01*
X89511238Y-79374810D01*
X89416000Y-79279572D01*
X89368381Y-79136714D01*
X89368381Y-79041476D01*
X89416000Y-78898619D01*
X89463619Y-78851000D01*
X90368381Y-77946238D02*
X90368381Y-78422429D01*
X89368381Y-78422429D01*
X74841287Y-75599857D02*
X74441287Y-75028429D01*
X74155572Y-75599857D02*
X74155572Y-74399857D01*
X74612715Y-74399857D01*
X74727001Y-74457000D01*
X74784144Y-74514143D01*
X74841287Y-74628429D01*
X74841287Y-74799857D01*
X74784144Y-74914143D01*
X74727001Y-74971286D01*
X74612715Y-75028429D01*
X74155572Y-75028429D01*
X75812715Y-75542714D02*
X75698429Y-75599857D01*
X75469858Y-75599857D01*
X75355572Y-75542714D01*
X75298429Y-75428429D01*
X75298429Y-74971286D01*
X75355572Y-74857000D01*
X75469858Y-74799857D01*
X75698429Y-74799857D01*
X75812715Y-74857000D01*
X75869858Y-74971286D01*
X75869858Y-75085571D01*
X75298429Y-75199857D01*
X76327000Y-75542714D02*
X76441286Y-75599857D01*
X76669858Y-75599857D01*
X76784143Y-75542714D01*
X76841286Y-75428429D01*
X76841286Y-75371286D01*
X76784143Y-75257000D01*
X76669858Y-75199857D01*
X76498429Y-75199857D01*
X76384143Y-75142714D01*
X76327000Y-75028429D01*
X76327000Y-74971286D01*
X76384143Y-74857000D01*
X76498429Y-74799857D01*
X76669858Y-74799857D01*
X76784143Y-74857000D01*
X77812715Y-75542714D02*
X77698429Y-75599857D01*
X77469858Y-75599857D01*
X77355572Y-75542714D01*
X77298429Y-75428429D01*
X77298429Y-74971286D01*
X77355572Y-74857000D01*
X77469858Y-74799857D01*
X77698429Y-74799857D01*
X77812715Y-74857000D01*
X77869858Y-74971286D01*
X77869858Y-75085571D01*
X77298429Y-75199857D01*
X78212715Y-74799857D02*
X78669858Y-74799857D01*
X78384143Y-74399857D02*
X78384143Y-75428429D01*
X78441286Y-75542714D01*
X78555572Y-75599857D01*
X78669858Y-75599857D01*
X71393095Y-85388571D02*
X72193095Y-85388571D01*
X72193095Y-85579047D01*
X72155000Y-85693333D01*
X72078810Y-85769524D01*
X72002619Y-85807619D01*
X71850238Y-85845714D01*
X71735952Y-85845714D01*
X71583571Y-85807619D01*
X71507381Y-85769524D01*
X71431190Y-85693333D01*
X71393095Y-85579047D01*
X71393095Y-85388571D01*
X71393095Y-86607619D02*
X71393095Y-86150476D01*
X71393095Y-86379047D02*
X72193095Y-86379047D01*
X72078810Y-86302857D01*
X72002619Y-86226666D01*
X71964524Y-86150476D01*
X72193095Y-86874286D02*
X72193095Y-87369524D01*
X71888333Y-87102857D01*
X71888333Y-87217143D01*
X71850238Y-87293333D01*
X71812143Y-87331429D01*
X71735952Y-87369524D01*
X71545476Y-87369524D01*
X71469286Y-87331429D01*
X71431190Y-87293333D01*
X71393095Y-87217143D01*
X71393095Y-86988571D01*
X71431190Y-86912381D01*
X71469286Y-86874286D01*
X71393095Y-88023810D02*
X72193095Y-88023810D01*
X72193095Y-88328572D01*
X72155000Y-88404763D01*
X72116905Y-88442858D01*
X72040714Y-88480953D01*
X71926429Y-88480953D01*
X71850238Y-88442858D01*
X71812143Y-88404763D01*
X71774048Y-88328572D01*
X71774048Y-88023810D01*
X71926429Y-88747620D02*
X71393095Y-88900001D01*
X71774048Y-89052382D01*
X71393095Y-89204763D01*
X71926429Y-89357144D01*
X71393095Y-89661905D02*
X71926429Y-89661905D01*
X71774048Y-89661905D02*
X71850238Y-89700000D01*
X71888333Y-89738096D01*
X71926429Y-89814286D01*
X71926429Y-89890477D01*
X71393095Y-91363810D02*
X71774048Y-91097143D01*
X71393095Y-90906667D02*
X72193095Y-90906667D01*
X72193095Y-91211429D01*
X72155000Y-91287620D01*
X72116905Y-91325715D01*
X72040714Y-91363810D01*
X71926429Y-91363810D01*
X71850238Y-91325715D01*
X71812143Y-91287620D01*
X71774048Y-91211429D01*
X71774048Y-90906667D01*
X71393095Y-91630477D02*
X71926429Y-92049524D01*
X71926429Y-91630477D02*
X71393095Y-92049524D01*
X72193095Y-93427619D02*
X72193095Y-93884762D01*
X71393095Y-93656191D02*
X72193095Y-93656191D01*
X71393095Y-94075239D02*
X71926429Y-94494286D01*
X71926429Y-94075239D02*
X71393095Y-94494286D01*
D12*
X134425715Y-105326571D02*
X134425715Y-103826571D01*
X135068572Y-105255143D02*
X135282858Y-105326571D01*
X135640001Y-105326571D01*
X135782858Y-105255143D01*
X135854287Y-105183714D01*
X135925715Y-105040857D01*
X135925715Y-104898000D01*
X135854287Y-104755143D01*
X135782858Y-104683714D01*
X135640001Y-104612286D01*
X135354287Y-104540857D01*
X135211429Y-104469429D01*
X135140001Y-104398000D01*
X135068572Y-104255143D01*
X135068572Y-104112286D01*
X135140001Y-103969429D01*
X135211429Y-103898000D01*
X135354287Y-103826571D01*
X135711429Y-103826571D01*
X135925715Y-103898000D01*
X136568572Y-105326571D02*
X136568572Y-103826571D01*
X137140000Y-103826571D01*
X137282858Y-103898000D01*
X137354286Y-103969429D01*
X137425715Y-104112286D01*
X137425715Y-104326571D01*
X137354286Y-104469429D01*
X137282858Y-104540857D01*
X137140000Y-104612286D01*
X136568572Y-104612286D01*
D13*
X82565000Y-122880000D02*
X79065000Y-122880000D01*
X82565000Y-115880000D02*
X82565000Y-122880000D01*
X79065000Y-115880000D02*
X82565000Y-115880000D01*
X79065000Y-123380000D02*
X71065000Y-123380000D01*
X79065000Y-115380000D02*
X79065000Y-123380000D01*
X71065000Y-115380000D02*
X79065000Y-115380000D01*
X68065000Y-123380000D02*
X68065000Y-119380000D01*
X71065000Y-123380000D02*
X68065000Y-123380000D01*
X71065000Y-115380000D02*
X71065000Y-123380000D01*
X68065000Y-115380000D02*
X71065000Y-115380000D01*
X68065000Y-119380000D02*
X68065000Y-115380000D01*
D14*
X92500000Y-98047000D02*
X92500000Y-96497000D01*
X92500000Y-92707000D02*
X92500000Y-94257000D01*
X87160000Y-93467000D02*
X87160000Y-94257000D01*
X87160000Y-97287000D02*
X87160000Y-96497000D01*
X92500000Y-92707000D02*
X87920000Y-92707000D01*
X87920000Y-92707000D02*
X87160000Y-93467000D01*
X87160000Y-97287000D02*
X87920000Y-98047000D01*
X87920000Y-98047000D02*
X92500000Y-98047000D01*
X84670000Y-97655000D02*
X84670000Y-96655000D01*
X82970000Y-96655000D02*
X82970000Y-97655000D01*
X117960126Y-89860164D02*
X117960126Y-90860164D01*
X119660126Y-90860164D02*
X119660126Y-89860164D01*
X127915126Y-90876164D02*
X127915126Y-89876164D01*
X126215126Y-89876164D02*
X126215126Y-90876164D01*
X132041000Y-102735000D02*
X132041000Y-101735000D01*
X130341000Y-101735000D02*
X130341000Y-102735000D01*
X125310000Y-112244000D02*
X125310000Y-111244000D01*
X123610000Y-111244000D02*
X123610000Y-112244000D01*
X126897000Y-111150000D02*
X127897000Y-111150000D01*
X127897000Y-109450000D02*
X126897000Y-109450000D01*
X100449000Y-106973000D02*
X99449000Y-106973000D01*
X99449000Y-108673000D02*
X100449000Y-108673000D01*
X126400000Y-92850000D02*
X125400000Y-92850000D01*
X125400000Y-94550000D02*
X126400000Y-94550000D01*
X91910000Y-122050000D02*
X91910000Y-120500000D01*
X91910000Y-116710000D02*
X91910000Y-118260000D01*
X86570000Y-117470000D02*
X86570000Y-118260000D01*
X86570000Y-121290000D02*
X86570000Y-120500000D01*
X91910000Y-116710000D02*
X87330000Y-116710000D01*
X87330000Y-116710000D02*
X86570000Y-117470000D01*
X86570000Y-121290000D02*
X87330000Y-122050000D01*
X87330000Y-122050000D02*
X91910000Y-122050000D01*
X99433000Y-98845000D02*
X98433000Y-98845000D01*
X98433000Y-100545000D02*
X99433000Y-100545000D01*
X94485000Y-116710000D02*
X94485000Y-118260000D01*
X94485000Y-122050000D02*
X94485000Y-120500000D01*
X99825000Y-121290000D02*
X99825000Y-120500000D01*
X99825000Y-117470000D02*
X99825000Y-118260000D01*
X94485000Y-122050000D02*
X99065000Y-122050000D01*
X99065000Y-122050000D02*
X99825000Y-121290000D01*
X99825000Y-117470000D02*
X99065000Y-116710000D01*
X99065000Y-116710000D02*
X94485000Y-116710000D01*
X98306000Y-94576000D02*
X99306000Y-94576000D01*
X99306000Y-92876000D02*
X98306000Y-92876000D01*
X72600000Y-85660000D02*
X72600000Y-87060000D01*
X72600000Y-87060000D02*
X75400000Y-87060000D01*
X72600000Y-85660000D02*
X75400000Y-85660000D01*
X72579000Y-93280000D02*
X72579000Y-94680000D01*
X72579000Y-94680000D02*
X75379000Y-94680000D01*
X72579000Y-93280000D02*
X75379000Y-93280000D01*
X72579000Y-90740000D02*
X72579000Y-92140000D01*
X72579000Y-92140000D02*
X75379000Y-92140000D01*
X72579000Y-90740000D02*
X75379000Y-90740000D01*
X72579000Y-88200000D02*
X72579000Y-89600000D01*
X72579000Y-89600000D02*
X75379000Y-89600000D01*
X72579000Y-88200000D02*
X75379000Y-88200000D01*
X100330000Y-125790000D02*
X118170000Y-125790000D01*
X118170000Y-125790000D02*
X118170000Y-123130000D01*
X118170000Y-123130000D02*
X100330000Y-123130000D01*
X100330000Y-123130000D02*
X100330000Y-125790000D01*
X99060000Y-125790000D02*
X97730000Y-125790000D01*
X97730000Y-125790000D02*
X97730000Y-124460000D01*
X123190000Y-125790000D02*
X135950000Y-125790000D01*
X135950000Y-125790000D02*
X135950000Y-123130000D01*
X135950000Y-123130000D02*
X123190000Y-123130000D01*
X123190000Y-123130000D02*
X123190000Y-125790000D01*
X121920000Y-125790000D02*
X120590000Y-125790000D01*
X120590000Y-125790000D02*
X120590000Y-124460000D01*
X91186000Y-77530000D02*
X114106000Y-77530000D01*
X114106000Y-77530000D02*
X114106000Y-74870000D01*
X114106000Y-74870000D02*
X91186000Y-74870000D01*
X91186000Y-74870000D02*
X91186000Y-77530000D01*
X89916000Y-77530000D02*
X88586000Y-77530000D01*
X88586000Y-77530000D02*
X88586000Y-76200000D01*
X118110000Y-77530000D02*
X135950000Y-77530000D01*
X135950000Y-77530000D02*
X135950000Y-74870000D01*
X135950000Y-74870000D02*
X118110000Y-74870000D01*
X118110000Y-74870000D02*
X118110000Y-77530000D01*
X116840000Y-77530000D02*
X115510000Y-77530000D01*
X115510000Y-77530000D02*
X115510000Y-76200000D01*
X133290000Y-102930000D02*
X138490000Y-102930000D01*
X133290000Y-97790000D02*
X133290000Y-102930000D01*
X138490000Y-95190000D02*
X138490000Y-102930000D01*
X133290000Y-97790000D02*
X135890000Y-97790000D01*
X135890000Y-97790000D02*
X135890000Y-95190000D01*
X135890000Y-95190000D02*
X138490000Y-95190000D01*
X133290000Y-96520000D02*
X133290000Y-95190000D01*
X133290000Y-95190000D02*
X134620000Y-95190000D01*
X70345000Y-99115000D02*
X70345000Y-107815000D01*
X76755000Y-99115000D02*
X76755000Y-107815000D01*
X76755000Y-107815000D02*
X70345000Y-107815000D01*
X71575000Y-107815000D02*
X71575000Y-99115000D01*
X70345000Y-99115000D02*
X76755000Y-99115000D01*
X98290000Y-92163000D02*
X99290000Y-92163000D01*
X99290000Y-90463000D02*
X98290000Y-90463000D01*
X82923000Y-107100000D02*
X81923000Y-107100000D01*
X81923000Y-108800000D02*
X82923000Y-108800000D01*
X94629000Y-85654000D02*
X94629000Y-84724000D01*
X94629000Y-82494000D02*
X94629000Y-83424000D01*
X94629000Y-82494000D02*
X92469000Y-82494000D01*
X94629000Y-85654000D02*
X93169000Y-85654000D01*
X78460000Y-93100000D02*
X79660000Y-93100000D01*
X79660000Y-94860000D02*
X78460000Y-94860000D01*
X123854000Y-115741000D02*
X125054000Y-115741000D01*
X125054000Y-117501000D02*
X123854000Y-117501000D01*
X78460000Y-90560000D02*
X79660000Y-90560000D01*
X79660000Y-92320000D02*
X78460000Y-92320000D01*
X127349000Y-115741000D02*
X128549000Y-115741000D01*
X128549000Y-117501000D02*
X127349000Y-117501000D01*
X78455000Y-88020000D02*
X79655000Y-88020000D01*
X79655000Y-89780000D02*
X78455000Y-89780000D01*
X113120000Y-107450000D02*
X113120000Y-106250000D01*
X114880000Y-106250000D02*
X114880000Y-107450000D01*
X97070022Y-111176324D02*
X95870022Y-111176324D01*
X95870022Y-109416324D02*
X97070022Y-109416324D01*
X100565022Y-111176324D02*
X99365022Y-111176324D01*
X99365022Y-109416324D02*
X100565022Y-109416324D01*
X81635000Y-103260000D02*
X82835000Y-103260000D01*
X82835000Y-105020000D02*
X81635000Y-105020000D01*
X81635000Y-101355000D02*
X82835000Y-101355000D01*
X82835000Y-103115000D02*
X81635000Y-103115000D01*
X78455000Y-85480000D02*
X79655000Y-85480000D01*
X79655000Y-87240000D02*
X78455000Y-87240000D01*
X77860000Y-106645000D02*
X77860000Y-105445000D01*
X79620000Y-105445000D02*
X79620000Y-106645000D01*
X82415000Y-101010000D02*
X81415000Y-101010000D01*
X81415000Y-99650000D02*
X82415000Y-99650000D01*
X82415000Y-106725000D02*
X81415000Y-106725000D01*
X81415000Y-105365000D02*
X82415000Y-105365000D01*
X74500000Y-81040000D02*
X74950000Y-81490000D01*
X77900000Y-81040000D02*
X77450000Y-81490000D01*
X77900000Y-76440000D02*
X77450000Y-75990000D01*
X74500000Y-76440000D02*
X74950000Y-75990000D01*
X78950000Y-77740000D02*
X78950000Y-79740000D01*
X74950000Y-81490000D02*
X77450000Y-81490000D01*
X73450000Y-77740000D02*
X73450000Y-79740000D01*
X74950000Y-75990000D02*
X77450000Y-75990000D01*
D13*
X86132000Y-82576000D02*
X86132000Y-82701000D01*
X89382000Y-82576000D02*
X89382000Y-82801000D01*
X89382000Y-85826000D02*
X89382000Y-85601000D01*
X86132000Y-85826000D02*
X86132000Y-85601000D01*
X86132000Y-82576000D02*
X89382000Y-82576000D01*
X86132000Y-85826000D02*
X89382000Y-85826000D01*
X86132000Y-82701000D02*
X85057000Y-82701000D01*
X127675000Y-107075000D02*
X127675000Y-106475000D01*
X117325000Y-107075000D02*
X117325000Y-106405000D01*
X117325000Y-96725000D02*
X117325000Y-97395000D01*
X127675000Y-96725000D02*
X127675000Y-97395000D01*
X127675000Y-107075000D02*
X127005000Y-107075000D01*
X127675000Y-96725000D02*
X127005000Y-96725000D01*
X117325000Y-96725000D02*
X117995000Y-96725000D01*
X117325000Y-107075000D02*
X117995000Y-107075000D01*
X127675000Y-106475000D02*
X129150000Y-106475000D01*
D14*
X87015000Y-109225000D02*
X87015000Y-110485000D01*
X87015000Y-116045000D02*
X87015000Y-114785000D01*
X90775000Y-109225000D02*
X87015000Y-109225000D01*
X93025000Y-116045000D02*
X87015000Y-116045000D01*
X97949000Y-98318000D02*
X99749000Y-98318000D01*
X99749000Y-95098000D02*
X97299000Y-95098000D01*
X125525126Y-92242164D02*
X125525126Y-88542164D01*
X125525126Y-88542164D02*
X120225126Y-88542164D01*
X71891000Y-115056000D02*
X76191000Y-115056000D01*
X76191000Y-115056000D02*
X76191000Y-109356000D01*
X71891000Y-115056000D02*
X71891000Y-109356000D01*
D11*
X78000000Y-98520000D02*
X78000000Y-95480000D01*
D13*
X75231667Y-121332381D02*
X75231667Y-122046667D01*
X75184047Y-122189524D01*
X75088809Y-122284762D01*
X74945952Y-122332381D01*
X74850714Y-122332381D01*
X75612619Y-121332381D02*
X76279286Y-121332381D01*
X75850714Y-122332381D01*
X89663334Y-99654143D02*
X89615715Y-99701762D01*
X89472858Y-99749381D01*
X89377620Y-99749381D01*
X89234762Y-99701762D01*
X89139524Y-99606524D01*
X89091905Y-99511286D01*
X89044286Y-99320810D01*
X89044286Y-99177952D01*
X89091905Y-98987476D01*
X89139524Y-98892238D01*
X89234762Y-98797000D01*
X89377620Y-98749381D01*
X89472858Y-98749381D01*
X89615715Y-98797000D01*
X89663334Y-98844619D01*
X90615715Y-99749381D02*
X90044286Y-99749381D01*
X90330000Y-99749381D02*
X90330000Y-98749381D01*
X90234762Y-98892238D01*
X90139524Y-98987476D01*
X90044286Y-99035095D01*
X86069048Y-97808429D02*
X86830953Y-97808429D01*
X86450001Y-98189381D02*
X86450001Y-97427476D01*
X84177143Y-94654666D02*
X84224762Y-94702285D01*
X84272381Y-94845142D01*
X84272381Y-94940380D01*
X84224762Y-95083238D01*
X84129524Y-95178476D01*
X84034286Y-95226095D01*
X83843810Y-95273714D01*
X83700952Y-95273714D01*
X83510476Y-95226095D01*
X83415238Y-95178476D01*
X83320000Y-95083238D01*
X83272381Y-94940380D01*
X83272381Y-94845142D01*
X83320000Y-94702285D01*
X83367619Y-94654666D01*
X83367619Y-94273714D02*
X83320000Y-94226095D01*
X83272381Y-94130857D01*
X83272381Y-93892761D01*
X83320000Y-93797523D01*
X83367619Y-93749904D01*
X83462857Y-93702285D01*
X83558095Y-93702285D01*
X83700952Y-93749904D01*
X84272381Y-94321333D01*
X84272381Y-93702285D01*
X117667269Y-90526830D02*
X117714888Y-90574449D01*
X117762507Y-90717306D01*
X117762507Y-90812544D01*
X117714888Y-90955402D01*
X117619650Y-91050640D01*
X117524412Y-91098259D01*
X117333936Y-91145878D01*
X117191078Y-91145878D01*
X117000602Y-91098259D01*
X116905364Y-91050640D01*
X116810126Y-90955402D01*
X116762507Y-90812544D01*
X116762507Y-90717306D01*
X116810126Y-90574449D01*
X116857745Y-90526830D01*
X116762507Y-90193497D02*
X116762507Y-89574449D01*
X117143459Y-89907783D01*
X117143459Y-89764925D01*
X117191078Y-89669687D01*
X117238697Y-89622068D01*
X117333936Y-89574449D01*
X117572031Y-89574449D01*
X117667269Y-89622068D01*
X117714888Y-89669687D01*
X117762507Y-89764925D01*
X117762507Y-90050640D01*
X117714888Y-90145878D01*
X117667269Y-90193497D01*
X129135143Y-90542830D02*
X129182762Y-90590449D01*
X129230381Y-90733306D01*
X129230381Y-90828544D01*
X129182762Y-90971402D01*
X129087524Y-91066640D01*
X128992286Y-91114259D01*
X128801810Y-91161878D01*
X128658952Y-91161878D01*
X128468476Y-91114259D01*
X128373238Y-91066640D01*
X128278000Y-90971402D01*
X128230381Y-90828544D01*
X128230381Y-90733306D01*
X128278000Y-90590449D01*
X128325619Y-90542830D01*
X128563714Y-89685687D02*
X129230381Y-89685687D01*
X128182762Y-89923783D02*
X128897048Y-90161878D01*
X128897048Y-89542830D01*
X131548143Y-105068666D02*
X131595762Y-105116285D01*
X131643381Y-105259142D01*
X131643381Y-105354380D01*
X131595762Y-105497238D01*
X131500524Y-105592476D01*
X131405286Y-105640095D01*
X131214810Y-105687714D01*
X131071952Y-105687714D01*
X130881476Y-105640095D01*
X130786238Y-105592476D01*
X130691000Y-105497238D01*
X130643381Y-105354380D01*
X130643381Y-105259142D01*
X130691000Y-105116285D01*
X130738619Y-105068666D01*
X130643381Y-104163904D02*
X130643381Y-104640095D01*
X131119571Y-104687714D01*
X131071952Y-104640095D01*
X131024333Y-104544857D01*
X131024333Y-104306761D01*
X131071952Y-104211523D01*
X131119571Y-104163904D01*
X131214810Y-104116285D01*
X131452905Y-104116285D01*
X131548143Y-104163904D01*
X131595762Y-104211523D01*
X131643381Y-104306761D01*
X131643381Y-104544857D01*
X131595762Y-104640095D01*
X131548143Y-104687714D01*
X123166143Y-111926666D02*
X123213762Y-111974285D01*
X123261381Y-112117142D01*
X123261381Y-112212380D01*
X123213762Y-112355238D01*
X123118524Y-112450476D01*
X123023286Y-112498095D01*
X122832810Y-112545714D01*
X122689952Y-112545714D01*
X122499476Y-112498095D01*
X122404238Y-112450476D01*
X122309000Y-112355238D01*
X122261381Y-112212380D01*
X122261381Y-112117142D01*
X122309000Y-111974285D01*
X122356619Y-111926666D01*
X122261381Y-111069523D02*
X122261381Y-111260000D01*
X122309000Y-111355238D01*
X122356619Y-111402857D01*
X122499476Y-111498095D01*
X122689952Y-111545714D01*
X123070905Y-111545714D01*
X123166143Y-111498095D01*
X123213762Y-111450476D01*
X123261381Y-111355238D01*
X123261381Y-111164761D01*
X123213762Y-111069523D01*
X123166143Y-111021904D01*
X123070905Y-110974285D01*
X122832810Y-110974285D01*
X122737571Y-111021904D01*
X122689952Y-111069523D01*
X122642333Y-111164761D01*
X122642333Y-111355238D01*
X122689952Y-111450476D01*
X122737571Y-111498095D01*
X122832810Y-111545714D01*
X127230334Y-112371143D02*
X127182715Y-112418762D01*
X127039858Y-112466381D01*
X126944620Y-112466381D01*
X126801762Y-112418762D01*
X126706524Y-112323524D01*
X126658905Y-112228286D01*
X126611286Y-112037810D01*
X126611286Y-111894952D01*
X126658905Y-111704476D01*
X126706524Y-111609238D01*
X126801762Y-111514000D01*
X126944620Y-111466381D01*
X127039858Y-111466381D01*
X127182715Y-111514000D01*
X127230334Y-111561619D01*
X127563667Y-111466381D02*
X128230334Y-111466381D01*
X127801762Y-112466381D01*
X99782334Y-106680143D02*
X99734715Y-106727762D01*
X99591858Y-106775381D01*
X99496620Y-106775381D01*
X99353762Y-106727762D01*
X99258524Y-106632524D01*
X99210905Y-106537286D01*
X99163286Y-106346810D01*
X99163286Y-106203952D01*
X99210905Y-106013476D01*
X99258524Y-105918238D01*
X99353762Y-105823000D01*
X99496620Y-105775381D01*
X99591858Y-105775381D01*
X99734715Y-105823000D01*
X99782334Y-105870619D01*
X100353762Y-106203952D02*
X100258524Y-106156333D01*
X100210905Y-106108714D01*
X100163286Y-106013476D01*
X100163286Y-105965857D01*
X100210905Y-105870619D01*
X100258524Y-105823000D01*
X100353762Y-105775381D01*
X100544239Y-105775381D01*
X100639477Y-105823000D01*
X100687096Y-105870619D01*
X100734715Y-105965857D01*
X100734715Y-106013476D01*
X100687096Y-106108714D01*
X100639477Y-106156333D01*
X100544239Y-106203952D01*
X100353762Y-106203952D01*
X100258524Y-106251571D01*
X100210905Y-106299190D01*
X100163286Y-106394429D01*
X100163286Y-106584905D01*
X100210905Y-106680143D01*
X100258524Y-106727762D01*
X100353762Y-106775381D01*
X100544239Y-106775381D01*
X100639477Y-106727762D01*
X100687096Y-106680143D01*
X100734715Y-106584905D01*
X100734715Y-106394429D01*
X100687096Y-106299190D01*
X100639477Y-106251571D01*
X100544239Y-106203952D01*
X128357334Y-94083143D02*
X128309715Y-94130762D01*
X128166858Y-94178381D01*
X128071620Y-94178381D01*
X127928762Y-94130762D01*
X127833524Y-94035524D01*
X127785905Y-93940286D01*
X127738286Y-93749810D01*
X127738286Y-93606952D01*
X127785905Y-93416476D01*
X127833524Y-93321238D01*
X127928762Y-93226000D01*
X128071620Y-93178381D01*
X128166858Y-93178381D01*
X128309715Y-93226000D01*
X128357334Y-93273619D01*
X128833524Y-94178381D02*
X129024000Y-94178381D01*
X129119239Y-94130762D01*
X129166858Y-94083143D01*
X129262096Y-93940286D01*
X129309715Y-93749810D01*
X129309715Y-93368857D01*
X129262096Y-93273619D01*
X129214477Y-93226000D01*
X129119239Y-93178381D01*
X128928762Y-93178381D01*
X128833524Y-93226000D01*
X128785905Y-93273619D01*
X128738286Y-93368857D01*
X128738286Y-93606952D01*
X128785905Y-93702190D01*
X128833524Y-93749810D01*
X128928762Y-93797429D01*
X129119239Y-93797429D01*
X129214477Y-93749810D01*
X129262096Y-93702190D01*
X129309715Y-93606952D01*
X88597143Y-123657143D02*
X88549524Y-123704762D01*
X88406667Y-123752381D01*
X88311429Y-123752381D01*
X88168571Y-123704762D01*
X88073333Y-123609524D01*
X88025714Y-123514286D01*
X87978095Y-123323810D01*
X87978095Y-123180952D01*
X88025714Y-122990476D01*
X88073333Y-122895238D01*
X88168571Y-122800000D01*
X88311429Y-122752381D01*
X88406667Y-122752381D01*
X88549524Y-122800000D01*
X88597143Y-122847619D01*
X89549524Y-123752381D02*
X88978095Y-123752381D01*
X89263809Y-123752381D02*
X89263809Y-122752381D01*
X89168571Y-122895238D01*
X89073333Y-122990476D01*
X88978095Y-123038095D01*
X90168571Y-122752381D02*
X90263810Y-122752381D01*
X90359048Y-122800000D01*
X90406667Y-122847619D01*
X90454286Y-122942857D01*
X90501905Y-123133333D01*
X90501905Y-123371429D01*
X90454286Y-123561905D01*
X90406667Y-123657143D01*
X90359048Y-123704762D01*
X90263810Y-123752381D01*
X90168571Y-123752381D01*
X90073333Y-123704762D01*
X90025714Y-123657143D01*
X89978095Y-123561905D01*
X89930476Y-123371429D01*
X89930476Y-123133333D01*
X89978095Y-122942857D01*
X90025714Y-122847619D01*
X90073333Y-122800000D01*
X90168571Y-122752381D01*
X85479048Y-121811429D02*
X86240953Y-121811429D01*
X85860001Y-122192381D02*
X85860001Y-121430476D01*
X98290143Y-98552143D02*
X98242524Y-98599762D01*
X98099667Y-98647381D01*
X98004429Y-98647381D01*
X97861571Y-98599762D01*
X97766333Y-98504524D01*
X97718714Y-98409286D01*
X97671095Y-98218810D01*
X97671095Y-98075952D01*
X97718714Y-97885476D01*
X97766333Y-97790238D01*
X97861571Y-97695000D01*
X98004429Y-97647381D01*
X98099667Y-97647381D01*
X98242524Y-97695000D01*
X98290143Y-97742619D01*
X99242524Y-98647381D02*
X98671095Y-98647381D01*
X98956809Y-98647381D02*
X98956809Y-97647381D01*
X98861571Y-97790238D01*
X98766333Y-97885476D01*
X98671095Y-97933095D01*
X100194905Y-98647381D02*
X99623476Y-98647381D01*
X99909190Y-98647381D02*
X99909190Y-97647381D01*
X99813952Y-97790238D01*
X99718714Y-97885476D01*
X99623476Y-97933095D01*
X96512143Y-115817143D02*
X96464524Y-115864762D01*
X96321667Y-115912381D01*
X96226429Y-115912381D01*
X96083571Y-115864762D01*
X95988333Y-115769524D01*
X95940714Y-115674286D01*
X95893095Y-115483810D01*
X95893095Y-115340952D01*
X95940714Y-115150476D01*
X95988333Y-115055238D01*
X96083571Y-114960000D01*
X96226429Y-114912381D01*
X96321667Y-114912381D01*
X96464524Y-114960000D01*
X96512143Y-115007619D01*
X97464524Y-115912381D02*
X96893095Y-115912381D01*
X97178809Y-115912381D02*
X97178809Y-114912381D01*
X97083571Y-115055238D01*
X96988333Y-115150476D01*
X96893095Y-115198095D01*
X97845476Y-115007619D02*
X97893095Y-114960000D01*
X97988333Y-114912381D01*
X98226429Y-114912381D01*
X98321667Y-114960000D01*
X98369286Y-115007619D01*
X98416905Y-115102857D01*
X98416905Y-115198095D01*
X98369286Y-115340952D01*
X97797857Y-115912381D01*
X98416905Y-115912381D01*
X100154048Y-117091429D02*
X100915953Y-117091429D01*
X100535001Y-117472381D02*
X100535001Y-116710476D01*
X98163143Y-95583143D02*
X98115524Y-95630762D01*
X97972667Y-95678381D01*
X97877429Y-95678381D01*
X97734571Y-95630762D01*
X97639333Y-95535524D01*
X97591714Y-95440286D01*
X97544095Y-95249810D01*
X97544095Y-95106952D01*
X97591714Y-94916476D01*
X97639333Y-94821238D01*
X97734571Y-94726000D01*
X97877429Y-94678381D01*
X97972667Y-94678381D01*
X98115524Y-94726000D01*
X98163143Y-94773619D01*
X99115524Y-95678381D02*
X98544095Y-95678381D01*
X98829809Y-95678381D02*
X98829809Y-94678381D01*
X98734571Y-94821238D01*
X98639333Y-94916476D01*
X98544095Y-94964095D01*
X99448857Y-94678381D02*
X100067905Y-94678381D01*
X99734571Y-95059333D01*
X99877429Y-95059333D01*
X99972667Y-95106952D01*
X100020286Y-95154571D01*
X100067905Y-95249810D01*
X100067905Y-95487905D01*
X100020286Y-95583143D01*
X99972667Y-95630762D01*
X99877429Y-95678381D01*
X99591714Y-95678381D01*
X99496476Y-95630762D01*
X99448857Y-95583143D01*
X77287381Y-87098095D02*
X76287381Y-87098095D01*
X76287381Y-86860000D01*
X76335000Y-86717142D01*
X76430238Y-86621904D01*
X76525476Y-86574285D01*
X76715952Y-86526666D01*
X76858810Y-86526666D01*
X77049286Y-86574285D01*
X77144524Y-86621904D01*
X77239762Y-86717142D01*
X77287381Y-86860000D01*
X77287381Y-87098095D01*
X77287381Y-85574285D02*
X77287381Y-86145714D01*
X77287381Y-85860000D02*
X76287381Y-85860000D01*
X76430238Y-85955238D01*
X76525476Y-86050476D01*
X76573095Y-86145714D01*
X77287381Y-94718095D02*
X76287381Y-94718095D01*
X76287381Y-94480000D01*
X76335000Y-94337142D01*
X76430238Y-94241904D01*
X76525476Y-94194285D01*
X76715952Y-94146666D01*
X76858810Y-94146666D01*
X77049286Y-94194285D01*
X77144524Y-94241904D01*
X77239762Y-94337142D01*
X77287381Y-94480000D01*
X77287381Y-94718095D01*
X76382619Y-93765714D02*
X76335000Y-93718095D01*
X76287381Y-93622857D01*
X76287381Y-93384761D01*
X76335000Y-93289523D01*
X76382619Y-93241904D01*
X76477857Y-93194285D01*
X76573095Y-93194285D01*
X76715952Y-93241904D01*
X77287381Y-93813333D01*
X77287381Y-93194285D01*
X77287381Y-92178095D02*
X76287381Y-92178095D01*
X76287381Y-91940000D01*
X76335000Y-91797142D01*
X76430238Y-91701904D01*
X76525476Y-91654285D01*
X76715952Y-91606666D01*
X76858810Y-91606666D01*
X77049286Y-91654285D01*
X77144524Y-91701904D01*
X77239762Y-91797142D01*
X77287381Y-91940000D01*
X77287381Y-92178095D01*
X76287381Y-91273333D02*
X76287381Y-90654285D01*
X76668333Y-90987619D01*
X76668333Y-90844761D01*
X76715952Y-90749523D01*
X76763571Y-90701904D01*
X76858810Y-90654285D01*
X77096905Y-90654285D01*
X77192143Y-90701904D01*
X77239762Y-90749523D01*
X77287381Y-90844761D01*
X77287381Y-91130476D01*
X77239762Y-91225714D01*
X77192143Y-91273333D01*
X77287381Y-89638095D02*
X76287381Y-89638095D01*
X76287381Y-89400000D01*
X76335000Y-89257142D01*
X76430238Y-89161904D01*
X76525476Y-89114285D01*
X76715952Y-89066666D01*
X76858810Y-89066666D01*
X77049286Y-89114285D01*
X77144524Y-89161904D01*
X77239762Y-89257142D01*
X77287381Y-89400000D01*
X77287381Y-89638095D01*
X76620714Y-88209523D02*
X77287381Y-88209523D01*
X76239762Y-88447619D02*
X76954048Y-88685714D01*
X76954048Y-88066666D01*
X77067381Y-103798333D02*
X77781667Y-103798333D01*
X77924524Y-103845953D01*
X78019762Y-103941191D01*
X78067381Y-104084048D01*
X78067381Y-104179286D01*
X77067381Y-102893571D02*
X77067381Y-103084048D01*
X77115000Y-103179286D01*
X77162619Y-103226905D01*
X77305476Y-103322143D01*
X77495952Y-103369762D01*
X77876905Y-103369762D01*
X77972143Y-103322143D01*
X78019762Y-103274524D01*
X78067381Y-103179286D01*
X78067381Y-102988809D01*
X78019762Y-102893571D01*
X77972143Y-102845952D01*
X77876905Y-102798333D01*
X77638810Y-102798333D01*
X77543571Y-102845952D01*
X77495952Y-102893571D01*
X77448333Y-102988809D01*
X77448333Y-103179286D01*
X77495952Y-103274524D01*
X77543571Y-103322143D01*
X77638810Y-103369762D01*
X98623334Y-93265381D02*
X98147143Y-93265381D01*
X98147143Y-92265381D01*
X99480477Y-93265381D02*
X98909048Y-93265381D01*
X99194762Y-93265381D02*
X99194762Y-92265381D01*
X99099524Y-92408238D01*
X99004286Y-92503476D01*
X98909048Y-92551095D01*
X84669334Y-108402381D02*
X84193143Y-108402381D01*
X84193143Y-107402381D01*
X84955048Y-107497619D02*
X85002667Y-107450000D01*
X85097905Y-107402381D01*
X85336001Y-107402381D01*
X85431239Y-107450000D01*
X85478858Y-107497619D01*
X85526477Y-107592857D01*
X85526477Y-107688095D01*
X85478858Y-107830952D01*
X84907429Y-108402381D01*
X85526477Y-108402381D01*
X95662762Y-83224619D02*
X95567524Y-83177000D01*
X95472286Y-83081762D01*
X95329429Y-82938905D01*
X95234190Y-82891286D01*
X95138952Y-82891286D01*
X95186571Y-83129381D02*
X95091333Y-83081762D01*
X94996095Y-82986524D01*
X94948476Y-82796048D01*
X94948476Y-82462714D01*
X94996095Y-82272238D01*
X95091333Y-82177000D01*
X95186571Y-82129381D01*
X95377048Y-82129381D01*
X95472286Y-82177000D01*
X95567524Y-82272238D01*
X95615143Y-82462714D01*
X95615143Y-82796048D01*
X95567524Y-82986524D01*
X95472286Y-83081762D01*
X95377048Y-83129381D01*
X95186571Y-83129381D01*
X96567524Y-83129381D02*
X95996095Y-83129381D01*
X96281809Y-83129381D02*
X96281809Y-82129381D01*
X96186571Y-82272238D01*
X96091333Y-82367476D01*
X95996095Y-82415095D01*
X81240334Y-94432381D02*
X80907000Y-93956190D01*
X80668905Y-94432381D02*
X80668905Y-93432381D01*
X81049858Y-93432381D01*
X81145096Y-93480000D01*
X81192715Y-93527619D01*
X81240334Y-93622857D01*
X81240334Y-93765714D01*
X81192715Y-93860952D01*
X81145096Y-93908571D01*
X81049858Y-93956190D01*
X80668905Y-93956190D01*
X82192715Y-94432381D02*
X81621286Y-94432381D01*
X81907000Y-94432381D02*
X81907000Y-93432381D01*
X81811762Y-93575238D01*
X81716524Y-93670476D01*
X81621286Y-93718095D01*
X124287334Y-118723381D02*
X123954000Y-118247190D01*
X123715905Y-118723381D02*
X123715905Y-117723381D01*
X124096858Y-117723381D01*
X124192096Y-117771000D01*
X124239715Y-117818619D01*
X124287334Y-117913857D01*
X124287334Y-118056714D01*
X124239715Y-118151952D01*
X124192096Y-118199571D01*
X124096858Y-118247190D01*
X123715905Y-118247190D01*
X124668286Y-117818619D02*
X124715905Y-117771000D01*
X124811143Y-117723381D01*
X125049239Y-117723381D01*
X125144477Y-117771000D01*
X125192096Y-117818619D01*
X125239715Y-117913857D01*
X125239715Y-118009095D01*
X125192096Y-118151952D01*
X124620667Y-118723381D01*
X125239715Y-118723381D01*
X81240334Y-91892381D02*
X80907000Y-91416190D01*
X80668905Y-91892381D02*
X80668905Y-90892381D01*
X81049858Y-90892381D01*
X81145096Y-90940000D01*
X81192715Y-90987619D01*
X81240334Y-91082857D01*
X81240334Y-91225714D01*
X81192715Y-91320952D01*
X81145096Y-91368571D01*
X81049858Y-91416190D01*
X80668905Y-91416190D01*
X81573667Y-90892381D02*
X82192715Y-90892381D01*
X81859381Y-91273333D01*
X82002239Y-91273333D01*
X82097477Y-91320952D01*
X82145096Y-91368571D01*
X82192715Y-91463810D01*
X82192715Y-91701905D01*
X82145096Y-91797143D01*
X82097477Y-91844762D01*
X82002239Y-91892381D01*
X81716524Y-91892381D01*
X81621286Y-91844762D01*
X81573667Y-91797143D01*
X127782334Y-118723381D02*
X127449000Y-118247190D01*
X127210905Y-118723381D02*
X127210905Y-117723381D01*
X127591858Y-117723381D01*
X127687096Y-117771000D01*
X127734715Y-117818619D01*
X127782334Y-117913857D01*
X127782334Y-118056714D01*
X127734715Y-118151952D01*
X127687096Y-118199571D01*
X127591858Y-118247190D01*
X127210905Y-118247190D01*
X128639477Y-118056714D02*
X128639477Y-118723381D01*
X128401381Y-117675762D02*
X128163286Y-118390048D01*
X128782334Y-118390048D01*
X81240334Y-89352381D02*
X80907000Y-88876190D01*
X80668905Y-89352381D02*
X80668905Y-88352381D01*
X81049858Y-88352381D01*
X81145096Y-88400000D01*
X81192715Y-88447619D01*
X81240334Y-88542857D01*
X81240334Y-88685714D01*
X81192715Y-88780952D01*
X81145096Y-88828571D01*
X81049858Y-88876190D01*
X80668905Y-88876190D01*
X82145096Y-88352381D02*
X81668905Y-88352381D01*
X81621286Y-88828571D01*
X81668905Y-88780952D01*
X81764143Y-88733333D01*
X82002239Y-88733333D01*
X82097477Y-88780952D01*
X82145096Y-88828571D01*
X82192715Y-88923810D01*
X82192715Y-89161905D01*
X82145096Y-89257143D01*
X82097477Y-89304762D01*
X82002239Y-89352381D01*
X81764143Y-89352381D01*
X81668905Y-89304762D01*
X81621286Y-89257143D01*
X112720381Y-107016666D02*
X112244190Y-107350000D01*
X112720381Y-107588095D02*
X111720381Y-107588095D01*
X111720381Y-107207142D01*
X111768000Y-107111904D01*
X111815619Y-107064285D01*
X111910857Y-107016666D01*
X112053714Y-107016666D01*
X112148952Y-107064285D01*
X112196571Y-107111904D01*
X112244190Y-107207142D01*
X112244190Y-107588095D01*
X111720381Y-106159523D02*
X111720381Y-106350000D01*
X111768000Y-106445238D01*
X111815619Y-106492857D01*
X111958476Y-106588095D01*
X112148952Y-106635714D01*
X112529905Y-106635714D01*
X112625143Y-106588095D01*
X112672762Y-106540476D01*
X112720381Y-106445238D01*
X112720381Y-106254761D01*
X112672762Y-106159523D01*
X112625143Y-106111904D01*
X112529905Y-106064285D01*
X112291810Y-106064285D01*
X112196571Y-106111904D01*
X112148952Y-106159523D01*
X112101333Y-106254761D01*
X112101333Y-106445238D01*
X112148952Y-106540476D01*
X112196571Y-106588095D01*
X112291810Y-106635714D01*
X96303356Y-112593381D02*
X95970022Y-112117190D01*
X95731927Y-112593381D02*
X95731927Y-111593381D01*
X96112880Y-111593381D01*
X96208118Y-111641000D01*
X96255737Y-111688619D01*
X96303356Y-111783857D01*
X96303356Y-111926714D01*
X96255737Y-112021952D01*
X96208118Y-112069571D01*
X96112880Y-112117190D01*
X95731927Y-112117190D01*
X96636689Y-111593381D02*
X97303356Y-111593381D01*
X96874784Y-112593381D01*
X99798356Y-112593381D02*
X99465022Y-112117190D01*
X99226927Y-112593381D02*
X99226927Y-111593381D01*
X99607880Y-111593381D01*
X99703118Y-111641000D01*
X99750737Y-111688619D01*
X99798356Y-111783857D01*
X99798356Y-111926714D01*
X99750737Y-112021952D01*
X99703118Y-112069571D01*
X99607880Y-112117190D01*
X99226927Y-112117190D01*
X100369784Y-112021952D02*
X100274546Y-111974333D01*
X100226927Y-111926714D01*
X100179308Y-111831476D01*
X100179308Y-111783857D01*
X100226927Y-111688619D01*
X100274546Y-111641000D01*
X100369784Y-111593381D01*
X100560261Y-111593381D01*
X100655499Y-111641000D01*
X100703118Y-111688619D01*
X100750737Y-111783857D01*
X100750737Y-111831476D01*
X100703118Y-111926714D01*
X100655499Y-111974333D01*
X100560261Y-112021952D01*
X100369784Y-112021952D01*
X100274546Y-112069571D01*
X100226927Y-112117190D01*
X100179308Y-112212429D01*
X100179308Y-112402905D01*
X100226927Y-112498143D01*
X100274546Y-112545762D01*
X100369784Y-112593381D01*
X100560261Y-112593381D01*
X100655499Y-112545762D01*
X100703118Y-112498143D01*
X100750737Y-112402905D01*
X100750737Y-112212429D01*
X100703118Y-112117190D01*
X100655499Y-112069571D01*
X100560261Y-112021952D01*
X84415334Y-104592381D02*
X84082000Y-104116190D01*
X83843905Y-104592381D02*
X83843905Y-103592381D01*
X84224858Y-103592381D01*
X84320096Y-103640000D01*
X84367715Y-103687619D01*
X84415334Y-103782857D01*
X84415334Y-103925714D01*
X84367715Y-104020952D01*
X84320096Y-104068571D01*
X84224858Y-104116190D01*
X83843905Y-104116190D01*
X84891524Y-104592381D02*
X85082000Y-104592381D01*
X85177239Y-104544762D01*
X85224858Y-104497143D01*
X85320096Y-104354286D01*
X85367715Y-104163810D01*
X85367715Y-103782857D01*
X85320096Y-103687619D01*
X85272477Y-103640000D01*
X85177239Y-103592381D01*
X84986762Y-103592381D01*
X84891524Y-103640000D01*
X84843905Y-103687619D01*
X84796286Y-103782857D01*
X84796286Y-104020952D01*
X84843905Y-104116190D01*
X84891524Y-104163810D01*
X84986762Y-104211429D01*
X85177239Y-104211429D01*
X85272477Y-104163810D01*
X85320096Y-104116190D01*
X85367715Y-104020952D01*
X84447143Y-102687381D02*
X84113809Y-102211190D01*
X83875714Y-102687381D02*
X83875714Y-101687381D01*
X84256667Y-101687381D01*
X84351905Y-101735000D01*
X84399524Y-101782619D01*
X84447143Y-101877857D01*
X84447143Y-102020714D01*
X84399524Y-102115952D01*
X84351905Y-102163571D01*
X84256667Y-102211190D01*
X83875714Y-102211190D01*
X85399524Y-102687381D02*
X84828095Y-102687381D01*
X85113809Y-102687381D02*
X85113809Y-101687381D01*
X85018571Y-101830238D01*
X84923333Y-101925476D01*
X84828095Y-101973095D01*
X86018571Y-101687381D02*
X86113810Y-101687381D01*
X86209048Y-101735000D01*
X86256667Y-101782619D01*
X86304286Y-101877857D01*
X86351905Y-102068333D01*
X86351905Y-102306429D01*
X86304286Y-102496905D01*
X86256667Y-102592143D01*
X86209048Y-102639762D01*
X86113810Y-102687381D01*
X86018571Y-102687381D01*
X85923333Y-102639762D01*
X85875714Y-102592143D01*
X85828095Y-102496905D01*
X85780476Y-102306429D01*
X85780476Y-102068333D01*
X85828095Y-101877857D01*
X85875714Y-101782619D01*
X85923333Y-101735000D01*
X86018571Y-101687381D01*
X81272143Y-86812381D02*
X80938809Y-86336190D01*
X80700714Y-86812381D02*
X80700714Y-85812381D01*
X81081667Y-85812381D01*
X81176905Y-85860000D01*
X81224524Y-85907619D01*
X81272143Y-86002857D01*
X81272143Y-86145714D01*
X81224524Y-86240952D01*
X81176905Y-86288571D01*
X81081667Y-86336190D01*
X80700714Y-86336190D01*
X82224524Y-86812381D02*
X81653095Y-86812381D01*
X81938809Y-86812381D02*
X81938809Y-85812381D01*
X81843571Y-85955238D01*
X81748333Y-86050476D01*
X81653095Y-86098095D01*
X83176905Y-86812381D02*
X82605476Y-86812381D01*
X82891190Y-86812381D02*
X82891190Y-85812381D01*
X82795952Y-85955238D01*
X82700714Y-86050476D01*
X82605476Y-86098095D01*
X80842381Y-106687857D02*
X80366190Y-107021191D01*
X80842381Y-107259286D02*
X79842381Y-107259286D01*
X79842381Y-106878333D01*
X79890000Y-106783095D01*
X79937619Y-106735476D01*
X80032857Y-106687857D01*
X80175714Y-106687857D01*
X80270952Y-106735476D01*
X80318571Y-106783095D01*
X80366190Y-106878333D01*
X80366190Y-107259286D01*
X80842381Y-105735476D02*
X80842381Y-106306905D01*
X80842381Y-106021191D02*
X79842381Y-106021191D01*
X79985238Y-106116429D01*
X80080476Y-106211667D01*
X80128095Y-106306905D01*
X79937619Y-105354524D02*
X79890000Y-105306905D01*
X79842381Y-105211667D01*
X79842381Y-104973571D01*
X79890000Y-104878333D01*
X79937619Y-104830714D01*
X80032857Y-104783095D01*
X80128095Y-104783095D01*
X80270952Y-104830714D01*
X80842381Y-105402143D01*
X80842381Y-104783095D01*
X83859762Y-100782381D02*
X83526428Y-100306190D01*
X83288333Y-100782381D02*
X83288333Y-99782381D01*
X83669286Y-99782381D01*
X83764524Y-99830000D01*
X83812143Y-99877619D01*
X83859762Y-99972857D01*
X83859762Y-100115714D01*
X83812143Y-100210952D01*
X83764524Y-100258571D01*
X83669286Y-100306190D01*
X83288333Y-100306190D01*
X84145476Y-99782381D02*
X84478809Y-100782381D01*
X84812143Y-99782381D01*
X85669286Y-100782381D02*
X85097857Y-100782381D01*
X85383571Y-100782381D02*
X85383571Y-99782381D01*
X85288333Y-99925238D01*
X85193095Y-100020476D01*
X85097857Y-100068095D01*
X83859762Y-106497381D02*
X83526428Y-106021190D01*
X83288333Y-106497381D02*
X83288333Y-105497381D01*
X83669286Y-105497381D01*
X83764524Y-105545000D01*
X83812143Y-105592619D01*
X83859762Y-105687857D01*
X83859762Y-105830714D01*
X83812143Y-105925952D01*
X83764524Y-105973571D01*
X83669286Y-106021190D01*
X83288333Y-106021190D01*
X84145476Y-105497381D02*
X84478809Y-106497381D01*
X84812143Y-105497381D01*
X85097857Y-105592619D02*
X85145476Y-105545000D01*
X85240714Y-105497381D01*
X85478810Y-105497381D01*
X85574048Y-105545000D01*
X85621667Y-105592619D01*
X85669286Y-105687857D01*
X85669286Y-105783095D01*
X85621667Y-105925952D01*
X85050238Y-106497381D01*
X85669286Y-106497381D01*
X86995095Y-81103381D02*
X86995095Y-81912905D01*
X87042714Y-82008143D01*
X87090333Y-82055762D01*
X87185571Y-82103381D01*
X87376048Y-82103381D01*
X87471286Y-82055762D01*
X87518905Y-82008143D01*
X87566524Y-81912905D01*
X87566524Y-81103381D01*
X88566524Y-82103381D02*
X87995095Y-82103381D01*
X88280809Y-82103381D02*
X88280809Y-81103381D01*
X88185571Y-81246238D01*
X88090333Y-81341476D01*
X87995095Y-81389095D01*
X128270095Y-106894381D02*
X128270095Y-107703905D01*
X128317714Y-107799143D01*
X128365333Y-107846762D01*
X128460571Y-107894381D01*
X128651048Y-107894381D01*
X128746286Y-107846762D01*
X128793905Y-107799143D01*
X128841524Y-107703905D01*
X128841524Y-106894381D01*
X129270095Y-106989619D02*
X129317714Y-106942000D01*
X129412952Y-106894381D01*
X129651048Y-106894381D01*
X129746286Y-106942000D01*
X129793905Y-106989619D01*
X129841524Y-107084857D01*
X129841524Y-107180095D01*
X129793905Y-107322952D01*
X129222476Y-107894381D01*
X129841524Y-107894381D01*
X88138095Y-107656381D02*
X88138095Y-108465905D01*
X88185714Y-108561143D01*
X88233333Y-108608762D01*
X88328571Y-108656381D01*
X88519048Y-108656381D01*
X88614286Y-108608762D01*
X88661905Y-108561143D01*
X88709524Y-108465905D01*
X88709524Y-107656381D01*
X89614286Y-107989714D02*
X89614286Y-108656381D01*
X89376190Y-107608762D02*
X89138095Y-108323048D01*
X89757143Y-108323048D01*
X97917095Y-92670381D02*
X97917095Y-93479905D01*
X97964714Y-93575143D01*
X98012333Y-93622762D01*
X98107571Y-93670381D01*
X98298048Y-93670381D01*
X98393286Y-93622762D01*
X98440905Y-93575143D01*
X98488524Y-93479905D01*
X98488524Y-92670381D01*
X99440905Y-92670381D02*
X98964714Y-92670381D01*
X98917095Y-93146571D01*
X98964714Y-93098952D01*
X99059952Y-93051333D01*
X99298048Y-93051333D01*
X99393286Y-93098952D01*
X99440905Y-93146571D01*
X99488524Y-93241810D01*
X99488524Y-93479905D01*
X99440905Y-93575143D01*
X99393286Y-93622762D01*
X99298048Y-93670381D01*
X99059952Y-93670381D01*
X98964714Y-93622762D01*
X98917095Y-93575143D01*
X122398935Y-87606190D02*
X122398935Y-88082381D01*
X122065602Y-87082381D02*
X122398935Y-87606190D01*
X122732269Y-87082381D01*
X123589412Y-88082381D02*
X123017983Y-88082381D01*
X123303697Y-88082381D02*
X123303697Y-87082381D01*
X123208459Y-87225238D01*
X123113221Y-87320476D01*
X123017983Y-87368095D01*
X74493381Y-116943095D02*
X73493381Y-116943095D01*
X73493381Y-116705000D01*
X73541000Y-116562142D01*
X73636238Y-116466904D01*
X73731476Y-116419285D01*
X73921952Y-116371666D01*
X74064810Y-116371666D01*
X74255286Y-116419285D01*
X74350524Y-116466904D01*
X74445762Y-116562142D01*
X74493381Y-116705000D01*
X74493381Y-116943095D01*
X73493381Y-115466904D02*
X73493381Y-115943095D01*
X73969571Y-115990714D01*
X73921952Y-115943095D01*
X73874333Y-115847857D01*
X73874333Y-115609761D01*
X73921952Y-115514523D01*
X73969571Y-115466904D01*
X74064810Y-115419285D01*
X74302905Y-115419285D01*
X74398143Y-115466904D01*
X74445762Y-115514523D01*
X74493381Y-115609761D01*
X74493381Y-115847857D01*
X74445762Y-115943095D01*
X74398143Y-115990714D01*
D15*
X77576667Y-96909286D02*
X77153334Y-96909286D01*
X77153334Y-97574524D02*
X77153334Y-96304524D01*
X77758096Y-96304524D01*
X78907143Y-97574524D02*
X78181429Y-97574524D01*
X78544286Y-97574524D02*
X78544286Y-96304524D01*
X78423334Y-96485952D01*
X78302381Y-96606905D01*
X78181429Y-96667381D01*
M02*
