M48
;DRILL file {KiCad 4.0.7} date 10/12/17 19:57:09
;FORMAT={2:4/ absolute / inch / suppress leading zeros}
FMAT,2
INCH,TZ
T1C0.016
T2C0.020
T3C0.022
T4C0.039
T5C0.063
%
G90
G05
M72
T1
X30048Y-33043
X30062Y-32728
X30500Y-43750
X30500Y-45000
X31000Y-43750
X31000Y-45000
X31500Y-43750
X31500Y-45000
X31950Y-31750
X32000Y-43750
X32000Y-45000
X32500Y-43750
X32500Y-45000
X33000Y-43750
X33000Y-45000
X33700Y-34000
X34000Y-32100
X35150Y-36200
X35995Y-36725
X37050Y-45250
X37350Y-33550
X37543Y-37550
X37789Y-38891
X37850Y-39200
X38450Y-42450
X39950Y-39250
X40300Y-43400
X40400Y-37700
X40938Y-35950
X43479Y-41347
X43774Y-41824
X44150Y-40500
X44882Y-42835
X44906Y-31318
X45245Y-37701
X45700Y-46100
X45795Y-32033
X45906Y-37992
X45955Y-31693
X46163Y-31233
X46465Y-31063
X46589Y-37172
X46969Y-43268
X48026Y-30886
X48500Y-43700
X48919Y-45393
X50900Y-37000
X51250Y-45850
X51487Y-38913
X51600Y-42900
X51950Y-42700
X52150Y-39400
X52400Y-40850
X52700Y-41824
X52789Y-41361
T4
X35400Y-30000
X36400Y-30000
X37400Y-30000
X38400Y-30000
X39000Y-49000
X39400Y-30000
X40000Y-49000
X40400Y-30000
X41000Y-49000
X41400Y-30000
X42000Y-49000
X42400Y-30000
X43000Y-49000
X43400Y-30000
X44000Y-49000
X44400Y-30000
X45000Y-49000
X46000Y-30000
X46000Y-49000
X47000Y-30000
X48000Y-30000
X48000Y-49000
X49000Y-30000
X49000Y-49000
X50000Y-30000
X50000Y-49000
X51000Y-30000
X51000Y-49000
X52000Y-30000
X52000Y-49000
X53000Y-30000
X53000Y-38000
X53000Y-39000
X53000Y-40000
X53000Y-49000
X54000Y-38000
X54000Y-39000
X54000Y-40000
T5
X29750Y-47000
X30970Y-48969
X32191Y-47000
T2
X28622Y-39356G85X28878Y-39356
G05
X28622Y-42112G85X28878Y-42112
G05
T3
X29813Y-39691G85X29813Y-39809
G05
X29813Y-41659G85X29813Y-41778
G05
T0
M30
